<svg viewBox="0 0 32.5 32.5" fill="none" xmlns="http://www.w3.org/2000/svg">
<!-- <path d="M55.3599 20.7723C55.2918 20.6362 55.2339 20.4796 55.1863 20.3026C55.1386 20.1256 55.0978 19.9384 55.0638 19.741C54.9072 19.9112 54.7268 20.0712 54.5226 20.2209C54.3184 20.3707 54.0903 20.5034 53.8385 20.6191C53.5934 20.7281 53.3211 20.8131 53.0216 20.8744C52.7221 20.9425 52.3987 20.9765 52.0516 20.9765C51.4866 20.9765 50.9658 20.8948 50.4893 20.7315C50.0196 20.5681 49.6146 20.34 49.2742 20.0473C48.9339 19.7546 48.6684 19.4075 48.4778 19.0058C48.2872 18.5974 48.1919 18.1549 48.1919 17.6784C48.1919 16.5144 48.6242 15.6159 49.4887 14.9828C50.36 14.3429 51.6568 14.023 53.379 14.023H54.9616V13.3695C54.9616 12.8385 54.7881 12.4199 54.4409 12.1136C54.0937 11.8004 53.5934 11.6439 52.9399 11.6439C52.3613 11.6439 51.9393 11.7698 51.6738 12.0217C51.4083 12.2667 51.2756 12.5969 51.2756 13.0121H48.437C48.437 12.5424 48.5391 12.0965 48.7433 11.6745C48.9543 11.2524 49.2572 10.8815 49.652 10.5615C50.0537 10.2416 50.5404 9.98972 51.1122 9.80592C51.6908 9.61532 52.3511 9.52002 53.0931 9.52002C53.7602 9.52002 54.3796 9.60171 54.9514 9.76508C55.53 9.92845 56.0304 10.1701 56.4524 10.49C56.8745 10.81 57.2046 11.215 57.4429 11.7051C57.6811 12.1884 57.8002 12.75 57.8002 13.3899V18.1277C57.8002 18.7199 57.8377 19.2101 57.9126 19.5981C57.9874 19.9861 58.0964 20.3196 58.2393 20.5987V20.7723H55.3599ZM52.654 18.7812C52.9399 18.7812 53.2054 18.7472 53.4504 18.6791C53.6955 18.611 53.9167 18.5225 54.1142 18.4136C54.3116 18.3047 54.4817 18.1822 54.6247 18.046C54.7676 17.9031 54.88 17.7601 54.9616 17.6172V15.718H53.5117C53.0692 15.718 52.6914 15.7622 52.3783 15.8507C52.0652 15.9324 51.8099 16.0515 51.6125 16.2081C51.4151 16.3578 51.2687 16.5416 51.1734 16.7595C51.0781 16.9705 51.0305 17.2019 51.0305 17.4538C51.0305 17.835 51.1632 18.1515 51.4287 18.4034C51.701 18.6553 52.1094 18.7812 52.654 18.7812Z" fill="#222326"/>
<path d="M68.9504 9.52002C69.3793 9.52002 69.7741 9.55065 70.1349 9.61192C70.5025 9.66637 70.7986 9.72764 71.0232 9.79571L70.6046 12.6241C70.2302 12.5356 69.8456 12.4709 69.4508 12.4301C69.0627 12.3824 68.6918 12.3586 68.3378 12.3586C67.5413 12.3586 66.9015 12.5118 66.4181 12.8181C65.9416 13.1244 65.5843 13.5635 65.346 14.1353V20.7723H62.5074V9.72424H65.152L65.2848 11.5315C65.734 10.9053 66.2718 10.4152 66.8981 10.0612C67.5243 9.70041 68.2084 9.52002 68.9504 9.52002Z" fill="#222326"/>
<path d="M80.6418 17.3108L81.6016 9.72424H84.2053L82.2244 20.7723H79.733L78.2831 13.7473L76.8842 20.7723H74.3928L72.4119 9.72424H75.0054L75.9652 17.3415L77.3539 9.72424H79.2531L80.6418 17.3108Z" fill="#222326"/>
<path d="M91.4958 20.9765C90.6449 20.9765 89.8723 20.837 89.178 20.5579C88.4837 20.2788 87.888 19.901 87.3911 19.4245C86.8942 18.9412 86.5096 18.3762 86.2373 17.7295C85.9718 17.076 85.8391 16.3783 85.8391 15.6363V15.2278C85.8391 14.3838 85.9718 13.6145 86.2373 12.9202C86.5028 12.2191 86.8738 11.6166 87.3503 11.1129C87.8268 10.6092 88.3918 10.2178 89.0453 9.93866C89.6987 9.65957 90.4101 9.52002 91.1793 9.52002C91.9757 9.52002 92.6837 9.65276 93.3032 9.91824C93.9294 10.1769 94.457 10.5445 94.8858 11.021C95.3215 11.4975 95.6516 12.0727 95.8763 12.7466C96.1009 13.4137 96.2132 14.1523 96.2132 14.9624V16.1672H88.7185C88.773 16.5416 88.8819 16.8854 89.0453 17.1985C89.2154 17.5049 89.4299 17.7703 89.6885 17.995C89.9472 18.2196 90.2433 18.3932 90.5769 18.5157C90.9104 18.6383 91.2746 18.6995 91.6694 18.6995C91.9485 18.6995 92.2242 18.6723 92.4965 18.6178C92.7756 18.5634 93.0411 18.4851 93.2929 18.383C93.5448 18.2741 93.7797 18.1413 93.9975 17.9848C94.2153 17.8282 94.4059 17.6444 94.5693 17.4334L95.9886 18.965C95.8116 19.2169 95.5802 19.4653 95.2943 19.7104C95.0152 19.9486 94.6816 20.1631 94.2936 20.3537C93.9124 20.5375 93.4869 20.6872 93.0172 20.8029C92.5476 20.9187 92.0404 20.9765 91.4958 20.9765ZM91.1589 11.8174C90.8389 11.8174 90.5462 11.8753 90.2808 11.991C90.0153 12.0999 89.7804 12.2599 89.5762 12.4709C89.3788 12.682 89.212 12.9338 89.0759 13.2265C88.9397 13.5192 88.8376 13.846 88.7696 14.2068H93.4257V13.9821C93.4121 13.6826 93.3542 13.4001 93.2521 13.1346C93.15 12.8692 93.0036 12.6411 92.813 12.4505C92.6224 12.2531 92.3876 12.0999 92.1085 11.991C91.8362 11.8753 91.5197 11.8174 91.1589 11.8174Z" fill="#222326"/>
<path d="M105.597 20.7723C105.529 20.6362 105.471 20.4796 105.423 20.3026C105.376 20.1256 105.335 19.9384 105.301 19.741C105.144 19.9112 104.964 20.0712 104.76 20.2209C104.555 20.3707 104.327 20.5034 104.076 20.6191C103.83 20.7281 103.558 20.8131 103.259 20.8744C102.959 20.9425 102.636 20.9765 102.289 20.9765C101.724 20.9765 101.203 20.8948 100.726 20.7315C100.257 20.5681 99.8517 20.34 99.5113 20.0473C99.1709 19.7546 98.9055 19.4075 98.7149 19.0058C98.5243 18.5974 98.429 18.1549 98.429 17.6784C98.429 16.5144 98.8612 15.6159 99.7257 14.9828C100.597 14.3429 101.894 14.023 103.616 14.023H105.199V13.3695C105.199 12.8385 105.025 12.4199 104.678 12.1136C104.331 11.8004 103.83 11.6439 103.177 11.6439C102.598 11.6439 102.176 11.7698 101.911 12.0217C101.645 12.2667 101.513 12.5969 101.513 13.0121H98.674C98.674 12.5424 98.7761 12.0965 98.9803 11.6745C99.1914 11.2524 99.4943 10.8815 99.8891 10.5615C100.291 10.2416 100.777 9.98972 101.349 9.80592C101.928 9.61532 102.588 9.52002 103.33 9.52002C103.997 9.52002 104.617 9.60171 105.189 9.76508C105.767 9.92845 106.267 10.1701 106.689 10.49C107.112 10.81 107.442 11.215 107.68 11.7051C107.918 12.1884 108.037 12.75 108.037 13.3899V18.1277C108.037 18.7199 108.075 19.2101 108.15 19.5981C108.225 19.9861 108.333 20.3196 108.476 20.5987V20.7723H105.597ZM102.891 18.7812C103.177 18.7812 103.442 18.7472 103.688 18.6791C103.933 18.611 104.154 18.5225 104.351 18.4136C104.549 18.3047 104.719 18.1822 104.862 18.046C105.005 17.9031 105.117 17.7601 105.199 17.6172V15.718H103.749C103.306 15.718 102.929 15.7622 102.615 15.8507C102.302 15.9324 102.047 16.0515 101.85 16.2081C101.652 16.3578 101.506 16.5416 101.411 16.7595C101.315 16.9705 101.268 17.2019 101.268 17.4538C101.268 17.835 101.4 18.1515 101.666 18.4034C101.938 18.6553 102.347 18.7812 102.891 18.7812Z" fill="#222326"/>
<path d="M115.951 17.4946L116.094 18.2911L116.237 17.5253L118.667 9.72424H121.628L117.431 20.7723H114.766L110.549 9.72424H113.51L115.951 17.4946Z" fill="#222326"/>
<path d="M129.174 20.9765C128.323 20.9765 127.55 20.837 126.856 20.5579C126.161 20.2788 125.566 19.901 125.069 19.4245C124.572 18.9412 124.187 18.3762 123.915 17.7295C123.65 17.076 123.517 16.3783 123.517 15.6363V15.2278C123.517 14.3838 123.65 13.6145 123.915 12.9202C124.181 12.2191 124.552 11.6166 125.028 11.1129C125.505 10.6092 126.07 10.2178 126.723 9.93866C127.377 9.65957 128.088 9.52002 128.857 9.52002C129.654 9.52002 130.361 9.65276 130.981 9.91824C131.607 10.1769 132.135 10.5445 132.564 11.021C132.999 11.4975 133.329 12.0727 133.554 12.7466C133.779 13.4137 133.891 14.1523 133.891 14.9624V16.1672H126.396C126.451 16.5416 126.56 16.8854 126.723 17.1985C126.893 17.5049 127.108 17.7703 127.366 17.995C127.625 18.2196 127.921 18.3932 128.255 18.5157C128.588 18.6383 128.952 18.6995 129.347 18.6995C129.626 18.6995 129.902 18.6723 130.174 18.6178C130.453 18.5634 130.719 18.4851 130.971 18.383C131.223 18.2741 131.457 18.1413 131.675 17.9848C131.893 17.8282 132.084 17.6444 132.247 17.4334L133.666 18.965C133.489 19.2169 133.258 19.4653 132.972 19.7104C132.693 19.9486 132.359 20.1631 131.971 20.3537C131.59 20.5375 131.165 20.6872 130.695 20.8029C130.225 20.9187 129.718 20.9765 129.174 20.9765ZM128.837 11.8174C128.517 11.8174 128.224 11.8753 127.959 11.991C127.693 12.0999 127.458 12.2599 127.254 12.4709C127.057 12.682 126.89 12.9338 126.754 13.2265C126.618 13.5192 126.515 13.846 126.447 14.2068H131.103V13.9821C131.09 13.6826 131.032 13.4001 130.93 13.1346C130.828 12.8692 130.681 12.6411 130.491 12.4505C130.3 12.2531 130.065 12.0999 129.786 11.991C129.514 11.8753 129.197 11.8174 128.837 11.8174Z" fill="#222326"/>
<path d="M139.241 19.1284C139.241 18.8629 139.286 18.6178 139.374 18.3932C139.463 18.1617 139.592 17.9643 139.762 17.801C139.932 17.6308 140.14 17.498 140.385 17.4027C140.63 17.3006 140.906 17.2496 141.212 17.2496C141.518 17.2496 141.794 17.3006 142.039 17.4027C142.284 17.498 142.489 17.6308 142.652 17.801C142.822 17.9643 142.951 18.1617 143.04 18.3932C143.135 18.6178 143.183 18.8629 143.183 19.1284C143.183 19.387 143.135 19.6287 143.04 19.8533C142.951 20.078 142.822 20.2754 142.652 20.4456C142.489 20.6089 142.284 20.7383 142.039 20.8336C141.794 20.9289 141.518 20.9765 141.212 20.9765C140.906 20.9765 140.63 20.9289 140.385 20.8336C140.14 20.7383 139.932 20.6089 139.762 20.4456C139.592 20.2754 139.463 20.078 139.374 19.8533C139.286 19.6287 139.241 19.387 139.241 19.1284Z" fill="#222326"/>
<path d="M148.544 15.1462C148.544 14.3429 148.659 13.6009 148.891 12.9202C149.122 12.2327 149.459 11.6371 149.902 11.1333C150.351 10.6296 150.895 10.2348 151.535 9.94887C152.182 9.66297 152.921 9.52002 153.751 9.52002C154.581 9.52002 155.32 9.66297 155.967 9.94887C156.613 10.2348 157.158 10.6296 157.6 11.1333C158.05 11.6371 158.39 12.2327 158.622 12.9202C158.853 13.6009 158.969 14.3429 158.969 15.1462V15.3606C158.969 16.1706 158.853 16.9194 158.622 17.607C158.39 18.2877 158.053 18.8799 157.611 19.3836C157.168 19.8874 156.624 20.2822 155.977 20.5681C155.33 20.8472 154.595 20.9867 153.771 20.9867C152.941 20.9867 152.199 20.8472 151.545 20.5681C150.899 20.2822 150.351 19.8874 149.902 19.3836C149.459 18.8799 149.122 18.2877 148.891 17.607C148.659 16.9194 148.544 16.1706 148.544 15.3606V15.1462ZM151.382 15.3606C151.382 15.8235 151.426 16.2591 151.515 16.6676C151.603 17.0692 151.743 17.4232 151.933 17.7295C152.124 18.029 152.369 18.2673 152.669 18.4442C152.975 18.6212 153.343 18.7097 153.771 18.7097C154.187 18.7097 154.544 18.6212 154.844 18.4442C155.143 18.2673 155.385 18.029 155.569 17.7295C155.759 17.4232 155.899 17.0692 155.987 16.6676C156.076 16.2591 156.12 15.8235 156.12 15.3606V15.1462C156.12 14.6969 156.076 14.2714 155.987 13.8698C155.899 13.4682 155.759 13.1142 155.569 12.8079C155.385 12.5016 155.143 12.2599 154.844 12.0829C154.544 11.9059 154.18 11.8174 153.751 11.8174C153.329 11.8174 152.968 11.9059 152.669 12.0829C152.369 12.2599 152.124 12.5016 151.933 12.8079C151.743 13.1142 151.603 13.4682 151.515 13.8698C151.426 14.2714 151.382 14.6969 151.382 15.1462V15.3606Z" fill="#222326"/>
<path d="M169.425 9.52002C169.853 9.52002 170.248 9.55065 170.609 9.61192C170.977 9.66637 171.273 9.72764 171.497 9.79571L171.079 12.6241C170.704 12.5356 170.32 12.4709 169.925 12.4301C169.537 12.3824 169.166 12.3586 168.812 12.3586C168.015 12.3586 167.376 12.5118 166.892 12.8181C166.416 13.1244 166.058 13.5635 165.82 14.1353V20.7723H162.982V9.72424H165.626L165.759 11.5315C166.208 10.9053 166.746 10.4152 167.372 10.0612C167.998 9.70041 168.683 9.52002 169.425 9.52002Z" fill="#222326"/>
<path d="M173.764 15.1666C173.764 14.3293 173.866 13.5635 174.07 12.8692C174.281 12.1748 174.581 11.5792 174.969 11.0823C175.357 10.5853 175.827 10.2007 176.378 9.92845C176.929 9.65616 177.552 9.52002 178.247 9.52002C178.893 9.52002 179.448 9.62893 179.911 9.84676C180.374 10.0646 180.769 10.3743 181.095 10.7759L181.208 9.72424H183.791V20.4149C183.791 21.1637 183.662 21.8308 183.403 22.4162C183.151 23.0017 182.794 23.4952 182.331 23.8968C181.875 24.2984 181.324 24.6014 180.677 24.8056C180.037 25.0166 179.329 25.1221 178.553 25.1221C178.219 25.1221 177.862 25.0881 177.481 25.02C177.1 24.9519 176.722 24.8464 176.347 24.7035C175.973 24.5605 175.619 24.3767 175.286 24.1521C174.952 23.9342 174.666 23.6722 174.428 23.3658L175.704 21.6402C176.065 22.0487 176.473 22.3584 176.929 22.5694C177.386 22.7872 177.879 22.8962 178.41 22.8962C179.206 22.8962 179.826 22.6817 180.268 22.2529C180.718 21.8308 180.942 21.2284 180.942 20.4456V19.8125C180.609 20.1801 180.217 20.466 179.768 20.6702C179.326 20.8744 178.812 20.9765 178.226 20.9765C177.539 20.9765 176.919 20.837 176.368 20.5579C175.823 20.272 175.357 19.8806 174.969 19.3836C174.581 18.8867 174.281 18.2979 174.07 17.6172C173.866 16.9296 173.764 16.1843 173.764 15.381V15.1666ZM176.613 15.381C176.613 15.8439 176.657 16.2762 176.746 16.6778C176.841 17.0726 176.984 17.4198 177.175 17.7193C177.365 18.012 177.607 18.2434 177.9 18.4136C178.192 18.5838 178.539 18.6689 178.941 18.6689C179.438 18.6689 179.846 18.5736 180.166 18.383C180.493 18.1924 180.752 17.9269 180.942 17.5865V12.91C180.752 12.5628 180.493 12.2974 180.166 12.1136C179.846 11.923 179.445 11.8277 178.961 11.8277C178.56 11.8277 178.213 11.9162 177.92 12.0931C177.627 12.2633 177.382 12.5016 177.185 12.8079C176.994 13.1074 176.851 13.4614 176.756 13.8698C176.661 14.2714 176.613 14.7037 176.613 15.1666V15.381Z" fill="#222326"/> -->
<circle cx="16.3761" cy="15.9919" r="14.6637" stroke="#222326" stroke-width="2.5"/>
<path d="M19.1136 21.2908C19.0424 21.1484 18.9819 20.9846 18.9321 20.7995C18.8822 20.6143 18.8395 20.4185 18.8039 20.212C18.6401 20.39 18.4514 20.5574 18.2378 20.714C18.0241 20.8707 17.7856 21.0096 17.5221 21.1306C17.2658 21.2445 16.9809 21.3336 16.6676 21.3976C16.3543 21.4688 16.0161 21.5045 15.6529 21.5045C15.0619 21.5045 14.5171 21.419 14.0187 21.2481C13.5273 21.0772 13.1036 20.8387 12.7476 20.5325C12.3915 20.2263 12.1138 19.8631 11.9144 19.443C11.715 19.0157 11.6154 18.5529 11.6154 18.0544C11.6154 16.8367 12.0675 15.8968 12.9719 15.2345C13.8834 14.5652 15.2399 14.2305 17.0415 14.2305H18.6971V13.5469C18.6971 12.9914 18.5155 12.5535 18.1523 12.2331C17.7892 11.9055 17.2658 11.7417 16.5822 11.7417C15.9769 11.7417 15.5354 11.8735 15.2577 12.1369C14.98 12.3933 14.8411 12.7387 14.8411 13.173H11.8717C11.8717 12.6817 11.9785 12.2153 12.1921 11.7738C12.4129 11.3323 12.7298 10.9442 13.1428 10.6095C13.5629 10.2748 14.0721 10.0114 14.6702 9.8191C15.2755 9.61971 15.9662 9.52002 16.7424 9.52002C17.4402 9.52002 18.0882 9.60547 18.6864 9.77637C19.2917 9.94727 19.815 10.2001 20.2565 10.5347C20.698 10.8694 21.0434 11.2931 21.2926 11.8058C21.5419 12.3114 21.6665 12.8989 21.6665 13.5682V18.5244C21.6665 19.1439 21.7056 19.6566 21.784 20.0625C21.8623 20.4684 21.9762 20.8173 22.1258 21.1092V21.2908H19.1136ZM16.2831 19.208C16.5822 19.208 16.8599 19.1724 17.1162 19.1012C17.3726 19.0299 17.604 18.9374 17.8105 18.8234C18.017 18.7095 18.195 18.5813 18.3446 18.4389C18.4941 18.2894 18.6116 18.1398 18.6971 17.9903V16.0036H17.1803C16.7175 16.0036 16.3223 16.0499 15.9947 16.1424C15.6671 16.2279 15.4001 16.3525 15.1936 16.5163C14.9871 16.6729 14.834 16.8652 14.7343 17.0931C14.6346 17.3138 14.5848 17.5559 14.5848 17.8194C14.5848 18.2182 14.7236 18.5493 15.0013 18.8128C15.2862 19.0762 15.7134 19.208 16.2831 19.208Z" fill="#222326"/>
</svg>
