<svg width="500" height="500" fill="none" xmlns="http://www.w3.org/2000/svg"><circle cx="250" cy="250" r="250" fill="#fff"/><path d="M170.026 155.834a12.428 12.428 0 015.668-13.326 12.426 12.426 0 0114.439 1.08 12.433 12.433 0 01-15.946 19.079 12.43 12.43 0 01-4.161-6.833zM.966 271.792C13 409.292 134.238 511.067 271.775 499.034c3.775-.333 7.5-.758 11.249-1.25-.291-6.667-6.316-137.375-32.497-224.534a13.328 13.328 0 00-17.065-8.833C161.51 288.734 92.225 274.475 74.935 230.1c-18.332-47.083 28.789-110.242 105.281-141.067 40.83-16.458 81.768-20.366 113.856-13.283 32.089 7.083 154.336 18.8 138.387 345.084a249.343 249.343 0 0066.569-192.65C486.971 90.875 366.066-10.833 228.704.925 90.924 12.7-11.082 134.075.967 271.792zm128.464-108.95a12.42 12.42 0 0012.113-7.915 12.43 12.43 0 00-3.595-14.017 12.423 12.423 0 00-20.117 12.199 12.424 12.424 0 0011.599 9.733z" fill="#000"/></svg>
