<svg width="500" height="500" fill="none" xmlns="http://www.w3.org/2000/svg"><circle cx="250" cy="250" r="250" fill="#fff"/><path d="M.968 271.788C13 409.326 134.249 511.074 271.788 499.032c137.538-12.041 239.286-133.282 227.244-270.82C486.991 90.674 365.75-11.073 228.212.968 90.674 13.008-11.073 134.249.968 271.788zm24.002-2.097C14.085 145.254 106.267 35.603 230.783 24.931c124.121-10.61 233.384 81.281 244.247 205.386a225.326 225.326 0 01-11.474 93.446 225.329 225.329 0 01-48.652 80.603C429.35 109.503 289.905 92.509 289.905 92.509c-28.995-6.408-65.997-2.871-102.895 11.994-69.192 27.895-111.787 84.967-95.236 127.515 15.624 40.102 78.243 53.005 143.266 31.004a12.065 12.065 0 019.403.72 12.072 12.072 0 016.016 7.263c23.686 78.765 29.129 196.889 29.398 202.885-3.37.443-6.756.791-10.166 1.132C145.404 485.9 35.849 393.986 24.971 269.691zm163.266-95.996a11.235 11.235 0 1111.448-13.647 11.26 11.26 0 01-11.448 13.647zm-47.175-2.452a11.226 11.226 0 1111.448-13.647 11.235 11.235 0 01-2.367 9.639 11.243 11.243 0 01-9.081 4.008z" fill="#000"/></svg>
