<svg width="100" height="75" fill="none" xmlns="http://www.w3.org/2000/svg"><path d="M49.995 71.77c14.13 0 25.585-16.066 25.585-35.885S64.125 0 49.996 0C35.865 0 24.41 16.066 24.41 35.885S35.866 71.77 49.995 71.77z" fill="#fff"/><path fill-rule="evenodd" clip-rule="evenodd" d="M0 53.754C0 65.314 17.296 74.7 38.6 74.7c21.305 0 38.601-9.386 38.601-20.946-9.006 3.468-23.202 6.284-38.6 6.284S9.007 57.222 0 53.754z" fill="url(#paint0_linear)"/><path fill-rule="evenodd" clip-rule="evenodd" d="M22.799 53.754c0 11.56 17.296 20.946 38.6 20.946C82.704 74.7 100 65.314 100 53.754c-9.007 3.468-23.203 6.284-38.6 6.284-15.399 0-29.595-2.816-38.601-6.284z" fill="url(#paint1_linear)"/><path fill-rule="evenodd" clip-rule="evenodd" d="M6.91 41.892C5.253 53.333 21.027 65.1 42.112 68.15c21.084 3.051 39.547-3.761 41.202-15.203-9.41 2.143-23.863 2.897-39.103.692-15.24-2.205-28.886-7.025-37.303-11.747z" fill="url(#paint2_linear)"/><path fill-rule="evenodd" clip-rule="evenodd" d="M93.106 41.892C94.762 53.333 78.987 65.1 57.903 68.15 36.818 71.201 18.356 64.39 16.7 52.947c9.41 2.143 23.863 2.897 39.103.692 15.24-2.205 28.886-7.025 37.303-11.747z" fill="url(#paint3_linear)"/><defs><linearGradient id="paint0_linear" x1="50" y1="74.7" x2="0" y2="53.754" gradientUnits="userSpaceOnUse"><stop stop-color="#22C1C3"/><stop offset="1" stop-color="#FDBB2D"/></linearGradient><linearGradient id="paint1_linear" x1="50" y1="74.7" x2="100" y2="53.754" gradientUnits="userSpaceOnUse"><stop stop-color="#22C1C3"/><stop offset="1" stop-color="#FDBB2D"/></linearGradient><linearGradient id="paint2_linear" x1="50.008" y1="74.7" x2="6.79" y2="41.892" gradientUnits="userSpaceOnUse"><stop stop-color="#22C1C3"/><stop offset="1" stop-color="#FDBB2D"/></linearGradient><linearGradient id="paint3_linear" x1="16.7" y1="53.753" x2="68.462" y2="64.226" gradientUnits="userSpaceOnUse"><stop stop-color="#FDBB2D"/><stop offset="1" stop-color="#22C1C3"/></linearGradient></defs></svg>
