<svg width="2200" height="1000" fill="none" xmlns="http://www.w3.org/2000/svg"><path fill="#fff" d="M0 0h2200v1000H0z"/><path fill="#336791" d="M1135.07 283h364.927v150H1135.07z"/><path d="M1169.11 339.209h-6.68v11.504h-3.77v-28.438h9.42c3.2 0 5.66.729 7.38 2.188 1.73 1.458 2.6 3.58 2.6 6.367 0 1.771-.48 3.314-1.45 4.629-.95 1.315-2.27 2.298-3.98 2.949l6.68 12.07v.235h-4.02l-6.18-11.504zm-6.68-3.067h5.77c1.86 0 3.34-.481 4.43-1.445 1.11-.963 1.66-2.252 1.66-3.867 0-1.758-.53-3.106-1.58-4.043-1.04-.938-2.55-1.413-4.53-1.426h-5.75v10.781zm29.11 14.961c-2.87 0-5.2-.937-7-2.812-1.79-1.888-2.69-4.408-2.69-7.559v-.664c0-2.096.4-3.965 1.19-5.605.81-1.654 1.93-2.943 3.36-3.867 1.44-.938 3.01-1.407 4.69-1.407 2.74 0 4.88.905 6.4 2.715 1.53 1.81 2.29 4.401 2.29 7.774v1.504h-14.32c.05 2.083.66 3.769 1.82 5.058 1.17 1.276 2.65 1.914 4.45 1.914 1.28 0 2.36-.26 3.24-.781.89-.521 1.66-1.211 2.33-2.07l2.2 1.718c-1.77 2.722-4.42 4.082-7.96 4.082zm-.45-18.945c-1.46 0-2.69.534-3.68 1.602-.98 1.054-1.6 2.539-1.83 4.453h10.58v-.274c-.1-1.836-.59-3.255-1.48-4.257-.88-1.016-2.08-1.524-3.59-1.524zm12.03 7.813c0-3.295.76-5.912 2.28-7.852 1.53-1.953 3.54-2.93 6.06-2.93 2.58 0 4.59.912 6.03 2.735l.18-2.344h3.3v20.625c0 2.734-.81 4.889-2.44 6.465-1.62 1.575-3.79 2.363-6.53 2.363-1.52 0-3.01-.325-4.47-.976-1.46-.652-2.57-1.543-3.34-2.676l1.88-2.168c1.55 1.914 3.44 2.871 5.68 2.871 1.76 0 3.13-.495 4.1-1.485.99-.989 1.49-2.382 1.49-4.179v-1.817c-1.45 1.667-3.42 2.5-5.92 2.5-2.48 0-4.48-.996-6.02-2.988-1.52-1.992-2.28-4.707-2.28-8.144zm3.63.41c0 2.383.49 4.258 1.47 5.625.97 1.354 2.34 2.031 4.1 2.031 2.28 0 3.95-1.035 5.02-3.105v-9.649c-1.11-2.018-2.77-3.027-4.98-3.027-1.76 0-3.14.683-4.12 2.051-.99 1.367-1.49 3.391-1.49 6.074zm23.61 10.332h-3.61V329.58h3.61v21.133zm-3.9-26.739c0-.585.17-1.08.53-1.484.36-.404.89-.605 1.6-.605.7 0 1.23.201 1.6.605.36.404.55.899.55 1.484 0 .586-.19 1.075-.55 1.465-.37.391-.9.586-1.6.586-.71 0-1.24-.195-1.6-.586-.36-.39-.53-.879-.53-1.465zm22.01 21.133c0-.976-.37-1.731-1.11-2.265-.73-.547-2.02-1.016-3.85-1.407-1.82-.39-3.28-.859-4.36-1.406-1.06-.547-1.86-1.198-2.38-1.953-.51-.755-.76-1.654-.76-2.695 0-1.732.73-3.197 2.19-4.395 1.47-1.198 3.34-1.797 5.62-1.797 2.4 0 4.34.619 5.82 1.856 1.5 1.237 2.25 2.819 2.25 4.746h-3.64c0-.99-.42-1.843-1.26-2.559-.84-.716-1.89-1.074-3.17-1.074-1.31 0-2.34.287-3.08.859-.75.573-1.12 1.322-1.12 2.247 0 .872.35 1.529 1.04 1.972.69.443 1.93.866 3.73 1.27 1.81.403 3.27.885 4.39 1.445 1.12.56 1.95 1.237 2.48 2.031.55.782.82 1.739.82 2.871 0 1.888-.75 3.405-2.26 4.551-1.51 1.133-3.47 1.699-5.88 1.699-1.69 0-3.19-.299-4.49-.898-1.31-.599-2.33-1.432-3.07-2.5-.73-1.081-1.09-2.246-1.09-3.496h3.61c.06 1.211.55 2.174 1.44 2.89.92.704 2.11 1.055 3.6 1.055 1.37 0 2.46-.273 3.28-.82.83-.56 1.25-1.302 1.25-2.227zm13.22-20.644v5.117h3.95v2.793h-3.95v13.105c0 .847.18 1.485.53 1.914.35.417.95.625 1.8.625.41 0 .99-.078 1.72-.234v2.93c-.96.26-1.88.39-2.78.39-1.61 0-2.83-.488-3.65-1.464-.82-.977-1.23-2.364-1.23-4.161v-13.105h-3.85v-2.793h3.85v-5.117h3.61zm18.4 8.359c-.55-.091-1.14-.137-1.78-.137-2.37 0-3.97 1.01-4.82 3.028v15h-3.61V329.58h3.51l.06 2.441c1.18-1.888 2.86-2.832 5.04-2.832.7 0 1.24.091 1.6.274v3.359zm10.61 12.598l4.92-15.84h3.87l-8.5 24.394c-1.32 3.516-3.41 5.274-6.27 5.274l-.68-.059-1.35-.254v-2.929l.97.078c1.23 0 2.18-.248 2.86-.742.69-.495 1.25-1.4 1.7-2.715l.8-2.149-7.54-20.898h3.94l5.28 15.84zm22.52 5.293v-28.438h8.02c2.48 0 4.66.547 6.57 1.641 1.9 1.094 3.36 2.65 4.39 4.668 1.04 2.018 1.57 4.336 1.58 6.953v1.816c0 2.683-.52 5.033-1.56 7.051-1.03 2.018-2.51 3.568-4.43 4.649-1.92 1.08-4.15 1.634-6.7 1.66h-7.87zm3.75-25.352v22.285h3.94c2.89 0 5.14-.898 6.74-2.695 1.61-1.797 2.42-4.355 2.42-7.676v-1.66c0-3.229-.76-5.736-2.28-7.519-1.51-1.797-3.66-2.709-6.45-2.735h-4.37zm34.98 25.352c-.21-.417-.38-1.159-.51-2.227-1.68 1.745-3.69 2.617-6.02 2.617-2.08 0-3.79-.586-5.13-1.757-1.33-1.185-2-2.683-2-4.493 0-2.2.84-3.906 2.5-5.117 1.68-1.224 4.04-1.836 7.07-1.836h3.52v-1.66c0-1.263-.38-2.266-1.13-3.008-.76-.755-1.87-1.133-3.34-1.133-1.29 0-2.37.326-3.25.977-.87.651-1.3 1.439-1.3 2.363h-3.64c0-1.054.37-2.07 1.12-3.047.75-.989 1.77-1.77 3.04-2.343 1.29-.573 2.71-.86 4.24-.86 2.44 0 4.34.612 5.72 1.836 1.38 1.211 2.1 2.884 2.15 5.02v9.726c0 1.94.25 3.483.75 4.629v.313h-3.79zm-6-2.754c1.13 0 2.21-.293 3.22-.879 1.02-.586 1.75-1.348 2.21-2.285v-4.336h-2.83c-4.43 0-6.64 1.295-6.64 3.887 0 1.132.37 2.018 1.13 2.656.76.638 1.73.957 2.91.957zm19.61-23.496v5.117h3.94v2.793h-3.94v13.105c0 .847.18 1.485.53 1.914.35.417.95.625 1.79.625.42 0 .99-.078 1.72-.234v2.93c-.95.26-1.87.39-2.77.39-1.62 0-2.83-.488-3.65-1.464-.82-.977-1.23-2.364-1.23-4.161v-13.105h-3.85v-2.793h3.85v-5.117h3.61zm21.23 26.25c-.21-.417-.38-1.159-.51-2.227-1.68 1.745-3.68 2.617-6.01 2.617-2.09 0-3.8-.586-5.14-1.757-1.33-1.185-1.99-2.683-1.99-4.493 0-2.2.83-3.906 2.5-5.117 1.68-1.224 4.03-1.836 7.07-1.836h3.51v-1.66c0-1.263-.37-2.266-1.13-3.008-.75-.755-1.87-1.133-3.34-1.133-1.29 0-2.37.326-3.24.977-.87.651-1.31 1.439-1.31 2.363h-3.63c0-1.054.37-2.07 1.11-3.047.76-.989 1.77-1.77 3.05-2.343 1.29-.573 2.7-.86 4.24-.86 2.43 0 4.34.612 5.72 1.836 1.38 1.211 2.09 2.884 2.15 5.02v9.726c0 1.94.24 3.483.74 4.629v.313h-3.79zm-6-2.754c1.14 0 2.21-.293 3.23-.879 1.01-.586 1.75-1.348 2.2-2.285v-4.336h-2.83c-4.43 0-6.64 1.295-6.64 3.887 0 1.132.38 2.018 1.13 2.656.76.638 1.73.957 2.91.957zm32.6-7.578c0 3.229-.74 5.827-2.23 7.793-1.48 1.953-3.47 2.929-5.97 2.929-2.67 0-4.73-.944-6.19-2.832l-.18 2.442h-3.32v-30h3.61v11.191c1.46-1.81 3.47-2.715 6.04-2.715 2.56 0 4.58.97 6.03 2.91 1.48 1.941 2.21 4.597 2.21 7.969v.313zm-3.61-.41c0-2.461-.48-4.362-1.43-5.704-.95-1.341-2.32-2.011-4.1-2.011-2.38 0-4.09 1.107-5.14 3.32v9.141c1.11 2.213 2.84 3.32 5.18 3.32 1.73 0 3.08-.671 4.04-2.012.97-1.341 1.45-3.359 1.45-6.054zm21.23 10.742c-.21-.417-.38-1.159-.51-2.227-1.68 1.745-3.68 2.617-6.01 2.617-2.09 0-3.8-.586-5.14-1.757-1.33-1.185-1.99-2.683-1.99-4.493 0-2.2.83-3.906 2.5-5.117 1.68-1.224 4.03-1.836 7.07-1.836h3.51v-1.66c0-1.263-.38-2.266-1.13-3.008-.76-.755-1.87-1.133-3.34-1.133-1.29 0-2.37.326-3.24.977-.88.651-1.31 1.439-1.31 2.363h-3.63c0-1.054.37-2.07 1.11-3.047.75-.989 1.77-1.77 3.05-2.343 1.29-.573 2.7-.86 4.23-.86 2.44 0 4.35.612 5.73 1.836 1.38 1.211 2.09 2.884 2.15 5.02v9.726c0 1.94.24 3.483.74 4.629v.313h-3.79zm-6-2.754c1.14 0 2.21-.293 3.23-.879 1.01-.586 1.75-1.348 2.2-2.285v-4.336h-2.83c-4.43 0-6.64 1.295-6.64 3.887 0 1.132.38 2.018 1.13 2.656.76.638 1.73.957 2.91.957zm27.01-2.852c0-.976-.37-1.731-1.11-2.265-.73-.547-2.01-1.016-3.85-1.407-1.82-.39-3.27-.859-4.35-1.406-1.07-.547-1.86-1.198-2.39-1.953-.5-.755-.76-1.654-.76-2.695 0-1.732.73-3.197 2.19-4.395 1.47-1.198 3.35-1.797 5.63-1.797 2.39 0 4.33.619 5.82 1.856 1.49 1.237 2.24 2.819 2.24 4.746h-3.63c0-.99-.42-1.843-1.27-2.559-.83-.716-1.89-1.074-3.16-1.074-1.32 0-2.35.287-3.09.859-.74.573-1.11 1.322-1.11 2.247 0 .872.34 1.529 1.03 1.972.69.443 1.94.866 3.73 1.27 1.81.403 3.28.885 4.4 1.445 1.12.56 1.94 1.237 2.48 2.031.54.782.82 1.739.82 2.871 0 1.888-.76 3.405-2.27 4.551-1.51 1.133-3.47 1.699-5.88 1.699-1.69 0-3.19-.299-4.49-.898-1.3-.599-2.32-1.432-3.07-2.5-.72-1.081-1.09-2.246-1.09-3.496h3.61c.07 1.211.55 2.174 1.45 2.89.91.704 2.11 1.055 3.59 1.055 1.37 0 2.46-.273 3.28-.82.84-.56 1.25-1.302 1.25-2.227zm17.09 5.996c-2.86 0-5.19-.937-6.99-2.812-1.8-1.888-2.69-4.408-2.69-7.559v-.664c0-2.096.39-3.965 1.19-5.605.81-1.654 1.93-2.943 3.36-3.867 1.44-.938 3.01-1.407 4.68-1.407 2.75 0 4.89.905 6.41 2.715 1.52 1.81 2.29 4.401 2.29 7.774v1.504h-14.32c.05 2.083.66 3.769 1.82 5.058 1.17 1.276 2.65 1.914 4.45 1.914 1.28 0 2.36-.26 3.24-.781.89-.521 1.66-1.211 2.33-2.07l2.2 1.718c-1.77 2.722-4.42 4.082-7.97 4.082zm-.45-18.945c-1.45 0-2.68.534-3.67 1.602-.99 1.054-1.6 2.539-1.83 4.453h10.58v-.274c-.1-1.836-.6-3.255-1.48-4.257-.89-1.016-2.08-1.524-3.6-1.524zM1247.96 394.41c0-1.766.23-3.461.7-5.086.48-1.625 1.18-3.101 2.12-4.43.94-1.328 1.91-2.265 2.92-2.812l.44 1.43c-1.14.875-2.07 2.211-2.81 4.007-.72 1.797-1.12 3.809-1.19 6.036l-.02.996c0 3.015.56 5.633 1.66 7.851.66 1.328 1.45 2.367 2.36 3.117l-.44 1.325c-1.04-.578-2.03-1.547-2.98-2.907-1.84-2.656-2.76-5.832-2.76-9.527zm10.87.246v6.68h-2.25v-17.063h6.3c1.86 0 3.32.477 4.38 1.43s1.59 2.215 1.59 3.785c0 1.656-.52 2.934-1.56 3.832-1.03.891-2.51 1.336-4.44 1.336h-4.02zm0-1.84h4.05c1.2 0 2.12-.281 2.76-.843.64-.571.96-1.391.96-2.461 0-1.016-.32-1.828-.96-2.438-.64-.609-1.52-.926-2.64-.949h-4.17v6.691zm11.81 2.063c0-1.242.25-2.36.73-3.352.49-.992 1.17-1.758 2.04-2.297.88-.539 1.87-.808 2.99-.808 1.72 0 3.12.597 4.18 1.793 1.07 1.195 1.61 2.785 1.61 4.769v.153c0 1.234-.24 2.343-.72 3.328-.47.976-1.14 1.738-2.02 2.285-.88.547-1.89.82-3.03.82-1.72 0-3.11-.597-4.18-1.793-1.06-1.195-1.6-2.777-1.6-4.746v-.152zm2.18.258c0 1.406.33 2.535.98 3.386.65.852 1.53 1.278 2.62 1.278 1.1 0 1.98-.43 2.63-1.289.65-.868.97-2.078.97-3.633 0-1.391-.33-2.516-1-3.375-.65-.867-1.53-1.301-2.62-1.301-1.07 0-1.94.426-2.59 1.277-.66.852-.99 2.071-.99 3.657zm19.47 2.836c0-.586-.22-1.039-.67-1.36-.44-.328-1.21-.609-2.31-.844-1.09-.234-1.96-.515-2.61-.843-.64-.328-1.12-.719-1.43-1.172-.31-.453-.46-.992-.46-1.617 0-1.039.44-1.918 1.31-2.637.89-.719 2.01-1.078 3.38-1.078 1.44 0 2.6.371 3.49 1.113.9.742 1.35 1.692 1.35 2.848h-2.18c0-.594-.25-1.106-.76-1.535-.5-.43-1.13-.645-1.9-.645-.79 0-1.41.172-1.85.516-.45.343-.67.793-.67 1.347 0 .524.21.918.62 1.184.42.266 1.16.519 2.24.762 1.09.242 1.96.531 2.64.867.67.336 1.16.742 1.48 1.219.33.468.5 1.043.5 1.722 0 1.133-.46 2.043-1.36 2.731-.91.679-2.08 1.019-3.53 1.019-1.02 0-1.91-.179-2.69-.539-.79-.359-1.4-.859-1.84-1.5a3.661 3.661 0 01-.66-2.097h2.17c.04.726.33 1.304.86 1.734.55.422 1.27.633 2.16.633.82 0 1.48-.164 1.97-.492.5-.336.75-.782.75-1.336zm7.93-12.387v3.07h2.37v1.676h-2.37v7.863c0 .508.11.891.32 1.149.21.25.57.375 1.08.375.25 0 .59-.047 1.03-.141v1.758a6.33 6.33 0 01-1.67.234c-.96 0-1.69-.293-2.19-.879-.49-.586-.74-1.418-.74-2.496v-7.863h-2.3v-1.676h2.3v-3.07h2.17zm4.4 9.305c0-1.977.45-3.547 1.37-4.711.91-1.172 2.12-1.758 3.63-1.758 1.55 0 2.76.547 3.62 1.64l.11-1.406h1.98v12.375c0 1.641-.49 2.934-1.47 3.879-.97.945-2.27 1.418-3.91 1.418-.91 0-1.81-.195-2.68-.586-.88-.39-1.55-.926-2.01-1.605l1.13-1.301c.93 1.148 2.06 1.723 3.41 1.723 1.05 0 1.87-.297 2.46-.891.59-.594.89-1.43.89-2.508v-1.09c-.87 1-2.05 1.5-3.55 1.5-1.49 0-2.69-.597-3.61-1.793-.92-1.195-1.37-2.824-1.37-4.886zm2.18.246c0 1.429.29 2.554.88 3.375.58.812 1.4 1.218 2.46 1.218 1.36 0 2.37-.621 3.01-1.863v-5.789c-.67-1.211-1.66-1.816-2.99-1.816-1.05 0-1.88.41-2.47 1.23-.6.82-.89 2.035-.89 3.645zm17.94-4.535a6.545 6.545 0 00-1.07-.083c-1.42 0-2.38.606-2.89 1.817v9h-2.17v-12.68h2.11l.03 1.465c.71-1.133 1.72-1.699 3.03-1.699.42 0 .74.055.96.164v2.016zm7.03 10.968c-1.72 0-3.12-.562-4.2-1.687-1.07-1.133-1.61-2.645-1.61-4.535v-.399c0-1.258.24-2.379.71-3.363.49-.992 1.16-1.766 2.02-2.32.86-.563 1.8-.844 2.81-.844 1.65 0 2.93.543 3.84 1.629.92 1.086 1.37 2.64 1.37 4.664v.902h-8.59c.04 1.25.4 2.262 1.09 3.035.71.766 1.6 1.149 2.68 1.149.76 0 1.41-.157 1.94-.469.53-.313 1-.727 1.4-1.242l1.32 1.031c-1.06 1.633-2.66 2.449-4.78 2.449zm-.27-11.367c-.88 0-1.61.32-2.2.961-.6.633-.96 1.523-1.1 2.672h6.35v-.164c-.07-1.102-.36-1.953-.89-2.555-.54-.609-1.25-.914-2.16-.914zm13.1 3.527c-1.93-.554-3.33-1.234-4.22-2.039-.87-.812-1.31-1.812-1.31-3 0-1.343.54-2.453 1.61-3.328 1.07-.883 2.47-1.324 4.19-1.324 1.17 0 2.22.227 3.13.68.92.453 1.63 1.078 2.13 1.875.51.797.76 1.668.76 2.613h-2.26c0-1.031-.33-1.84-.98-2.426-.66-.594-1.58-.89-2.78-.89-1.11 0-1.98.246-2.6.738-.62.484-.93 1.16-.93 2.027 0 .696.3 1.285.88 1.77.6.476 1.6.914 3.01 1.312 1.43.399 2.54.84 3.33 1.324.81.477 1.4 1.036 1.78 1.676.39.641.59 1.395.59 2.262 0 1.383-.54 2.492-1.62 3.328-1.08.828-2.52 1.242-4.32 1.242-1.17 0-2.27-.222-3.28-.668-1.02-.453-1.8-1.07-2.36-1.851-.55-.782-.82-1.668-.82-2.66h2.26c0 1.031.38 1.847 1.14 2.449.77.594 1.78.89 3.06.89 1.19 0 2.1-.242 2.73-.726.63-.485.95-1.145.95-1.981 0-.836-.29-1.48-.88-1.933-.59-.461-1.65-.914-3.19-1.36zm22.26-.375c0 1.649-.27 3.071-.79 4.266-.52 1.188-1.26 2.117-2.2 2.789l3.04 2.391-1.53 1.418-3.6-2.86c-.56.141-1.16.211-1.78.211-1.34 0-2.54-.328-3.57-.984-1.04-.664-1.85-1.606-2.43-2.824-.57-1.227-.86-2.645-.88-4.254v-1.231c0-1.64.29-3.09.86-4.347.57-1.258 1.37-2.219 2.41-2.883 1.05-.672 2.24-1.008 3.59-1.008 1.37 0 2.58.332 3.62.996 1.04.664 1.85 1.621 2.41 2.871.56 1.242.85 2.696.85 4.36v1.089zm-2.25-1.101c0-2.008-.41-3.555-1.21-4.641-.8-1.094-1.94-1.64-3.42-1.64-1.42 0-2.53.543-3.36 1.629-.81 1.078-1.23 2.578-1.25 4.5v1.253c0 1.954.41 3.493 1.22 4.618.82 1.125 1.96 1.687 3.41 1.687 1.45 0 2.58-.527 3.38-1.582.79-1.062 1.2-2.582 1.23-4.559v-1.265zm7.98 7.242h8.08v1.84h-10.35v-17.063h2.27v15.223zm15.31-4.969c0 1.742-.23 3.414-.69 5.016a14.464 14.464 0 01-2.1 4.418c-.93 1.351-1.92 2.312-2.95 2.883l-.46-1.325c1.21-.921 2.17-2.351 2.9-4.289.73-1.945 1.11-4.101 1.12-6.468v-.375c0-1.641-.17-3.164-.51-4.571-.35-1.414-.83-2.679-1.44-3.797-.61-1.117-1.3-1.988-2.07-2.613l.46-1.324c1.03.57 2.01 1.523 2.94 2.859a14.586 14.586 0 012.1 4.418c.47 1.61.7 3.332.7 5.168z" fill="#fff"/><path fill="#fff" stroke="#000" stroke-width="3" d="M701.5 284.5h361.927v147H701.5z"/><path d="M734.88 330.651l9.297 23.203 9.297-23.203h4.863v28.438h-3.75v-11.075l.352-11.953-9.336 23.028h-2.871l-9.317-22.969.371 11.894v11.075h-3.75v-28.438h4.844zm28.555 17.676c0-2.071.403-3.932 1.211-5.586.82-1.654 1.953-2.93 3.398-3.828 1.458-.899 3.119-1.348 4.981-1.348 2.877 0 5.201.996 6.972 2.988 1.784 1.993 2.676 4.642 2.676 7.95v.253c0 2.058-.397 3.907-1.191 5.547-.782 1.628-1.908 2.897-3.379 3.809-1.459.911-3.138 1.367-5.039 1.367-2.865 0-5.189-.996-6.973-2.988-1.771-1.992-2.656-4.629-2.656-7.91v-.254zm3.633.429c0 2.344.54 4.226 1.621 5.645 1.093 1.419 2.552 2.129 4.375 2.129 1.836 0 3.294-.716 4.375-2.149 1.08-1.445 1.621-3.463 1.621-6.054 0-2.318-.554-4.193-1.66-5.625-1.094-1.446-2.552-2.168-4.375-2.168-1.784 0-3.223.709-4.317 2.129-1.094 1.419-1.64 3.45-1.64 6.093zm19.257-.41c0-3.242.769-5.846 2.305-7.812 1.537-1.979 3.548-2.969 6.035-2.969 2.474 0 4.434.846 5.879 2.539v-11.015h3.613v30h-3.32l-.176-2.266c-1.445 1.771-3.457 2.656-6.035 2.656-2.448 0-4.446-1.002-5.996-3.008-1.536-2.005-2.305-4.622-2.305-7.851v-.274zm3.614.41c0 2.396.494 4.271 1.484 5.625.99 1.355 2.357 2.032 4.102 2.032 2.291 0 3.964-1.029 5.019-3.086v-9.707c-1.081-1.992-2.741-2.989-4.98-2.989-1.771 0-3.151.684-4.141 2.051-.99 1.367-1.484 3.392-1.484 6.074zm32.89 8.243c-1.406 1.653-3.47 2.48-6.191 2.48-2.253 0-3.971-.651-5.156-1.953-1.172-1.315-1.765-3.255-1.778-5.82v-13.75h3.614v13.652c0 3.203 1.302 4.805 3.906 4.805 2.76 0 4.596-1.029 5.508-3.086v-15.371h3.613v21.133h-3.438l-.078-2.09zm12.95 2.09h-3.614v-30h3.614v30zm14.57.39c-2.865 0-5.195-.937-6.992-2.812-1.797-1.888-2.696-4.408-2.696-7.559v-.664c0-2.096.397-3.965 1.192-5.605.807-1.654 1.927-2.943 3.359-3.868 1.445-.937 3.008-1.406 4.688-1.406 2.747 0 4.882.905 6.406 2.715 1.523 1.81 2.285 4.401 2.285 7.773v1.504h-14.316c.052 2.084.657 3.77 1.816 5.059 1.172 1.276 2.656 1.914 4.453 1.914 1.276 0 2.357-.26 3.242-.781a8.15 8.15 0 002.325-2.071l2.207 1.719c-1.771 2.721-4.428 4.082-7.969 4.082zm-.449-18.945c-1.459 0-2.683.534-3.672 1.601-.99 1.055-1.602 2.539-1.836 4.454h10.586v-.274c-.104-1.836-.599-3.255-1.485-4.258-.885-1.015-2.083-1.523-3.593-1.523zm23.379 18.555v-28.438h8.027c2.474 0 4.661.547 6.562 1.641 1.901 1.093 3.366 2.649 4.395 4.668 1.042 2.018 1.569 4.336 1.582 6.953v1.816c0 2.682-.521 5.033-1.563 7.051-1.028 2.018-2.506 3.568-4.433 4.648-1.914 1.081-4.147 1.634-6.699 1.661h-7.871zm3.75-25.352v22.285h3.945c2.89 0 5.137-.898 6.738-2.695 1.615-1.797 2.422-4.356 2.422-7.676v-1.66c0-3.229-.762-5.736-2.285-7.52-1.511-1.797-3.659-2.708-6.445-2.734h-4.375zm34.98 25.352c-.208-.417-.378-1.159-.508-2.227-1.68 1.745-3.685 2.617-6.015 2.617-2.084 0-3.796-.586-5.137-1.758-1.328-1.185-1.992-2.682-1.992-4.492 0-2.2.833-3.906 2.5-5.117 1.679-1.224 4.036-1.836 7.07-1.836h3.516v-1.66c0-1.263-.378-2.266-1.133-3.008-.755-.755-1.869-1.133-3.34-1.133-1.289 0-2.37.326-3.242.977-.873.651-1.309 1.439-1.309 2.363h-3.633c0-1.055.371-2.07 1.114-3.047.755-.989 1.77-1.771 3.046-2.344 1.29-.572 2.702-.859 4.239-.859 2.435 0 4.342.612 5.722 1.836 1.381 1.211 2.097 2.884 2.149 5.02v9.726c0 1.94.247 3.483.742 4.629v.313h-3.789zm-5.996-2.754a6.352 6.352 0 003.223-.879c1.015-.586 1.751-1.348 2.207-2.285v-4.336h-2.832c-4.428 0-6.641 1.295-6.641 3.886 0 1.133.378 2.019 1.133 2.657.755.638 1.725.957 2.91.957zm19.609-23.496v5.117h3.946v2.793h-3.946v13.105c0 .846.176 1.485.528 1.914.351.417.95.625 1.796.625.417 0 .99-.078 1.719-.234v2.93c-.95.26-1.875.39-2.773.39-1.615 0-2.832-.488-3.653-1.465-.82-.976-1.23-2.363-1.23-4.16v-13.105h-3.848v-2.793h3.848v-5.117h3.613zm21.231 26.25c-.209-.417-.378-1.159-.508-2.227-1.68 1.745-3.685 2.617-6.016 2.617-2.083 0-3.795-.586-5.136-1.758-1.329-1.185-1.993-2.682-1.993-4.492 0-2.2.834-3.906 2.5-5.117 1.68-1.224 4.037-1.836 7.071-1.836h3.515v-1.66c0-1.263-.377-2.266-1.132-3.008-.756-.755-1.869-1.133-3.34-1.133-1.289 0-2.37.326-3.243.977-.872.651-1.308 1.439-1.308 2.363h-3.633c0-1.055.371-2.07 1.113-3.047.756-.989 1.771-1.771 3.047-2.344 1.289-.572 2.702-.859 4.239-.859 2.434 0 4.342.612 5.722 1.836 1.38 1.211 2.097 2.884 2.149 5.02v9.726c0 1.94.247 3.483.742 4.629v.313h-3.789zm-5.996-2.754a6.348 6.348 0 003.222-.879c1.016-.586 1.752-1.348 2.207-2.285v-4.336h-2.832c-4.427 0-6.64 1.295-6.64 3.886 0 1.133.377 2.019 1.132 2.657.756.638 1.726.957 2.911.957zm32.597-7.579c0 3.23-.742 5.827-2.226 7.793-1.485 1.954-3.477 2.93-5.977 2.93-2.669 0-4.733-.944-6.191-2.832l-.176 2.442h-3.32v-30h3.613v11.191c1.458-1.81 3.47-2.715 6.035-2.715s4.577.97 6.035 2.91c1.472 1.94 2.207 4.597 2.207 7.969v.312zm-3.613-.41c0-2.461-.475-4.362-1.426-5.703-.95-1.341-2.317-2.012-4.101-2.012-2.383 0-4.095 1.107-5.137 3.321v9.14c1.107 2.214 2.832 3.321 5.176 3.321 1.731 0 3.079-.671 4.043-2.012.963-1.341 1.445-3.359 1.445-6.055zm21.23 10.743c-.208-.417-.377-1.159-.507-2.227-1.68 1.745-3.685 2.617-6.016 2.617-2.083 0-3.796-.586-5.137-1.758-1.328-1.185-1.992-2.682-1.992-4.492 0-2.2.833-3.906 2.5-5.117 1.68-1.224 4.037-1.836 7.07-1.836h3.516v-1.66c0-1.263-.378-2.266-1.133-3.008-.755-.755-1.868-1.133-3.34-1.133-1.289 0-2.369.326-3.242.977-.872.651-1.308 1.439-1.308 2.363h-3.633c0-1.055.371-2.07 1.113-3.047.755-.989 1.771-1.771 3.047-2.344 1.289-.572 2.702-.859 4.238-.859 2.435 0 4.343.612 5.723 1.836 1.38 1.211 2.096 2.884 2.148 5.02v9.726c0 1.94.248 3.483.743 4.629v.313h-3.79zm-5.996-2.754a6.352 6.352 0 003.223-.879c1.016-.586 1.751-1.348 2.207-2.285v-4.336h-2.832c-4.427 0-6.641 1.295-6.641 3.886 0 1.133.378 2.019 1.133 2.657.755.638 1.725.957 2.91.957zm27.015-2.852c0-.977-.37-1.732-1.12-2.266-.73-.546-2.01-1.015-3.84-1.406-1.83-.39-3.28-.859-4.36-1.406-1.07-.547-1.86-1.198-2.38-1.953-.51-.755-.764-1.654-.764-2.696 0-1.731.734-3.196 2.184-4.394 1.48-1.198 3.35-1.797 5.63-1.797 2.39 0 4.33.619 5.82 1.856 1.5 1.237 2.25 2.819 2.25 4.746h-3.64c0-.99-.42-1.843-1.27-2.559-.83-.716-1.89-1.074-3.16-1.074-1.32 0-2.35.286-3.09.859-.74.573-1.11 1.322-1.11 2.246 0 .873.34 1.53 1.03 1.973.69.443 1.94.866 3.74 1.269 1.8.404 3.27.886 4.39 1.446 1.12.56 1.95 1.237 2.48 2.031.55.781.82 1.738.82 2.871 0 1.888-.75 3.405-2.27 4.551-1.51 1.133-3.47 1.699-5.87 1.699-1.7 0-3.19-.299-4.5-.898-1.3-.599-2.32-1.433-3.063-2.5-.729-1.081-1.093-2.246-1.093-3.496h3.616c.06 1.211.54 2.174 1.44 2.89.91.703 2.11 1.055 3.6 1.055 1.36 0 2.46-.274 3.28-.82.83-.56 1.25-1.302 1.25-2.227zm17.09 5.996c-2.87 0-5.2-.937-7-2.812-1.79-1.888-2.69-4.408-2.69-7.559v-.664c0-2.096.4-3.965 1.19-5.605.81-1.654 1.93-2.943 3.36-3.868 1.45-.937 3.01-1.406 4.69-1.406 2.75 0 4.88.905 6.4 2.715 1.53 1.81 2.29 4.401 2.29 7.773v1.504h-14.32c.05 2.084.66 3.77 1.82 5.059 1.17 1.276 2.66 1.914 4.45 1.914 1.28 0 2.36-.26 3.24-.781.89-.521 1.66-1.211 2.33-2.071l2.21 1.719c-1.78 2.721-4.43 4.082-7.97 4.082zm-.45-18.945c-1.46 0-2.68.534-3.67 1.601-.99 1.055-1.61 2.539-1.84 4.454h10.59v-.274c-.11-1.836-.6-3.255-1.49-4.258-.88-1.015-2.08-1.523-3.59-1.523zM767.953 403.006c0-1.766.235-3.461.703-5.086a14.917 14.917 0 012.121-4.43c.938-1.328 1.911-2.265 2.918-2.812l.446 1.43c-1.141.875-2.079 2.211-2.813 4.007-.726 1.797-1.125 3.809-1.195 6.036l-.012.996c0 3.015.551 5.632 1.652 7.851.665 1.328 1.454 2.367 2.368 3.117l-.446 1.325c-1.039-.578-2.031-1.547-2.976-2.907-1.844-2.656-2.766-5.832-2.766-9.527zM786 405.479h-7.148l-1.606 4.453h-2.32l6.515-17.063h1.969l6.528 17.063h-2.309L786 405.479zm-6.469-1.852h5.801l-2.906-7.98-2.895 7.98zm18.492-4.43a6.565 6.565 0 00-1.066-.082c-1.422 0-2.387.606-2.895 1.817v9h-2.167v-12.68h2.109l.035 1.465c.711-1.133 1.719-1.699 3.023-1.699.422 0 .743.054.961.164v2.015zm13.442 7.747l2.437-9.692h2.168l-3.691 12.68h-1.758l-3.082-9.61-3 9.61h-1.758l-3.679-12.68h2.156l2.496 9.492 2.953-9.492h1.746l3.012 9.692zm12.082 3.222c-1.719 0-3.117-.562-4.195-1.687-1.079-1.133-1.618-2.645-1.618-4.535v-.399c0-1.258.239-2.379.715-3.363.485-.992 1.156-1.766 2.016-2.32a5.067 5.067 0 012.812-.844c1.649 0 2.93.543 3.844 1.629.914 1.086 1.371 2.64 1.371 4.664v.902h-8.59c.032 1.25.395 2.262 1.09 3.035.703.766 1.594 1.149 2.672 1.149.766 0 1.414-.157 1.945-.469a4.903 4.903 0 001.395-1.242l1.324 1.031c-1.062 1.633-2.656 2.449-4.781 2.449zm-.27-11.367c-.875 0-1.609.32-2.203.961-.594.633-.961 1.523-1.101 2.672h6.351v-.164c-.062-1.102-.359-1.953-.89-2.555-.532-.609-1.25-.914-2.157-.914zm15.563 11.133c-.125-.25-.227-.695-.305-1.336-1.008 1.047-2.211 1.57-3.609 1.57-1.25 0-2.278-.351-3.082-1.054-.797-.711-1.196-1.61-1.196-2.696 0-1.32.5-2.344 1.5-3.07 1.008-.734 2.422-1.102 4.243-1.102h2.109v-.996c0-.758-.227-1.359-.68-1.804-.453-.454-1.121-.68-2.004-.68-.773 0-1.421.195-1.945.586-.523.39-.785.863-.785 1.418h-2.18c0-.633.223-1.242.668-1.828.453-.594 1.063-1.063 1.828-1.407.774-.343 1.621-.515 2.543-.515 1.461 0 2.606.367 3.434 1.101.828.727 1.258 1.731 1.289 3.012v5.836c0 1.164.148 2.09.445 2.777v.188h-2.273zm-3.598-1.653c.68 0 1.324-.175 1.934-.527.609-.351 1.051-.808 1.324-1.371v-2.602h-1.699c-2.656 0-3.985.778-3.985 2.333 0 .679.227 1.21.68 1.593.453.383 1.035.574 1.746.574zm12.82-1.289l3.141-9.738h2.215l-4.547 12.68h-1.652l-4.594-12.68h2.215l3.222 9.738zm12.54 3.176c-1.719 0-3.118-.562-4.196-1.687-1.078-1.133-1.617-2.645-1.617-4.535v-.399c0-1.258.238-2.379.715-3.363.484-.992 1.156-1.766 2.016-2.32a5.064 5.064 0 012.812-.844c1.648 0 2.93.543 3.844 1.629.914 1.086 1.371 2.64 1.371 4.664v.902h-8.59c.031 1.25.395 2.262 1.09 3.035.703.766 1.594 1.149 2.672 1.149.765 0 1.414-.157 1.945-.469a4.917 4.917 0 001.395-1.242l1.324 1.031c-1.063 1.633-2.656 2.449-4.781 2.449zm-.27-11.367c-.875 0-1.609.32-2.203.961-.594.633-.961 1.523-1.102 2.672h6.352v-.164c-.063-1.102-.359-1.953-.891-2.555-.531-.609-1.25-.914-2.156-.914zm14.027 11.133v-17.063h5.579c1.851 0 3.242.383 4.171 1.149.938.765 1.407 1.898 1.407 3.398 0 .797-.227 1.504-.68 2.121-.453.61-1.07 1.082-1.852 1.418.922.258 1.649.75 2.18 1.477.539.719.809 1.578.809 2.578 0 1.531-.496 2.734-1.489 3.609-.992.875-2.394 1.313-4.207 1.313h-5.918zm2.25-7.981v6.141h3.715c1.047 0 1.871-.27 2.473-.809.609-.546.914-1.296.914-2.25 0-2.054-1.117-3.082-3.352-3.082h-3.75zm0-1.804h3.399c.984 0 1.769-.246 2.355-.739.594-.492.891-1.16.891-2.004 0-.937-.274-1.617-.82-2.039-.547-.429-1.379-.644-2.496-.644h-3.329v5.426zm14.719 9.785h-2.168v-18h2.168v18zm2.906-6.457c0-1.242.243-2.36.727-3.352.492-.992 1.172-1.758 2.039-2.297.875-.539 1.871-.808 2.988-.808 1.727 0 3.121.597 4.184 1.793 1.07 1.195 1.605 2.785 1.605 4.769v.153c0 1.234-.238 2.343-.715 3.328-.468.976-1.144 1.738-2.027 2.285-.875.547-1.883.82-3.023.82-1.719 0-3.114-.597-4.184-1.793-1.062-1.195-1.594-2.777-1.594-4.746v-.152zm2.18.258c0 1.406.324 2.535.973 3.386.656.852 1.531 1.278 2.625 1.278 1.101 0 1.976-.43 2.625-1.289.648-.868.972-2.079.972-3.633 0-1.391-.332-2.516-.996-3.375-.656-.867-1.531-1.301-2.625-1.301-1.07 0-1.933.426-2.59 1.277-.656.852-.984 2.071-.984 3.657zm17.168 4.664c.773 0 1.449-.235 2.027-.703.579-.469.899-1.055.961-1.758h2.051c-.039.726-.289 1.418-.75 2.074-.461.656-1.078 1.18-1.851 1.57a5.29 5.29 0 01-2.438.586c-1.727 0-3.102-.574-4.125-1.722-1.016-1.157-1.523-2.735-1.523-4.735v-.363c0-1.234.226-2.332.679-3.293.453-.961 1.102-1.707 1.946-2.238.851-.532 1.855-.797 3.011-.797 1.422 0 2.602.426 3.539 1.277.946.852 1.45 1.957 1.512 3.317h-2.051c-.062-.821-.375-1.493-.937-2.016-.555-.531-1.242-.797-2.063-.797-1.101 0-1.957.398-2.566 1.195-.602.789-.902 1.934-.902 3.434v.41c0 1.461.3 2.586.902 3.375.601.789 1.461 1.184 2.578 1.184zm11.016-4.336l-1.36 1.418v4.453h-2.168v-18h2.168v10.887l1.16-1.395 3.95-4.172h2.636l-4.933 5.297 5.508 7.383h-2.543l-4.418-5.871zm13.476 4.336a3.13 3.13 0 002.028-.703c.578-.469.898-1.055.96-1.758h2.051c-.039.726-.289 1.418-.75 2.074-.461.656-1.078 1.18-1.851 1.57a5.287 5.287 0 01-2.438.586c-1.726 0-3.101-.574-4.125-1.722-1.015-1.157-1.523-2.735-1.523-4.735v-.363c0-1.234.226-2.332.679-3.293.454-.961 1.102-1.707 1.946-2.238.851-.532 1.855-.797 3.011-.797 1.422 0 2.602.426 3.54 1.277.945.852 1.449 1.957 1.511 3.317h-2.051c-.062-.821-.374-1.493-.937-2.016-.555-.531-1.242-.797-2.063-.797-1.101 0-1.957.398-2.566 1.195-.601.789-.902 1.934-.902 3.434v.41c0 1.461.301 2.586.902 3.375.602.789 1.461 1.184 2.578 1.184zm9.645-9.61c.961-1.179 2.211-1.769 3.75-1.769 2.679 0 4.031 1.511 4.054 4.535v8.379h-2.168v-8.391c-.007-.914-.218-1.59-.632-2.027-.407-.438-1.043-.656-1.911-.656-.703 0-1.32.187-1.851.562a3.82 3.82 0 00-1.242 1.477v9.035h-2.168v-18h2.168v6.855zm18.879 11.145c-.125-.25-.227-.695-.305-1.336-1.008 1.047-2.211 1.57-3.609 1.57-1.25 0-2.278-.351-3.082-1.054-.797-.711-1.196-1.61-1.196-2.696 0-1.32.5-2.344 1.5-3.07 1.008-.734 2.422-1.102 4.242-1.102h2.11v-.996c0-.758-.227-1.359-.68-1.804-.453-.454-1.121-.68-2.004-.68-.773 0-1.422.195-1.945.586-.524.39-.785.863-.785 1.418h-2.18c0-.633.223-1.242.668-1.828.453-.594 1.063-1.063 1.828-1.407.774-.343 1.621-.515 2.543-.515 1.461 0 2.606.367 3.434 1.101.828.727 1.258 1.731 1.289 3.012v5.836c0 1.164.148 2.09.445 2.777v.188h-2.273zM963 408.279c.68 0 1.324-.175 1.934-.527.609-.351 1.05-.808 1.324-1.371v-2.602h-1.699c-2.657 0-3.985.778-3.985 2.333 0 .679.227 1.21.68 1.593.453.383 1.035.574 1.746.574zm11.18 1.653h-2.168v-12.68h2.168v12.68zm-2.344-16.043c0-.352.105-.649.316-.891.219-.242.539-.363.961-.363.422 0 .742.121.961.363.219.242.328.539.328.891 0 .351-.109.644-.328.879-.219.234-.539.351-.961.351-.422 0-.742-.117-.961-.351-.211-.235-.316-.528-.316-.879zm7.875 3.363l.07 1.594c.969-1.219 2.235-1.828 3.797-1.828 2.68 0 4.031 1.511 4.055 4.535v8.379h-2.168v-8.391c-.008-.914-.219-1.59-.633-2.027-.406-.438-1.043-.656-1.91-.656-.703 0-1.32.187-1.852.562a3.82 3.82 0 00-1.242 1.477v9.035h-2.168v-12.68h2.051zm16.195 5.871c0 1.742-.23 3.414-.691 5.016a14.646 14.646 0 01-2.098 4.418c-.937 1.351-1.922 2.312-2.953 2.883l-.457-1.325c1.203-.921 2.168-2.351 2.895-4.289.734-1.945 1.109-4.101 1.125-6.468v-.375c0-1.641-.172-3.164-.516-4.571-.344-1.414-.824-2.679-1.441-3.797-.61-1.117-1.297-1.988-2.063-2.613l.457-1.324c1.031.57 2.012 1.523 2.941 2.859a14.652 14.652 0 012.098 4.418c.469 1.61.703 3.332.703 5.168z" fill="#000"/><path fill="#E10098" d="M700 566h800v150H700z"/><path d="M1080.62 651.375h-19.06l-4.28 11.875h-6.19l17.38-45.5h5.25l17.4 45.5h-6.15l-4.35-11.875zm-17.24-4.937h15.46l-7.75-21.282-7.71 21.282zm39.87-1v17.812h-6v-45.5h16.78c4.98 0 8.88 1.271 11.69 3.812 2.83 2.542 4.25 5.907 4.25 10.094 0 4.417-1.39 7.823-4.16 10.219-2.75 2.375-6.7 3.563-11.84 3.563h-10.72zm0-4.907h10.78c3.21 0 5.67-.75 7.38-2.25 1.7-1.521 2.56-3.708 2.56-6.562 0-2.709-.86-4.875-2.56-6.5-1.71-1.625-4.06-2.469-7.03-2.531h-11.13v17.843zm40.81 22.719h-6v-45.5h6v45.5z" fill="#fff"/><path fill="#24292E" d="M700 849h800v150H700z"/><path d="M918.156 940.031c-1.541 2.209-3.698 3.865-6.468 4.969-2.75 1.083-5.959 1.625-9.626 1.625-3.708 0-7-.865-9.874-2.594-2.876-1.75-5.105-4.229-6.688-7.437-1.562-3.209-2.365-6.927-2.406-11.156v-3.969c0-6.854 1.594-12.167 4.781-15.938 3.208-3.771 7.708-5.656 13.5-5.656 4.75 0 8.573 1.219 11.469 3.656 2.896 2.417 4.666 5.854 5.312 10.313h-6c-1.125-6.021-4.708-9.032-10.75-9.032-4.021 0-7.073 1.417-9.156 4.25-2.062 2.813-3.104 6.896-3.125 12.25v3.719c0 5.104 1.167 9.167 3.5 12.188 2.333 3 5.49 4.5 9.469 4.5 2.25 0 4.218-.25 5.906-.75 1.688-.5 3.083-1.344 4.188-2.531v-10.219h-10.532v-4.875h16.5v16.687zM933.562 946h-5.781v-33.812h5.781V946zm-6.25-42.781c0-.938.282-1.729.844-2.375.584-.646 1.438-.969 2.563-.969 1.125 0 1.979.323 2.562.969.584.646.875 1.437.875 2.375 0 .937-.291 1.719-.875 2.343-.583.626-1.437.938-2.562.938-1.125 0-1.979-.312-2.563-.938-.562-.624-.844-1.406-.844-2.343zm23.376.781v8.188H957v4.468h-6.312v20.969c0 1.354.281 2.375.843 3.063.563.666 1.521 1 2.875 1 .667 0 1.584-.126 2.75-.376V946c-1.521.417-3 .625-4.437.625-2.584 0-4.531-.781-5.844-2.344-1.313-1.562-1.969-3.781-1.969-6.656v-20.969h-6.156v-4.468h6.156V904h5.782zm48.968 42h-6.031v-21.031h-22.937V946h-6v-45.5h6v19.562h22.937V900.5h6.031V946zm30.624-3.344c-2.25 2.646-5.55 3.969-9.9 3.969-3.61 0-6.36-1.042-8.26-3.125-1.87-2.104-2.82-5.208-2.84-9.312v-22h5.78v21.843c0 5.125 2.09 7.688 6.25 7.688 4.42 0 7.36-1.646 8.81-4.938v-24.593h5.79V946h-5.5l-.13-3.344zm43.06-13.187c0 5.166-1.18 9.323-3.56 12.469-2.37 3.124-5.56 4.687-9.56 4.687-4.27 0-7.57-1.51-9.91-4.531l-.28 3.906h-5.31v-48h5.78v17.906c2.33-2.896 5.55-4.344 9.66-4.344 4.1 0 7.32 1.553 9.65 4.657 2.36 3.104 3.53 7.354 3.53 12.75v.5zm-5.78-.657c0-3.937-.76-6.979-2.28-9.124-1.52-2.146-3.71-3.219-6.56-3.219-3.81 0-6.55 1.771-8.22 5.312v14.625c1.77 3.542 4.53 5.313 8.28 5.313 2.77 0 4.93-1.073 6.47-3.219s2.31-5.375 2.31-9.688zm45.53-7.218h12.69v5.468h-12.69v14.376h-5.81v-14.376h-12.69v-5.468h12.69v-13.282h5.81v13.282zm51.6 16.437l13-37.531h6.56l-16.87 45.5h-5.32l-16.84-45.5h6.53l12.94 37.531zm37.43 8.594c-4.58 0-8.31-1.5-11.18-4.5-2.88-3.021-4.32-7.052-4.32-12.094v-1.062c0-3.354.64-6.344 1.91-8.969 1.29-2.646 3.08-4.708 5.38-6.188 2.31-1.5 4.81-2.25 7.5-2.25 4.39 0 7.81 1.448 10.25 4.344 2.43 2.896 3.65 7.042 3.65 12.438v2.406h-22.9c.08 3.333 1.05 6.031 2.9 8.094 1.88 2.041 4.25 3.062 7.13 3.062 2.04 0 3.77-.416 5.18-1.25 1.42-.833 2.66-1.937 3.72-3.312l3.54 2.75c-2.84 4.354-7.09 6.531-12.76 6.531zm-.71-30.313c-2.34 0-4.3.855-5.88 2.563-1.58 1.687-2.56 4.063-2.94 7.125h16.94v-.438c-.17-2.937-.96-5.208-2.37-6.812-1.42-1.625-3.34-2.438-5.75-2.438zm36.97 1.063c-.88-.146-1.83-.219-2.85-.219-3.79 0-6.36 1.615-7.72 4.844v24h-5.78v-33.812h5.63l.09 3.906c1.9-3.021 4.58-4.532 8.06-4.532 1.13 0 1.98.146 2.57.438v5.375zm18.28 24.531c2.06 0 3.86-.625 5.4-1.875 1.54-1.25 2.4-2.812 2.56-4.687h5.47c-.1 1.937-.77 3.781-2 5.531-1.23 1.75-2.87 3.146-4.93 4.187a14.133 14.133 0 01-6.5 1.563c-4.61 0-8.27-1.531-11-4.594-2.71-3.083-4.07-7.291-4.07-12.625v-.968c0-3.292.61-6.219 1.82-8.782 1.2-2.562 2.93-4.552 5.18-5.968 2.27-1.417 4.95-2.126 8.03-2.126 3.8 0 6.94 1.136 9.44 3.407 2.52 2.271 3.87 5.219 4.03 8.843h-5.47c-.16-2.187-1-3.979-2.5-5.374-1.47-1.417-3.31-2.126-5.5-2.126-2.93 0-5.21 1.063-6.84 3.188-1.6 2.104-2.4 5.156-2.4 9.156v1.094c0 3.896.8 6.896 2.4 9 1.61 2.104 3.9 3.156 6.88 3.156zm33.96 4.719c-4.58 0-8.31-1.5-11.18-4.5-2.88-3.021-4.32-7.052-4.32-12.094v-1.062c0-3.354.64-6.344 1.91-8.969 1.29-2.646 3.08-4.708 5.38-6.188 2.31-1.5 4.81-2.25 7.5-2.25 4.39 0 7.81 1.448 10.25 4.344 2.43 2.896 3.65 7.042 3.65 12.438v2.406h-22.9c.08 3.333 1.05 6.031 2.9 8.094 1.88 2.041 4.25 3.062 7.13 3.062 2.04 0 3.77-.416 5.18-1.25 1.42-.833 2.66-1.937 3.72-3.312l3.54 2.75c-2.84 4.354-7.09 6.531-12.76 6.531zm-.71-30.313c-2.34 0-4.3.855-5.88 2.563-1.58 1.687-2.56 4.063-2.94 7.125h16.94v-.438c-.17-2.937-.96-5.208-2.37-6.812-1.42-1.625-3.34-2.438-5.75-2.438zm26.9 29.688h-5.78v-48h5.78v48z" fill="#fff"/><path fill="#000" d="M700 0h800v150H700z"/><path d="M960.969 75.531l7.5-12.344h6.75l-11.063 16.72L975.562 97h-6.687l-7.813-12.656L953.25 97h-6.719l11.407-17.094-11.063-16.719h6.687l7.407 12.344zM981.5 93.97c0-1 .292-1.834.875-2.5.604-.667 1.5-1 2.687-1 1.188 0 2.084.333 2.688 1 .625.666.938 1.5.938 2.5 0 .958-.313 1.76-.938 2.406-.604.646-1.5.969-2.688.969-1.187 0-2.083-.323-2.687-.969-.583-.646-.875-1.448-.875-2.406zm22.22-30.781l.19 4.25c2.58-3.25 5.95-4.876 10.12-4.876 7.15 0 10.75 4.032 10.81 12.094V97h-5.78V74.625c-.02-2.438-.58-4.24-1.68-5.406-1.09-1.167-2.79-1.75-5.1-1.75-1.87 0-3.52.5-4.94 1.5-1.41 1-2.52 2.312-3.31 3.937V97h-5.78V63.187h5.47zm43.87 34.437c-4.58 0-8.31-1.5-11.18-4.5-2.88-3.02-4.32-7.052-4.32-12.094V79.97c0-3.354.64-6.344 1.91-8.969 1.29-2.646 3.08-4.708 5.38-6.188 2.31-1.5 4.81-2.25 7.5-2.25 4.39 0 7.81 1.448 10.24 4.344 2.44 2.896 3.66 7.042 3.66 12.438v2.406h-22.9c.08 3.333 1.05 6.031 2.9 8.094 1.88 2.041 4.25 3.062 7.13 3.062 2.04 0 3.77-.416 5.18-1.25 1.42-.833 2.66-1.937 3.72-3.312l3.53 2.75c-2.83 4.354-7.08 6.531-12.75 6.531zm-.71-30.313c-2.34 0-4.3.855-5.88 2.563-1.58 1.688-2.56 4.063-2.94 7.125H1055v-.438c-.17-2.937-.96-5.208-2.38-6.812-1.41-1.625-3.33-2.438-5.74-2.438zm40.31 20.72c0-1.563-.6-2.772-1.78-3.626-1.17-.875-3.22-1.625-6.16-2.25-2.92-.625-5.24-1.375-6.97-2.25-1.71-.875-2.98-1.916-3.81-3.125-.81-1.208-1.22-2.646-1.22-4.312 0-2.771 1.17-5.115 3.5-7.031 2.35-1.917 5.35-2.876 9-2.876 3.83 0 6.94.99 9.31 2.97 2.4 1.978 3.6 4.51 3.6 7.593h-5.82c0-1.583-.67-2.948-2.03-4.094-1.33-1.146-3.02-1.719-5.06-1.719-2.1 0-3.75.459-4.94 1.376-1.19.916-1.78 2.114-1.78 3.593 0 1.396.55 2.448 1.66 3.156 1.1.709 3.09 1.386 5.97 2.032 2.89.646 5.24 1.416 7.03 2.312 1.79.896 3.11 1.98 3.97 3.25.87 1.25 1.31 2.781 1.31 4.594 0 3.02-1.21 5.448-3.63 7.281-2.41 1.813-5.55 2.719-9.4 2.719-2.71 0-5.11-.48-7.19-1.438s-3.72-2.291-4.91-4c-1.16-1.729-1.75-3.593-1.75-5.593h5.79c.1 1.937.87 3.479 2.31 4.625 1.46 1.125 3.37 1.687 5.75 1.687 2.18 0 3.94-.437 5.25-1.312 1.33-.896 2-2.084 2-3.563zM1108.34 55v8.188h6.32v4.468h-6.32v20.969c0 1.354.28 2.375.85 3.063.56.666 1.52 1 2.87 1 .67 0 1.59-.126 2.75-.376V97c-1.52.417-3 .625-4.43.625-2.59 0-4.54-.781-5.85-2.344-1.31-1.562-1.97-3.781-1.97-6.656V67.656h-6.15v-4.469h6.15V55h5.78zm13.22 38.969c0-1 .29-1.834.88-2.5.6-.667 1.5-1 2.68-1 1.19 0 2.09.333 2.69 1 .63.666.94 1.5.94 2.5 0 .958-.31 1.76-.94 2.406-.6.646-1.5.969-2.69.969-1.18 0-2.08-.323-2.68-.969-.59-.646-.88-1.448-.88-2.406zM1144.59 97h-5.78V49h5.78v48zm30.16 0c-.33-.667-.6-1.854-.81-3.563-2.69 2.792-5.9 4.188-9.63 4.188-3.33 0-6.07-.938-8.22-2.813-2.12-1.895-3.18-4.291-3.18-7.187 0-3.52 1.33-6.25 4-8.188 2.68-1.958 6.45-2.937 11.31-2.937h5.62v-2.656c0-2.021-.6-3.625-1.81-4.813-1.21-1.208-2.99-1.812-5.34-1.812-2.07 0-3.79.52-5.19 1.562-1.4 1.042-2.09 2.302-2.09 3.781h-5.82c0-1.687.6-3.312 1.79-4.874 1.2-1.584 2.83-2.834 4.87-3.75 2.06-.917 4.32-1.376 6.78-1.376 3.9 0 6.95.98 9.16 2.938 2.21 1.938 3.35 4.615 3.43 8.031v15.563c0 3.104.4 5.573 1.19 7.406v.5h-6.06zm-9.59-4.406c1.81 0 3.53-.469 5.15-1.406 1.63-.938 2.8-2.157 3.53-3.657v-6.937h-4.53c-7.08 0-10.62 2.073-10.62 6.219 0 1.812.6 3.229 1.81 4.25 1.21 1.02 2.76 1.53 4.66 1.53zm29-29.406l.18 4.25c2.59-3.25 5.96-4.876 10.13-4.876 7.14 0 10.75 4.032 10.81 12.094V97h-5.78V74.625c-.02-2.438-.58-4.24-1.69-5.406-1.08-1.167-2.78-1.75-5.09-1.75-1.88 0-3.52.5-4.94 1.5-1.42 1-2.52 2.312-3.31 3.937V97h-5.78V63.187h5.47zm28.43 16.624c0-5.187 1.23-9.354 3.69-12.5 2.46-3.166 5.68-4.75 9.66-4.75 3.96 0 7.09 1.355 9.4 4.063V49h5.78v48h-5.31l-.28-3.625c-2.31 2.833-5.53 4.25-9.65 4.25-3.92 0-7.12-1.604-9.6-4.813-2.46-3.208-3.69-7.395-3.69-12.562v-.438zm5.79.657c0 3.833.79 6.833 2.37 9 1.58 2.166 3.77 3.25 6.56 3.25 3.67 0 6.35-1.646 8.03-4.938V72.25c-1.73-3.188-4.38-4.781-7.96-4.781-2.84 0-5.05 1.094-6.63 3.281-1.58 2.188-2.37 5.427-2.37 9.719z" fill="#fff"/><path fill="#FDBB2D" d="M1900 566h300v150h-300z"/><path d="M2021.81 652.293c-2.58 0-4.67-.844-6.29-2.532-1.62-1.699-2.43-3.966-2.43-6.802v-.598c0-1.887.36-3.568 1.08-5.045.72-1.488 1.73-2.648 3.02-3.48 1.3-.844 2.71-1.266 4.22-1.266 2.47 0 4.39.815 5.76 2.443 1.37 1.629 2.06 3.961 2.06 6.997v1.353h-12.88c.04 1.875.59 3.393 1.63 4.553 1.06 1.148 2.39 1.722 4.01 1.722 1.15 0 2.12-.234 2.92-.703a7.444 7.444 0 002.09-1.863l1.98 1.547c-1.59 2.449-3.98 3.674-7.17 3.674zm-.4-17.051c-1.31 0-2.42.48-3.31 1.441-.89.95-1.44 2.286-1.65 4.008h9.53v-.246c-.1-1.652-.54-2.93-1.34-3.832-.79-.914-1.87-1.371-3.23-1.371zm10.83 7.031c0-2.965.68-5.32 2.05-7.066 1.37-1.758 3.19-2.637 5.45-2.637 2.32 0 4.13.82 5.43 2.461l.16-2.109h2.97v18.562c0 2.461-.73 4.401-2.19 5.818-1.46 1.418-3.41 2.127-5.88 2.127-1.37 0-2.71-.293-4.02-.878-1.31-.586-2.32-1.389-3.01-2.409l1.69-1.951c1.4 1.723 3.1 2.584 5.12 2.584 1.58 0 2.81-.445 3.69-1.336.89-.89 1.33-2.144 1.33-3.762v-1.634c-1.3 1.5-3.07 2.25-5.32 2.25-2.23 0-4.03-.897-5.42-2.69-1.37-1.793-2.05-4.236-2.05-7.33zm3.27.369c0 2.145.44 3.832 1.31 5.063.88 1.219 2.11 1.828 3.7 1.828 2.05 0 3.55-.932 4.51-2.795v-8.684c-.99-1.816-2.49-2.724-4.48-2.724-1.58 0-2.82.615-3.71 1.846-.89 1.23-1.33 3.052-1.33 5.466zm16.94-.369c0-2.965.69-5.32 2.06-7.066 1.37-1.758 3.19-2.637 5.45-2.637 2.32 0 4.13.82 5.43 2.461l.16-2.109h2.97v18.562c0 2.461-.73 4.401-2.2 5.818-1.45 1.418-3.41 2.127-5.87 2.127-1.37 0-2.71-.293-4.03-.878-1.31-.586-2.31-1.389-3-2.409l1.69-1.951c1.39 1.723 3.1 2.584 5.11 2.584 1.58 0 2.81-.445 3.69-1.336.89-.89 1.34-2.144 1.34-3.762v-1.634c-1.3 1.5-3.08 2.25-5.33 2.25-2.22 0-4.03-.897-5.41-2.69-1.37-1.793-2.06-4.236-2.06-7.33zm3.27.369c0 2.145.44 3.832 1.32 5.063.88 1.219 2.11 1.828 3.69 1.828 2.05 0 3.56-.932 4.52-2.795v-8.684c-1-1.816-2.49-2.724-4.48-2.724-1.59 0-2.82.615-3.71 1.846-.89 1.23-1.34 3.052-1.34 5.466zm28.79 4.254c0-.879-.33-1.558-1-2.039-.65-.492-1.81-.914-3.46-1.265-1.64-.352-2.95-.774-3.92-1.266-.96-.492-1.68-1.078-2.15-1.758-.45-.68-.68-1.488-.68-2.426 0-1.558.66-2.877 1.97-3.955 1.32-1.078 3.01-1.617 5.06-1.617 2.16 0 3.9.557 5.24 1.67 1.35 1.113 2.02 2.537 2.02 4.271h-3.27c0-.89-.38-1.658-1.14-2.302-.75-.645-1.7-.967-2.85-.967-1.18 0-2.11.258-2.78.773-.67.516-1 1.19-1 2.022 0 .785.31 1.377.93 1.775.62.399 1.74.78 3.36 1.143 1.63.363 2.95.797 3.95 1.301 1.01.504 1.76 1.113 2.24 1.828.49.703.74 1.564.74 2.584 0 1.699-.68 3.064-2.04 4.095-1.36 1.02-3.13 1.53-5.29 1.53-1.53 0-2.88-.27-4.05-.809s-2.09-1.289-2.76-2.25c-.65-.973-.98-2.021-.98-3.146h3.25c.06 1.089.49 1.957 1.3 2.601.82.633 1.9.949 3.24.949 1.23 0 2.21-.246 2.95-.738.75-.504 1.12-1.172 1.12-2.004z" fill="#000"/><path fill="#4C66E2" d="M1900 283h300v150h-300z"/><path d="M1964.53 369.293c-2.58 0-4.68-.844-6.3-2.532-1.61-1.699-2.42-3.966-2.42-6.802v-.598c0-1.887.35-3.568 1.07-5.045.73-1.488 1.73-2.648 3.02-3.48 1.3-.844 2.71-1.266 4.22-1.266 2.47 0 4.4.815 5.77 2.443 1.37 1.629 2.05 3.961 2.05 6.997v1.353h-12.88c.05 1.875.59 3.393 1.63 4.553 1.06 1.148 2.39 1.722 4.01 1.722 1.15 0 2.12-.234 2.92-.703a7.31 7.31 0 002.09-1.863l1.99 1.547c-1.6 2.449-3.99 3.674-7.17 3.674zm-.41-17.051c-1.31 0-2.41.48-3.3 1.441-.89.95-1.44 2.286-1.66 4.008h9.53v-.246c-.09-1.652-.54-2.93-1.33-3.832-.8-.914-1.88-1.371-3.24-1.371zm10.83 7.031c0-2.965.68-5.32 2.06-7.066 1.37-1.758 3.18-2.637 5.45-2.637 2.32 0 4.13.82 5.43 2.461l.15-2.109h2.98v18.562c0 2.461-.74 4.401-2.2 5.819-1.45 1.417-3.41 2.126-5.87 2.126-1.37 0-2.72-.293-4.03-.878-1.31-.586-2.31-1.389-3-2.409l1.68-1.951c1.4 1.723 3.1 2.584 5.12 2.584 1.58 0 2.81-.445 3.69-1.336.89-.89 1.34-2.144 1.34-3.761v-1.635c-1.3 1.5-3.08 2.25-5.33 2.25-2.23 0-4.03-.897-5.41-2.69s-2.06-4.236-2.06-7.33zm3.27.369c0 2.145.44 3.832 1.32 5.063.88 1.219 2.11 1.828 3.69 1.828 2.05 0 3.56-.932 4.52-2.795v-8.684c-1-1.816-2.49-2.724-4.49-2.724-1.58 0-2.81.615-3.71 1.846-.89 1.23-1.33 3.052-1.33 5.466zm16.94-.369c0-2.965.69-5.32 2.06-7.066 1.37-1.758 3.19-2.637 5.45-2.637 2.32 0 4.13.82 5.43 2.461l.16-2.109h2.97v18.562c0 2.461-.73 4.401-2.2 5.819-1.45 1.417-3.41 2.126-5.87 2.126-1.37 0-2.71-.293-4.02-.878-1.32-.586-2.32-1.389-3.01-2.409l1.69-1.951c1.39 1.723 3.1 2.584 5.11 2.584 1.59 0 2.82-.445 3.69-1.336.9-.89 1.34-2.144 1.34-3.761v-1.635c-1.3 1.5-3.08 2.25-5.33 2.25-2.22 0-4.03-.897-5.41-2.69-1.37-1.793-2.06-4.236-2.06-7.33zm3.27.369c0 2.145.44 3.832 1.32 5.063.88 1.219 2.11 1.828 3.69 1.828 2.05 0 3.56-.932 4.52-2.795v-8.684c-1-1.816-2.49-2.724-4.48-2.724-1.58 0-2.82.615-3.71 1.846-.89 1.23-1.34 3.052-1.34 5.466zm28.8 4.254c0-.879-.34-1.558-1.01-2.039-.65-.492-1.81-.914-3.46-1.265-1.64-.352-2.95-.774-3.92-1.266-.96-.492-1.67-1.078-2.14-1.758-.46-.68-.69-1.488-.69-2.426 0-1.558.66-2.877 1.97-3.955 1.32-1.078 3.01-1.617 5.06-1.617 2.16 0 3.91.557 5.24 1.67 1.35 1.113 2.02 2.537 2.02 4.271h-3.27c0-.89-.38-1.658-1.14-2.302-.75-.645-1.7-.967-2.85-.967-1.18 0-2.11.258-2.77.773-.67.516-1.01 1.19-1.01 2.022 0 .785.31 1.377.94 1.775.62.399 1.74.78 3.35 1.143 1.63.363 2.95.797 3.96 1.301 1.01.504 1.75 1.113 2.23 1.828.49.703.74 1.564.74 2.584 0 1.699-.68 3.064-2.04 4.095-1.36 1.02-3.12 1.53-5.29 1.53-1.53 0-2.87-.27-4.04-.809-1.18-.539-2.1-1.289-2.76-2.25-.66-.973-.99-2.021-.99-3.146h3.25c.06 1.09.5 1.957 1.3 2.601.82.633 1.9.949 3.24.949 1.23 0 2.21-.246 2.95-.738.75-.504 1.13-1.172 1.13-2.004zm24.04 2.742c1.16 0 2.18-.351 3.04-1.054.87-.703 1.35-1.582 1.45-2.637h3.07c-.06 1.09-.43 2.127-1.12 3.111-.69.985-1.62 1.77-2.78 2.356a7.952 7.952 0 01-3.66.879c-2.59 0-4.65-.862-6.18-2.584-1.53-1.735-2.29-4.102-2.29-7.102v-.545c0-1.851.34-3.498 1.02-4.939.68-1.442 1.65-2.561 2.92-3.358 1.28-.796 2.78-1.195 4.52-1.195 2.13 0 3.9.639 5.3 1.916 1.42 1.277 2.18 2.936 2.27 4.975h-3.07c-.1-1.231-.57-2.239-1.41-3.024-.83-.797-1.86-1.195-3.09-1.195-1.66 0-2.94.598-3.85 1.793-.91 1.184-1.36 2.9-1.36 5.15v.616c0 2.191.45 3.878 1.36 5.062.9 1.184 2.19 1.775 3.86 1.775zm14.75 2.303h-3.25v-27h3.25v27zm8.76 0h-3.26v-19.019h3.26v19.019zm-3.52-24.064c0-.528.16-.973.47-1.336.33-.363.81-.545 1.45-.545.63 0 1.11.182 1.44.545.33.363.49.808.49 1.336 0 .527-.16.967-.49 1.318-.33.352-.81.527-1.44.527-.64 0-1.12-.175-1.45-.527-.31-.351-.47-.791-.47-1.318zm16.63 24.416c-2.58 0-4.68-.844-6.29-2.532-1.62-1.699-2.43-3.966-2.43-6.802v-.598c0-1.887.36-3.568 1.07-5.045.73-1.488 1.74-2.648 3.03-3.48 1.3-.844 2.7-1.266 4.21-1.266 2.48 0 4.4.815 5.77 2.443 1.37 1.629 2.06 3.961 2.06 6.997v1.353h-12.89c.05 1.875.59 3.393 1.64 4.553 1.05 1.148 2.39 1.722 4 1.722 1.15 0 2.13-.234 2.92-.703a7.18 7.18 0 002.09-1.863l1.99 1.547c-1.59 2.449-3.98 3.674-7.17 3.674zm-.41-17.051c-1.31 0-2.41.48-3.3 1.441-.89.95-1.44 2.286-1.65 4.008h9.52v-.246c-.09-1.652-.53-2.93-1.33-3.832-.8-.914-1.88-1.371-3.24-1.371zm14.68-2.32l.11 2.39c1.45-1.828 3.35-2.742 5.69-2.742 4.02 0 6.05 2.268 6.08 6.803v12.568h-3.25v-12.586c-.01-1.371-.33-2.385-.95-3.041-.61-.656-1.56-.984-2.86-.984-1.06 0-1.98.281-2.78.844-.8.562-1.42 1.3-1.86 2.214v13.553h-3.25v-19.019h3.07zm21.2-4.606v4.606h3.55v2.513h-3.55v11.795c0 .762.16 1.336.48 1.723.31.375.85.562 1.61.562.38 0 .89-.07 1.55-.211v2.637c-.86.235-1.69.352-2.5.352-1.45 0-2.54-.44-3.28-1.319-.74-.879-1.11-2.127-1.11-3.744v-11.795h-3.46v-2.513h3.46v-4.606h3.25zm18.44 18.58c0-.879-.33-1.558-1-2.039-.66-.492-1.81-.914-3.46-1.265-1.64-.352-2.95-.774-3.92-1.266-.96-.492-1.68-1.078-2.15-1.758-.46-.68-.68-1.488-.68-2.426 0-1.558.65-2.877 1.96-3.955 1.33-1.078 3.02-1.617 5.07-1.617 2.15 0 3.9.557 5.24 1.67 1.34 1.113 2.02 2.537 2.02 4.271h-3.27c0-.89-.38-1.658-1.15-2.302-.75-.645-1.69-.967-2.84-.967-1.19 0-2.11.258-2.78.773-.67.516-1 1.19-1 2.022 0 .785.31 1.377.93 1.775.62.399 1.74.78 3.36 1.143 1.63.363 2.94.797 3.95 1.301 1.01.504 1.75 1.113 2.23 1.828.5.703.74 1.564.74 2.584 0 1.699-.68 3.064-2.04 4.095-1.36 1.02-3.12 1.53-5.29 1.53-1.52 0-2.87-.27-4.04-.809s-2.09-1.289-2.76-2.25a5.485 5.485 0 01-.98-3.146h3.25c.06 1.09.49 1.957 1.3 2.601.82.633 1.9.949 3.23.949 1.23 0 2.22-.246 2.96-.738.75-.504 1.12-1.172 1.12-2.004z" fill="#fff"/><path fill="#000" d="M1900 0h300v150h-300z"/><path d="M1958.51 61.781l8.37 20.883 8.37-20.883h4.37v25.594h-3.37v-9.967l.32-10.758-8.41 20.725h-2.58l-8.38-20.672.33 10.705v9.967h-3.38V61.781h4.36zm25.7 15.908c0-1.863.37-3.539 1.09-5.027.74-1.488 1.76-2.637 3.06-3.445 1.31-.809 2.81-1.213 4.48-1.213 2.59 0 4.69.896 6.28 2.69 1.6 1.792 2.41 4.177 2.41 7.154v.228c0 1.852-.36 3.516-1.07 4.992-.71 1.465-1.72 2.608-3.05 3.428-1.31.82-2.82 1.23-4.53 1.23-2.58 0-4.67-.896-6.28-2.689-1.59-1.793-2.39-4.166-2.39-7.119v-.229zm3.27.387c0 2.11.49 3.803 1.46 5.08.99 1.278 2.3 1.916 3.94 1.916 1.65 0 2.96-.644 3.94-1.933.97-1.301 1.46-3.117 1.46-5.45 0-2.085-.5-3.773-1.5-5.062-.98-1.3-2.3-1.951-3.94-1.951-1.6 0-2.9.638-3.88 1.916-.99 1.277-1.48 3.105-1.48 5.484zm17.33-.369c0-2.918.7-5.262 2.08-7.031 1.38-1.782 3.19-2.672 5.43-2.672 2.23 0 3.99.762 5.29 2.285v-9.914h3.25v27h-2.98l-.16-2.04c-1.3 1.595-3.11 2.392-5.43 2.392-2.21 0-4.01-.903-5.4-2.708-1.38-1.804-2.08-4.16-2.08-7.066v-.246zm3.26.37c0 2.155.44 3.843 1.33 5.062.89 1.218 2.12 1.828 3.69 1.828 2.07 0 3.57-.926 4.52-2.778v-8.736c-.97-1.793-2.47-2.69-4.48-2.69-1.59 0-2.84.616-3.73 1.846-.89 1.23-1.33 3.053-1.33 5.467zm29.6 7.417c-1.27 1.488-3.13 2.233-5.57 2.233-2.03 0-3.58-.586-4.64-1.758-1.06-1.184-1.59-2.93-1.6-5.238V68.356h3.25v12.287c0 2.882 1.17 4.324 3.51 4.324 2.49 0 4.14-.926 4.96-2.778V68.356h3.25v19.019h-3.09l-.07-1.88zm11.65 1.881h-3.25v-27h3.25v27zm13.12.352c-2.58 0-4.68-.844-6.3-2.532-1.61-1.699-2.42-3.966-2.42-6.802v-.598c0-1.887.35-3.568 1.07-5.045.73-1.488 1.73-2.648 3.02-3.48 1.3-.844 2.71-1.266 4.22-1.266 2.47 0 4.4.814 5.77 2.443 1.37 1.63 2.05 3.961 2.05 6.996v1.354h-12.88c.05 1.875.59 3.392 1.63 4.553 1.06 1.148 2.39 1.722 4.01 1.722 1.15 0 2.12-.234 2.92-.703.8-.469 1.49-1.09 2.09-1.863l1.99 1.547c-1.6 2.449-3.99 3.674-7.17 3.674zm-.41-17.051c-1.31 0-2.41.48-3.3 1.441-.89.95-1.44 2.285-1.66 4.008h9.53v-.246c-.09-1.652-.54-2.93-1.33-3.832-.8-.914-1.88-1.371-3.24-1.371zm32.27 14.818c-1.26 1.488-3.12 2.233-5.57 2.233-2.02 0-3.57-.586-4.64-1.758-1.05-1.184-1.59-2.93-1.6-5.238V68.356h3.25v12.287c0 2.882 1.18 4.324 3.52 4.324 2.48 0 4.14-.926 4.96-2.778V68.356h3.25v19.019h-3.09l-.08-1.88zm19.2-3.164c0-.879-.33-1.558-1-2.039-.66-.492-1.81-.914-3.46-1.266-1.65-.351-2.95-.773-3.92-1.265-.97-.492-1.68-1.078-2.15-1.758-.46-.68-.68-1.488-.68-2.426 0-1.558.65-2.877 1.96-3.955 1.33-1.078 3.02-1.617 5.07-1.617 2.15 0 3.9.556 5.23 1.67 1.35 1.113 2.03 2.537 2.03 4.271h-3.27c0-.89-.38-1.658-1.15-2.302-.75-.645-1.7-.967-2.84-.967-1.19 0-2.11.258-2.78.773-.67.516-1 1.19-1 2.022 0 .785.31 1.377.93 1.775.62.398 1.74.78 3.36 1.143 1.63.363 2.94.797 3.95 1.3 1.01.504 1.75 1.114 2.23 1.829.5.703.74 1.564.74 2.584 0 1.699-.68 3.064-2.04 4.095-1.36 1.02-3.12 1.53-5.29 1.53-1.52 0-2.87-.27-4.04-.809-1.17-.54-2.09-1.29-2.76-2.25-.66-.973-.99-2.022-.99-3.147h3.26c.06 1.09.49 1.957 1.3 2.602.82.633 1.9.95 3.23.95 1.23 0 2.22-.247 2.96-.739.74-.504 1.12-1.172 1.12-2.004zm15.38 5.397c-2.58 0-4.67-.844-6.29-2.532-1.62-1.699-2.43-3.966-2.43-6.802v-.598c0-1.887.36-3.568 1.07-5.045.73-1.488 1.74-2.648 3.03-3.48 1.3-.844 2.7-1.266 4.22-1.266 2.47 0 4.39.814 5.76 2.443 1.37 1.63 2.06 3.961 2.06 6.996v1.354h-12.89c.05 1.875.6 3.392 1.64 4.553 1.05 1.148 2.39 1.722 4.01 1.722 1.15 0 2.12-.234 2.91-.703a7.35 7.35 0 002.1-1.863l1.98 1.547c-1.59 2.449-3.98 3.674-7.17 3.674zm-.4-17.051c-1.32 0-2.42.48-3.31 1.441-.89.95-1.44 2.285-1.65 4.008h9.53v-.246c-.1-1.652-.54-2.93-1.34-3.832-.8-.914-1.87-1.371-3.23-1.371zm20.79.597a9.684 9.684 0 00-1.6-.123c-2.13 0-3.58.909-4.34 2.725v13.5h-3.25v-19.02h3.16l.05 2.198c1.07-1.7 2.58-2.55 4.54-2.55.63 0 1.11.083 1.44.247v3.023z" fill="#fff"/><path fill="#22C1C3" d="M0 416h300v184H0zM0 400h300v16H0z"/><path d="M59.68 499.022l.14 3.187c1.938-2.437 4.47-3.656 7.594-3.656 5.36 0 8.063 3.023 8.11 9.07v16.758h-4.337V507.6c-.015-1.828-.437-3.18-1.265-4.055-.813-.875-2.086-1.312-3.82-1.312-1.407 0-2.641.375-3.704 1.125-1.062.75-1.89 1.734-2.484 2.953v18.07h-4.336v-25.359h4.102zm32.906 25.828c-3.438 0-6.234-1.125-8.39-3.375-2.157-2.266-3.235-5.289-3.235-9.071v-.796c0-2.516.477-4.758 1.43-6.727.968-1.984 2.312-3.531 4.03-4.641 1.735-1.125 3.61-1.687 5.626-1.687 3.297 0 5.86 1.086 7.687 3.258 1.828 2.172 2.743 5.281 2.743 9.328v1.804h-17.18c.062 2.5.789 4.524 2.18 6.071 1.406 1.531 3.187 2.297 5.343 2.297 1.532 0 2.828-.313 3.89-.938a9.778 9.778 0 002.79-2.484l2.648 2.062c-2.125 3.266-5.312 4.899-9.562 4.899zm-.54-22.735c-1.75 0-3.218.641-4.405 1.922-1.188 1.266-1.922 3.047-2.204 5.344h12.704v-.328c-.125-2.203-.72-3.906-1.782-5.11-1.062-1.218-2.5-1.828-4.312-1.828zm30.235 15.539c0-1.171-.445-2.078-1.336-2.718-.875-.657-2.414-1.219-4.617-1.688-2.187-.469-3.93-1.031-5.226-1.687-1.282-.657-2.235-1.438-2.86-2.344-.609-.906-.914-1.984-.914-3.234 0-2.079.875-3.836 2.625-5.274 1.766-1.437 4.016-2.156 6.75-2.156 2.875 0 5.203.742 6.985 2.226 1.796 1.485 2.695 3.383 2.695 5.696h-4.36c0-1.188-.507-2.211-1.523-3.071-1-.859-2.266-1.289-3.797-1.289-1.578 0-2.812.344-3.703 1.032-.891.687-1.336 1.586-1.336 2.695 0 1.047.414 1.836 1.242 2.367.828.531 2.321 1.039 4.477 1.524 2.172.484 3.929 1.062 5.273 1.734 1.344.672 2.336 1.484 2.977 2.437.656.938.984 2.086.984 3.446 0 2.265-.906 4.086-2.719 5.461-1.812 1.359-4.164 2.039-7.054 2.039-2.032 0-3.828-.36-5.391-1.078-1.562-.719-2.789-1.719-3.68-3-.875-1.297-1.312-2.696-1.312-4.196h4.336c.078 1.453.656 2.61 1.734 3.469 1.094.844 2.531 1.266 4.313 1.266 1.64 0 2.953-.328 3.937-.985 1-.672 1.5-1.562 1.5-2.672zm15.867-24.773v6.141h4.735v3.351h-4.735V518.1c0 1.015.211 1.781.633 2.297.422.5 1.141.75 2.157.75.5 0 1.187-.094 2.062-.282v3.516c-1.141.312-2.25.469-3.328.469-1.938 0-3.399-.586-4.383-1.758-.984-1.172-1.477-2.836-1.477-4.992v-15.727h-4.617v-3.351h4.617v-6.141h4.336zm9.914 29.227c0-.75.219-1.375.657-1.875.453-.5 1.125-.75 2.015-.75.891 0 1.563.25 2.016.75.469.5.703 1.125.703 1.875 0 .718-.234 1.32-.703 1.804-.453.485-1.125.727-2.016.727-.89 0-1.562-.242-2.015-.727-.438-.484-.657-1.086-.657-1.804zm17.274 2.273H161v-36h4.336v36zm22.617 0c-.25-.5-.453-1.391-.609-2.672-2.016 2.094-4.422 3.141-7.219 3.141-2.5 0-4.555-.703-6.164-2.11-1.594-1.422-2.391-3.218-2.391-5.39 0-2.641 1-4.688 3-6.141 2.016-1.469 4.844-2.203 8.485-2.203h4.218v-1.992c0-1.516-.453-2.719-1.359-3.61-.906-.906-2.242-1.359-4.008-1.359-1.547 0-2.844.391-3.89 1.172-1.047.781-1.571 1.726-1.571 2.836h-4.359c0-1.266.445-2.485 1.336-3.656.906-1.188 2.125-2.125 3.656-2.813 1.547-.687 3.242-1.031 5.086-1.031 2.922 0 5.211.734 6.867 2.203 1.657 1.453 2.516 3.461 2.578 6.023v11.672c0 2.328.297 4.18.891 5.555v.375h-4.547zm-7.195-3.305c1.359 0 2.648-.351 3.867-1.054 1.219-.704 2.102-1.618 2.648-2.743v-5.203h-3.398c-5.313 0-7.969 1.555-7.969 4.664 0 1.36.453 2.422 1.36 3.188.906.765 2.07 1.148 3.492 1.148zm21.75-22.054l.14 3.187c1.938-2.437 4.469-3.656 7.594-3.656 5.36 0 8.063 3.023 8.11 9.07v16.758h-4.336V507.6c-.016-1.828-.438-3.18-1.266-4.055-.812-.875-2.086-1.312-3.82-1.312-1.407 0-2.641.375-3.703 1.125-1.063.75-1.891 1.734-2.485 2.953v18.07h-4.336v-25.359h4.102zm21.328 12.468c0-3.89.922-7.015 2.766-9.375 1.843-2.375 4.257-3.562 7.242-3.562 2.968 0 5.32 1.015 7.054 3.047v-13.219h4.336v36h-3.984l-.211-2.719c-1.734 2.125-4.148 3.188-7.242 3.188-2.938 0-5.336-1.203-7.195-3.61-1.844-2.406-2.766-5.547-2.766-9.422v-.328zm4.336.493c0 2.875.594 5.125 1.781 6.75 1.188 1.625 2.828 2.437 4.922 2.437 2.75 0 4.758-1.234 6.023-3.703v-11.649c-1.296-2.39-3.289-3.585-5.976-3.585-2.125 0-3.781.82-4.969 2.46-1.187 1.641-1.781 4.071-1.781 7.29z" fill="#fff"/><circle cx="9" cy="408" r="2" fill="#fff"/><circle cx="17" cy="408" r="2" fill="#fff"/><circle cx="25" cy="408" r="2" fill="#fff"/><path d="M883 433v133M2050 433v133M1318 433v133M1500 75h400M1877 51l24 24-24 24M883 283V150M859 173l24-24 24 24M1318 283V150M1294 173l24-24 24 24M1500 641h400M700 924H201c-33.137 0-60-26.863-60-60V601" stroke="#000" stroke-width="2"/><path d="M165 624l-24-24-24 24M700 75H201c-33.137 0-60 26.863-60 60v265" stroke="#000" stroke-width="2"/><path d="M165 377l-24 24-24-24M436 510H304M700 641h-10c-16.569 0-30-13.431-30-30v-10M344 510h286c16.569 0 30 13.431 30 30v62M327 534l-24-24 24-24" stroke="#000" stroke-width="2"/><circle cx="883" cy="283" r="9" fill="#fff" stroke="#000" stroke-width="2"/><circle cx="883" cy="566" r="9" fill="#fff" stroke="#000" stroke-width="2"/><circle cx="883" cy="433" r="9" fill="#fff" stroke="#000" stroke-width="2"/><circle cx="1318" cy="283" r="9" fill="#fff" stroke="#000" stroke-width="2"/><circle cx="1318" cy="566" r="9" fill="#fff" stroke="#000" stroke-width="2"/><circle cx="1318" cy="433" r="9" fill="#fff" stroke="#000" stroke-width="2"/><circle cx="700" cy="924" r="9" fill="#fff" stroke="#000" stroke-width="2"/><circle cx="700" cy="641" r="9" fill="#fff" stroke="#000" stroke-width="2"/><circle cx="700" cy="75" r="9" fill="#fff" stroke="#000" stroke-width="2"/><circle cx="1500" cy="641" r="9" fill="#fff" stroke="#000" stroke-width="2"/><circle cx="1900" cy="641" r="9" fill="#fff" stroke="#000" stroke-width="2"/><circle cx="2050" cy="566" r="9" fill="#fff" stroke="#000" stroke-width="2"/><circle cx="2050" cy="433" r="9" fill="#fff" stroke="#000" stroke-width="2"/><circle cx="1500" cy="75" r="9" fill="#fff" stroke="#000" stroke-width="2"/><rect x="1618" y="55" width="155" height="40" rx="20" fill="#000"/><path d="M1660.53 66.938l5.58 13.921 5.58-13.921h2.92V84h-2.25v-6.644l.21-7.172-5.6 13.816h-1.73l-5.59-13.781.23 7.137V84h-2.25V66.937h2.9zm17.14 10.605c0-1.242.24-2.36.72-3.352.49-.992 1.17-1.757 2.04-2.297.88-.538 1.87-.808 2.99-.808 1.73 0 3.12.598 4.18 1.793 1.07 1.195 1.61 2.785 1.61 4.77v.152c0 1.234-.24 2.343-.72 3.328-.47.977-1.14 1.738-2.02 2.285-.88.547-1.89.82-3.03.82-1.72 0-3.11-.597-4.18-1.793-1.06-1.195-1.59-2.777-1.59-4.746v-.152zm2.18.258c0 1.406.32 2.535.97 3.386.65.852 1.53 1.278 2.62 1.278 1.1 0 1.98-.43 2.63-1.29.65-.866.97-2.077.97-3.632 0-1.39-.33-2.516-1-3.375-.65-.867-1.53-1.3-2.62-1.3-1.07 0-1.93.425-2.59 1.276-.66.852-.98 2.07-.98 3.657zm11.55-.246c0-1.946.46-3.508 1.38-4.688.92-1.187 2.13-1.781 3.62-1.781 1.49 0 2.66.508 3.53 1.523V66h2.17v18h-1.99l-.11-1.36c-.87 1.063-2.07 1.594-3.62 1.594-1.47 0-2.67-.601-3.6-1.804-.92-1.203-1.38-2.774-1.38-4.711v-.164zm2.17.246c0 1.437.29 2.562.89 3.375.59.812 1.41 1.218 2.46 1.218 1.37 0 2.38-.617 3.01-1.851v-5.824c-.65-1.196-1.64-1.793-2.99-1.793-1.06 0-1.89.41-2.48 1.23-.6.82-.89 2.035-.89 3.645zm19.73 4.945c-.84.992-2.08 1.488-3.71 1.488-1.35 0-2.39-.39-3.1-1.171-.7-.79-1.05-1.954-1.06-3.493v-8.25h2.17v8.192c0 1.922.78 2.882 2.34 2.882 1.66 0 2.76-.617 3.3-1.851V71.32h2.17V84h-2.06l-.05-1.254zm7.77 1.254h-2.17V66h2.17v18zm8.74.234c-1.71 0-3.11-.562-4.19-1.687-1.08-1.133-1.62-2.645-1.62-4.535v-.399c0-1.257.24-2.379.72-3.363.48-.992 1.15-1.766 2.01-2.32a5.088 5.088 0 012.81-.844c1.65 0 2.93.543 3.85 1.629.91 1.086 1.37 2.64 1.37 4.664v.902h-8.59c.03 1.25.39 2.262 1.09 3.035.7.766 1.59 1.149 2.67 1.149.77 0 1.42-.156 1.95-.469a4.91 4.91 0 001.39-1.242l1.33 1.031c-1.07 1.633-2.66 2.45-4.79 2.45zm-.27-11.367c-.87 0-1.6.32-2.2.961-.59.633-.96 1.524-1.1 2.672h6.35v-.164c-.06-1.102-.36-1.953-.89-2.555-.53-.61-1.25-.914-2.16-.914z" fill="#fff"/><rect x="394" y="55" width="155" height="40" rx="20" fill="#000"/><path d="M436.533 66.938l5.578 13.921 5.578-13.921h2.918V84h-2.25v-6.644l.211-7.172L442.966 84h-1.722l-5.59-13.781.223 7.137V84h-2.25V66.937h2.906zm17.133 10.605c0-1.242.242-2.36.726-3.352.492-.992 1.172-1.757 2.039-2.297.875-.538 1.871-.808 2.989-.808 1.726 0 3.121.598 4.183 1.793 1.07 1.195 1.606 2.785 1.606 4.77v.152c0 1.234-.239 2.343-.715 3.328-.469.977-1.145 1.738-2.028 2.285-.875.547-1.882.82-3.023.82-1.719 0-3.113-.597-4.184-1.793-1.062-1.195-1.593-2.777-1.593-4.746v-.152zm2.179.258c0 1.406.325 2.535.973 3.386.656.852 1.531 1.278 2.625 1.278 1.102 0 1.977-.43 2.625-1.29.648-.866.973-2.077.973-3.632 0-1.39-.332-2.516-.996-3.375-.657-.867-1.532-1.3-2.625-1.3-1.071 0-1.934.425-2.59 1.276-.657.852-.985 2.07-.985 3.657zm11.555-.246c0-1.946.461-3.508 1.383-4.688.922-1.187 2.129-1.781 3.621-1.781 1.484 0 2.66.508 3.527 1.523V66h2.168v18h-1.992l-.105-1.36c-.868 1.063-2.075 1.594-3.622 1.594-1.468 0-2.667-.601-3.597-1.804-.922-1.203-1.383-2.774-1.383-4.711v-.164zm2.168.246c0 1.437.297 2.562.891 3.375.593.812 1.414 1.218 2.461 1.218 1.375 0 2.378-.617 3.011-1.851v-5.824c-.648-1.196-1.644-1.793-2.988-1.793-1.063 0-1.891.41-2.484 1.23-.594.82-.891 2.035-.891 3.645zm19.734 4.945c-.843.992-2.082 1.488-3.714 1.488-1.352 0-2.383-.39-3.094-1.171-.703-.79-1.059-1.954-1.067-3.493v-8.25h2.168v8.192c0 1.922.782 2.882 2.344 2.882 1.656 0 2.758-.617 3.305-1.851V71.32h2.168V84h-2.063l-.047-1.254zm7.77 1.254h-2.168V66h2.168v18zm8.742.234c-1.719 0-3.117-.562-4.195-1.687-1.078-1.133-1.617-2.645-1.617-4.535v-.399c0-1.257.238-2.379.714-3.363.485-.992 1.157-1.766 2.016-2.32a5.071 5.071 0 012.813-.844c1.648 0 2.929.543 3.843 1.629.914 1.086 1.371 2.64 1.371 4.664v.902h-8.589c.031 1.25.394 2.262 1.089 3.035.704.766 1.594 1.149 2.672 1.149.766 0 1.414-.156 1.946-.469a4.884 4.884 0 001.394-1.242l1.324 1.031c-1.062 1.633-2.656 2.45-4.781 2.45zm-.269-11.367c-.875 0-1.61.32-2.204.961-.593.633-.961 1.524-1.101 2.672h6.351v-.164c-.062-1.102-.359-1.953-.89-2.555-.531-.61-1.25-.914-2.156-.914z" fill="#fff"/><rect x="1591" y="621" width="218" height="40" rx="20" fill="#000"/><path d="M1637.26 632.938l5.58 13.921 5.57-13.921h2.92V650h-2.25v-6.645l.21-7.171-5.6 13.816h-1.72l-5.59-13.781.22 7.136V650h-2.25v-17.062h2.91zm17.13 10.605c0-1.242.24-2.359.73-3.352.49-.992 1.17-1.757 2.04-2.296.87-.54 1.87-.809 2.99-.809 1.72 0 3.12.598 4.18 1.793 1.07 1.195 1.6 2.785 1.6 4.769v.153c0 1.234-.23 2.344-.71 3.328a5.375 5.375 0 01-2.03 2.285c-.87.547-1.88.82-3.02.82-1.72 0-3.11-.597-4.18-1.793-1.07-1.195-1.6-2.777-1.6-4.746v-.152zm2.18.258c0 1.406.33 2.535.97 3.387.66.851 1.53 1.277 2.63 1.277 1.1 0 1.98-.43 2.62-1.289.65-.867.98-2.078.98-3.633 0-1.391-.34-2.516-1-3.375-.66-.867-1.53-1.301-2.62-1.301-1.08 0-1.94.426-2.59 1.278-.66.851-.99 2.07-.99 3.656zm11.56-.246c0-1.946.46-3.508 1.38-4.688.92-1.187 2.13-1.781 3.62-1.781 1.48 0 2.66.508 3.53 1.523V632h2.16v18h-1.99l-.1-1.359c-.87 1.062-2.08 1.593-3.62 1.593-1.47 0-2.67-.601-3.6-1.804-.92-1.203-1.38-2.774-1.38-4.711v-.164zm2.16.246c0 1.437.3 2.562.89 3.375.6.812 1.42 1.219 2.47 1.219 1.37 0 2.37-.618 3.01-1.852v-5.824c-.65-1.196-1.65-1.793-2.99-1.793-1.06 0-1.89.41-2.49 1.23-.59.821-.89 2.035-.89 3.645zm19.74 4.945c-.85.992-2.08 1.488-3.72 1.488-1.35 0-2.38-.39-3.09-1.172-.7-.789-1.06-1.953-1.07-3.492v-8.25h2.17v8.192c0 1.922.78 2.883 2.34 2.883 1.66 0 2.76-.618 3.31-1.852v-9.223h2.17V650h-2.07l-.04-1.254zm7.77 1.254h-2.17v-18h2.17v18zm8.74.234c-1.72 0-3.12-.562-4.2-1.687-1.07-1.133-1.61-2.645-1.61-4.535v-.399c0-1.258.24-2.379.71-3.363.49-.992 1.16-1.766 2.02-2.32.86-.563 1.8-.844 2.81-.844 1.65 0 2.93.543 3.84 1.629.92 1.086 1.38 2.64 1.38 4.664v.902h-8.59c.03 1.25.39 2.262 1.09 3.035.7.766 1.59 1.149 2.67 1.149.76 0 1.41-.156 1.94-.469.53-.312 1-.726 1.4-1.242l1.32 1.031c-1.06 1.633-2.66 2.449-4.78 2.449zm-.27-11.367c-.87 0-1.61.321-2.2.961-.6.633-.96 1.524-1.1 2.672h6.35v-.164c-.07-1.102-.36-1.953-.89-2.555-.53-.609-1.25-.914-2.16-.914zM1720.3 650v-17.062h4.81c1.49 0 2.8.328 3.94.984 1.14.656 2.02 1.59 2.64 2.801.62 1.211.94 2.601.95 4.172v1.089c0 1.61-.32 3.02-.94 4.231-.62 1.211-1.5 2.14-2.66 2.789-1.15.648-2.49.98-4.02.996h-4.72zm2.25-15.211v13.371h2.36c1.74 0 3.09-.539 4.05-1.617.97-1.078 1.45-2.613 1.45-4.605v-.997c0-1.937-.46-3.441-1.37-4.511-.91-1.078-2.2-1.625-3.87-1.641h-2.62zM1743.54 650c-.13-.25-.23-.695-.31-1.336-1.01 1.047-2.21 1.57-3.61 1.57-1.25 0-2.28-.351-3.08-1.054-.8-.711-1.2-1.61-1.2-2.696 0-1.32.5-2.343 1.5-3.07 1.01-.734 2.43-1.102 4.25-1.102h2.11v-.996c0-.757-.23-1.359-.68-1.804-.46-.453-1.12-.68-2.01-.68-.77 0-1.42.195-1.94.586-.53.391-.79.863-.79 1.418h-2.18c0-.633.22-1.242.67-1.828.45-.594 1.06-1.063 1.83-1.406.77-.344 1.62-.516 2.54-.516 1.46 0 2.61.367 3.43 1.102.83.726 1.26 1.73 1.29 3.011v5.836c0 1.164.15 2.09.45 2.777V650h-2.27zm-3.6-1.652c.68 0 1.32-.176 1.93-.528.61-.351 1.05-.808 1.33-1.371v-2.601h-1.7c-2.66 0-3.99.777-3.99 2.332 0 .679.23 1.211.68 1.593.46.383 1.04.575 1.75.575zm11.76-14.098v3.07h2.37v1.676h-2.37v7.863c0 .508.11.891.32 1.149.21.25.57.375 1.08.375.25 0 .59-.047 1.03-.141V650c-.57.156-1.13.234-1.66.234-.97 0-1.7-.293-2.2-.879-.49-.585-.73-1.417-.73-2.496v-7.863h-2.31v-1.676h2.31v-3.07h2.16zm12.74 15.75c-.12-.25-.22-.695-.3-1.336-1.01 1.047-2.21 1.57-3.61 1.57-1.25 0-2.28-.351-3.08-1.054-.8-.711-1.2-1.61-1.2-2.696 0-1.32.5-2.343 1.5-3.07 1.01-.734 2.42-1.102 4.24-1.102h2.11v-.996c0-.757-.22-1.359-.68-1.804-.45-.453-1.12-.68-2-.68-.77 0-1.42.195-1.95.586-.52.391-.78.863-.78 1.418h-2.18c0-.633.22-1.242.67-1.828.45-.594 1.06-1.063 1.82-1.406a6.249 6.249 0 012.55-.516c1.46 0 2.6.367 3.43 1.102.83.726 1.26 1.73 1.29 3.011v5.836c0 1.164.15 2.09.45 2.777V650h-2.28zm-3.6-1.652c.68 0 1.33-.176 1.94-.528.61-.351 1.05-.808 1.32-1.371v-2.601h-1.7c-2.65 0-3.98.777-3.98 2.332 0 .679.23 1.211.68 1.593.45.383 1.03.575 1.74.575z" fill="#fff"/><rect x="353" y="490" width="265" height="40" rx="20" fill="#000"/><path d="M396.61 501.938l5.578 13.921 5.578-13.921h2.918V519h-2.25v-6.645l.211-7.171L403.044 519h-1.723l-5.59-13.781.223 7.136V519h-2.25v-17.062h2.906zm17.133 10.605c0-1.242.242-2.359.727-3.352.492-.992 1.171-1.757 2.039-2.296.875-.54 1.871-.809 2.988-.809 1.727 0 3.121.598 4.184 1.793 1.07 1.195 1.605 2.785 1.605 4.769v.153c0 1.234-.238 2.344-.715 3.328-.469.976-1.144 1.738-2.027 2.285-.875.547-1.883.82-3.024.82-1.718 0-3.113-.597-4.183-1.793-1.063-1.195-1.594-2.777-1.594-4.746v-.152zm2.18.258c0 1.406.324 2.535.972 3.387.657.851 1.532 1.277 2.625 1.277 1.102 0 1.977-.43 2.625-1.289.649-.867.973-2.078.973-3.633 0-1.391-.332-2.516-.996-3.375-.656-.867-1.531-1.301-2.625-1.301-1.07 0-1.934.426-2.59 1.278-.656.851-.984 2.07-.984 3.656zm11.554-.246c0-1.946.461-3.508 1.383-4.688.922-1.187 2.129-1.781 3.621-1.781 1.485 0 2.66.508 3.528 1.523V501h2.168v18h-1.993l-.105-1.359c-.867 1.062-2.074 1.593-3.621 1.593-1.469 0-2.668-.601-3.598-1.804-.922-1.203-1.383-2.774-1.383-4.711v-.164zm2.168.246c0 1.437.297 2.562.891 3.375.594.812 1.414 1.219 2.461 1.219 1.375 0 2.379-.618 3.012-1.852v-5.824c-.649-1.196-1.645-1.793-2.989-1.793-1.062 0-1.89.41-2.484 1.23-.594.821-.891 2.035-.891 3.645zm19.735 4.945c-.844.992-2.082 1.488-3.715 1.488-1.352 0-2.383-.39-3.094-1.172-.703-.789-1.058-1.953-1.066-3.492v-8.25h2.168v8.192c0 1.922.781 2.883 2.343 2.883 1.657 0 2.758-.618 3.305-1.852v-9.223h2.168V519h-2.062l-.047-1.254zm7.769 1.254h-2.168v-18h2.168v18zm8.742.234c-1.718 0-3.117-.562-4.195-1.687-1.078-1.133-1.617-2.645-1.617-4.535v-.399c0-1.258.238-2.379.715-3.363.484-.992 1.156-1.766 2.015-2.32a5.07 5.07 0 012.813-.844c1.648 0 2.93.543 3.844 1.629.914 1.086 1.371 2.64 1.371 4.664v.902h-8.59c.031 1.25.394 2.262 1.09 3.035.703.766 1.594 1.149 2.672 1.149.765 0 1.414-.156 1.945-.469a4.886 4.886 0 001.395-1.242l1.324 1.031c-1.063 1.633-2.657 2.449-4.782 2.449zm-.269-11.367c-.875 0-1.609.321-2.203.961-.594.633-.961 1.524-1.102 2.672h6.352v-.164c-.063-1.102-.36-1.953-.891-2.555-.531-.609-1.25-.914-2.156-.914zm16.934-5.929l5.578 13.921 5.578-13.921h2.918V519h-2.25v-6.645l.211-7.171L488.989 519h-1.723l-5.589-13.781.222 7.136V519h-2.25v-17.062h2.907zm22.968 17.296c-1.718 0-3.117-.562-4.195-1.687-1.078-1.133-1.617-2.645-1.617-4.535v-.399c0-1.258.238-2.379.715-3.363.484-.992 1.156-1.766 2.015-2.32a5.068 5.068 0 012.813-.844c1.648 0 2.929.543 3.844 1.629.914 1.086 1.371 2.64 1.371 4.664v.902h-8.59c.031 1.25.394 2.262 1.09 3.035.703.766 1.593 1.149 2.671 1.149.766 0 1.415-.156 1.946-.469a4.87 4.87 0 001.394-1.242l1.325 1.031c-1.063 1.633-2.657 2.449-4.782 2.449zm-.269-11.367c-.875 0-1.61.321-2.203.961-.594.633-.961 1.524-1.102 2.672h6.352v-.164c-.063-1.102-.36-1.953-.891-2.555-.531-.609-1.25-.914-2.156-.914zm10.676-4.617v3.07h2.367v1.676h-2.367v7.863c0 .508.105.891.316 1.149.211.25.57.375 1.078.375.25 0 .594-.047 1.031-.141V519a6.293 6.293 0 01-1.664.234c-.968 0-1.699-.293-2.191-.879-.492-.585-.738-1.417-.738-2.496v-7.863h-2.309v-1.676h2.309v-3.07h2.168zM528.669 519c-.125-.25-.227-.695-.305-1.336-1.008 1.047-2.211 1.57-3.609 1.57-1.25 0-2.278-.351-3.082-1.054-.797-.711-1.196-1.61-1.196-2.696 0-1.32.5-2.343 1.5-3.07 1.008-.734 2.422-1.102 4.243-1.102h2.109v-.996c0-.757-.227-1.359-.68-1.804-.453-.453-1.121-.68-2.004-.68-.773 0-1.421.195-1.945.586-.523.391-.785.863-.785 1.418h-2.18c0-.633.223-1.242.668-1.828.453-.594 1.063-1.063 1.828-1.406.774-.344 1.621-.516 2.543-.516 1.461 0 2.606.367 3.434 1.102.828.726 1.258 1.73 1.289 3.011v5.836c0 1.164.148 2.09.445 2.777V519h-2.273zm-3.598-1.652c.68 0 1.324-.176 1.934-.528.609-.351 1.051-.808 1.324-1.371v-2.601h-1.699c-2.656 0-3.985.777-3.985 2.332 0 .679.227 1.211.68 1.593.453.383 1.035.575 1.746.575zm8.297-4.793c0-1.946.461-3.508 1.383-4.688.922-1.187 2.129-1.781 3.621-1.781 1.484 0 2.66.508 3.527 1.523V501h2.168v18h-1.992l-.105-1.359c-.868 1.062-2.075 1.593-3.621 1.593-1.469 0-2.668-.601-3.598-1.804-.922-1.203-1.383-2.774-1.383-4.711v-.164zm2.168.246c0 1.437.297 2.562.891 3.375.593.812 1.414 1.219 2.461 1.219 1.375 0 2.378-.618 3.011-1.852v-5.824c-.648-1.196-1.644-1.793-2.988-1.793-1.062 0-1.891.41-2.484 1.23-.594.821-.891 2.035-.891 3.645zM555.27 519c-.125-.25-.226-.695-.304-1.336-1.008 1.047-2.211 1.57-3.61 1.57-1.25 0-2.277-.351-3.082-1.054-.797-.711-1.195-1.61-1.195-2.696 0-1.32.5-2.343 1.5-3.07 1.008-.734 2.422-1.102 4.242-1.102h2.11v-.996c0-.757-.227-1.359-.68-1.804-.453-.453-1.121-.68-2.004-.68-.773 0-1.422.195-1.945.586-.524.391-.786.863-.786 1.418h-2.179c0-.633.222-1.242.668-1.828.453-.594 1.062-1.063 1.828-1.406.773-.344 1.621-.516 2.543-.516 1.461 0 2.605.367 3.433 1.102.829.726 1.258 1.73 1.29 3.011v5.836c0 1.164.148 2.09.445 2.777V519h-2.274zm-3.597-1.652c.679 0 1.324-.176 1.933-.528.61-.351 1.051-.808 1.325-1.371v-2.601h-1.7c-2.656 0-3.984.777-3.984 2.332 0 .679.227 1.211.68 1.593.453.383 1.035.575 1.746.575zm11.765-14.098v3.07h2.368v1.676h-2.368v7.863c0 .508.106.891.317 1.149.211.25.57.375 1.078.375.25 0 .594-.047 1.031-.141V519a6.293 6.293 0 01-1.664.234c-.969 0-1.699-.293-2.191-.879-.493-.585-.739-1.417-.739-2.496v-7.863h-2.308v-1.676h2.308v-3.07h2.168zM576.177 519c-.125-.25-.227-.695-.305-1.336-1.008 1.047-2.211 1.57-3.609 1.57-1.25 0-2.278-.351-3.082-1.054-.797-.711-1.196-1.61-1.196-2.696 0-1.32.5-2.343 1.5-3.07 1.008-.734 2.422-1.102 4.242-1.102h2.11v-.996c0-.757-.227-1.359-.68-1.804-.453-.453-1.121-.68-2.004-.68-.773 0-1.422.195-1.945.586-.524.391-.785.863-.785 1.418h-2.18c0-.633.223-1.242.668-1.828.453-.594 1.063-1.063 1.828-1.406.774-.344 1.621-.516 2.543-.516 1.461 0 2.606.367 3.434 1.102.828.726 1.258 1.73 1.289 3.011v5.836c0 1.164.148 2.09.445 2.777V519h-2.273zm-3.598-1.652c.68 0 1.324-.176 1.934-.528.609-.351 1.05-.808 1.324-1.371v-2.601h-1.699c-2.657 0-3.985.777-3.985 2.332 0 .679.227 1.211.68 1.593.453.383 1.035.575 1.746.575z" fill="#fff"/><rect x="362" y="904" width="260" height="40" rx="20" fill="#000"/><path d="M400.949 927.621l.329 2.25.48-2.027 3.375-11.906h1.898l3.293 11.906.469 2.062.363-2.297 2.649-11.671h2.262L411.93 933h-2.051l-3.515-12.434-.27-1.3-.27 1.3L402.18 933h-2.051l-4.125-17.062h2.25l2.695 11.683zm22.172 5.613c-1.718 0-3.117-.562-4.195-1.687-1.078-1.133-1.617-2.645-1.617-4.535v-.399c0-1.258.238-2.379.715-3.363.484-.992 1.156-1.766 2.015-2.32a5.068 5.068 0 012.813-.844c1.648 0 2.929.543 3.844 1.629.914 1.086 1.371 2.64 1.371 4.664v.902h-8.59c.031 1.25.394 2.262 1.09 3.035.703.766 1.593 1.149 2.672 1.149.765 0 1.414-.156 1.945-.469a4.87 4.87 0 001.394-1.242l1.325 1.031c-1.063 1.633-2.657 2.449-4.782 2.449zm-.269-11.367c-.875 0-1.61.321-2.203.961-.594.633-.961 1.524-1.102 2.672h6.352v-.164c-.063-1.102-.36-1.953-.891-2.555-.531-.609-1.25-.914-2.156-.914zm18.469 4.934c0 1.937-.446 3.496-1.336 4.676-.891 1.171-2.086 1.757-3.586 1.757-1.602 0-2.84-.566-3.715-1.699l-.106 1.465h-1.992v-18h2.168v6.715c.875-1.086 2.082-1.629 3.621-1.629 1.539 0 2.746.582 3.621 1.746.883 1.164 1.325 2.758 1.325 4.781v.188zm-2.168-.246c0-1.477-.286-2.617-.856-3.422-.57-.805-1.391-1.207-2.461-1.207-1.43 0-2.457.664-3.082 1.992v5.484c.664 1.328 1.699 1.993 3.106 1.993 1.039 0 1.847-.403 2.425-1.207.579-.805.868-2.016.868-3.633zm12.293 3.082c0-.586-.223-1.039-.668-1.36-.438-.328-1.207-.609-2.309-.843-1.094-.235-1.965-.516-2.613-.844-.641-.328-1.117-.719-1.43-1.172-.305-.453-.457-.992-.457-1.617 0-1.039.437-1.918 1.312-2.637.883-.719 2.008-1.078 3.375-1.078 1.438 0 2.602.371 3.493 1.113.898.742 1.347 1.692 1.347 2.848h-2.179c0-.594-.254-1.106-.762-1.535-.5-.43-1.133-.645-1.899-.645-.789 0-1.406.172-1.851.516-.445.344-.668.793-.668 1.347 0 .524.207.918.621 1.184.414.266 1.16.52 2.238.762 1.086.242 1.965.531 2.637.867.672.336 1.168.742 1.488 1.219.328.468.493 1.043.493 1.722 0 1.133-.454 2.043-1.36 2.731-.906.68-2.082 1.019-3.527 1.019-1.016 0-1.914-.179-2.696-.539-.781-.359-1.394-.859-1.839-1.5a3.673 3.673 0 01-.657-2.097h2.168c.039.726.328 1.304.868 1.734.546.422 1.265.633 2.156.633.82 0 1.476-.164 1.969-.492.5-.336.75-.782.75-1.336zm7.347 3.363h-2.168v-12.68h2.168V933zm-2.344-16.043c0-.352.106-.648.317-.891.219-.242.539-.363.961-.363.422 0 .742.121.961.363.218.243.328.539.328.891s-.11.645-.328.879c-.219.234-.539.352-.961.352-.422 0-.742-.118-.961-.352-.211-.234-.317-.527-.317-.879zm8.766.293v3.07h2.367v1.676h-2.367v7.863c0 .508.106.891.316 1.149.211.25.571.375 1.079.375.25 0 .593-.047 1.031-.141V933a6.293 6.293 0 01-1.664.234c-.969 0-1.699-.293-2.192-.879-.492-.585-.738-1.417-.738-2.496v-7.863h-2.308v-1.676h2.308v-3.07h2.168zm10.172 15.984c-1.719 0-3.117-.562-4.195-1.687-1.078-1.133-1.618-2.645-1.618-4.535v-.399c0-1.258.239-2.379.715-3.363.485-.992 1.157-1.766 2.016-2.32a5.067 5.067 0 012.812-.844c1.649 0 2.93.543 3.844 1.629.914 1.086 1.371 2.64 1.371 4.664v.902h-8.59c.032 1.25.395 2.262 1.09 3.035.703.766 1.594 1.149 2.672 1.149.766 0 1.414-.156 1.945-.469a4.86 4.86 0 001.395-1.242l1.324 1.031c-1.062 1.633-2.656 2.449-4.781 2.449zm-.27-11.367c-.875 0-1.609.321-2.203.961-.593.633-.961 1.524-1.101 2.672h6.351v-.164c-.062-1.102-.359-1.953-.89-2.555-.532-.609-1.25-.914-2.157-.914zm23.438 3.598h-7.16V933h-2.25v-17.062h10.57v1.851h-8.32v5.836h7.16v1.84zm9.34-3.199a6.467 6.467 0 00-1.067-.082c-1.422 0-2.386.605-2.894 1.816v9h-2.168v-12.68h2.109l.035 1.465c.711-1.133 1.719-1.699 3.024-1.699.422 0 .742.055.961.164v2.016zm1.195 4.277c0-1.242.242-2.359.727-3.352.492-.992 1.172-1.757 2.039-2.296.875-.54 1.871-.809 2.988-.809 1.727 0 3.121.598 4.184 1.793 1.07 1.195 1.605 2.785 1.605 4.769v.153c0 1.234-.238 2.344-.715 3.328-.469.976-1.144 1.738-2.027 2.285-.875.547-1.883.82-3.024.82-1.718 0-3.113-.597-4.183-1.793-1.063-1.195-1.594-2.777-1.594-4.746v-.152zm2.18.258c0 1.406.324 2.535.972 3.387.657.851 1.532 1.277 2.625 1.277 1.102 0 1.977-.43 2.625-1.289.649-.867.973-2.078.973-3.633 0-1.391-.332-2.516-.996-3.375-.656-.867-1.531-1.301-2.625-1.301-1.07 0-1.934.426-2.59 1.278-.656.851-.984 2.07-.984 3.656zm14.133-6.481l.07 1.594c.969-1.219 2.234-1.828 3.797-1.828 2.679 0 4.031 1.512 4.054 4.535V933h-2.168v-8.391c-.007-.914-.218-1.589-.632-2.027-.407-.437-1.043-.656-1.91-.656-.704 0-1.321.187-1.852.562a3.82 3.82 0 00-1.242 1.477V933h-2.168v-12.68h2.051zm14.132-3.07v3.07h2.368v1.676h-2.368v7.863c0 .508.106.891.317 1.149.211.25.57.375 1.078.375.25 0 .594-.047 1.031-.141V933a6.293 6.293 0 01-1.664.234c-.969 0-1.699-.293-2.191-.879-.492-.585-.739-1.417-.739-2.496v-7.863h-2.308v-1.676h2.308v-3.07h2.168zm20.848 7.863h-7.394v6.047h8.589V933h-10.839v-17.062h10.722v1.851h-8.472v5.484h7.394v1.84zm5.707-4.793l.07 1.594c.969-1.219 2.235-1.828 3.797-1.828 2.68 0 4.032 1.512 4.055 4.535V933h-2.168v-8.391c-.008-.914-.219-1.589-.633-2.027-.406-.437-1.043-.656-1.91-.656-.703 0-1.32.187-1.852.562a3.82 3.82 0 00-1.242 1.477V933h-2.168v-12.68h2.051zm10.664 6.235c0-1.946.461-3.508 1.383-4.688.922-1.187 2.129-1.781 3.621-1.781 1.484 0 2.66.508 3.527 1.523V915h2.168v18h-1.992l-.105-1.359c-.867 1.062-2.075 1.593-3.621 1.593-1.469 0-2.668-.601-3.598-1.804-.922-1.203-1.383-2.774-1.383-4.711v-.164zm2.168.246c0 1.437.297 2.562.891 3.375.593.812 1.414 1.219 2.461 1.219 1.375 0 2.379-.618 3.011-1.852v-5.824c-.648-1.196-1.644-1.793-2.988-1.793-1.062 0-1.891.41-2.484 1.23-.594.821-.891 2.035-.891 3.645z" fill="#fff"/></svg>
