<svg width="1600" height="1100" fill="none" xmlns="http://www.w3.org/2000/svg"><path fill="#fff" d="M0 0h1600v1100H0z"/><path fill="#fff" d="M50 50h1500v1000H50z"/><path d="M601.333 302H721M362 857h10c16.569 0 30-13.431 30-30v-10M681 302H432c-16.569 0-30 13.431-30 30v486M968 867h387c33.14 0 60-26.863 60-60V701" stroke="#000" stroke-width="2"/><path d="M1391 724l24-24 24 24M1023 302h332c33.14 0 60 26.863 60 60v114" stroke="#000" stroke-width="2"/><path d="M1391 453l24 24 24-24M1023 144h325M346 181h374M817 589h428M1222 565l24 24-24 24M969 990h316M1262 966l24 24-24 24M362 953h319M658 929l24 24-24 24" stroke="#000" stroke-width="2"/><path fill="#24292E" d="M473 499h343v180H473z"/><path d="M541.932 598.893c-.868 1.242-2.08 2.173-3.639 2.795-1.547.609-3.352.914-5.414.914-2.086 0-3.938-.487-5.555-1.459-1.617-.985-2.871-2.379-3.762-4.184-.878-1.805-1.33-3.897-1.353-6.275v-2.233c0-3.855.896-6.844 2.689-8.965 1.805-2.121 4.336-3.181 7.594-3.181 2.672 0 4.822.685 6.451 2.056 1.629 1.36 2.625 3.293 2.989 5.801h-3.375c-.633-3.387-2.649-5.08-6.047-5.08-2.262 0-3.979.797-5.151 2.391-1.16 1.582-1.746 3.879-1.757 6.89v2.092c0 2.871.656 5.156 1.968 6.856 1.313 1.687 3.088 2.531 5.326 2.531 1.266 0 2.374-.141 3.323-.422.949-.281 1.734-.756 2.355-1.424v-5.748h-5.924v-2.742h9.282v9.387zm8.666 3.357h-3.252v-19.02h3.252v19.02zm-3.516-24.064c0-.528.158-.973.475-1.336.328-.364.808-.545 1.441-.545s1.113.181 1.441.545c.329.363.493.808.493 1.336 0 .527-.164.966-.493 1.318-.328.351-.808.527-1.441.527s-1.113-.176-1.441-.527c-.317-.352-.475-.791-.475-1.318zm13.148.439v4.605h3.551v2.514h-3.551v11.795c0 .762.159 1.336.475 1.723.316.375.856.562 1.617.562.375 0 .891-.07 1.547-.211v2.637a9.439 9.439 0 01-2.496.352c-1.453 0-2.549-.44-3.287-1.319s-1.107-2.127-1.107-3.744v-11.795h-3.463v-2.514h3.463v-4.605h3.251zm27.545 23.625h-3.392v-11.83H571.48v11.83h-3.375v-25.594h3.375v11.004h12.903v-11.004h3.392v25.594zm17.227-1.881c-1.266 1.488-3.123 2.233-5.572 2.233-2.028 0-3.575-.586-4.641-1.758-1.055-1.184-1.588-2.93-1.6-5.239V583.23h3.252v12.288c0 2.882 1.172 4.324 3.516 4.324 2.484 0 4.137-.926 4.957-2.778V583.23h3.252v19.02h-3.094l-.07-1.881zm24.223-7.418c0 2.906-.668 5.244-2.004 7.014-1.336 1.758-3.129 2.637-5.379 2.637-2.403 0-4.26-.85-5.572-2.549l-.159 2.197h-2.988v-27h3.252v10.072c1.313-1.629 3.123-2.443 5.432-2.443 2.308 0 4.119.873 5.431 2.619 1.324 1.746 1.987 4.137 1.987 7.172v.281zm-3.252-.369c0-2.215-.428-3.926-1.284-5.133-.855-1.207-2.085-1.81-3.691-1.81-2.144 0-3.686.996-4.623 2.988v8.227c.996 1.992 2.549 2.988 4.658 2.988 1.559 0 2.772-.604 3.639-1.811.867-1.207 1.301-3.023 1.301-5.449zm25.611-4.061h7.137v3.077h-7.137v8.086h-3.27v-8.086h-7.136v-3.077h7.136v-7.47h3.27v7.47zm29.021 9.247l7.313-21.112h3.691l-9.492 25.594h-2.988l-9.475-25.594h3.674l7.277 21.112zm21.059 4.834c-2.578 0-4.676-.844-6.293-2.532-1.617-1.699-2.426-3.966-2.426-6.802v-.598c0-1.887.358-3.568 1.073-5.045.726-1.488 1.734-2.648 3.023-3.48 1.301-.844 2.707-1.266 4.219-1.266 2.472 0 4.394.814 5.765 2.443 1.371 1.629 2.057 3.961 2.057 6.996v1.354h-12.885c.047 1.875.592 3.392 1.635 4.553 1.055 1.148 2.391 1.722 4.008 1.722 1.148 0 2.121-.234 2.918-.703a7.345 7.345 0 002.092-1.863l1.986 1.547c-1.594 2.449-3.984 3.674-7.172 3.674zm-.404-17.051c-1.313 0-2.414.48-3.305 1.441-.891.949-1.441 2.285-1.652 4.008h9.527v-.246c-.094-1.652-.539-2.93-1.336-3.832-.797-.914-1.875-1.371-3.234-1.371zm20.795.597a9.763 9.763 0 00-1.6-.123c-2.133 0-3.58.909-4.342 2.725v13.5h-3.252v-19.02h3.164l.053 2.198c1.067-1.699 2.578-2.549 4.535-2.549.633 0 1.114.082 1.442.246v3.023zm10.283 13.799c1.16 0 2.174-.351 3.041-1.054.867-.704 1.348-1.582 1.441-2.637h3.076c-.058 1.09-.433 2.127-1.125 3.111-.691.985-1.617 1.77-2.777 2.356a7.932 7.932 0 01-3.656.879c-2.59 0-4.652-.862-6.188-2.584-1.523-1.735-2.285-4.102-2.285-7.102v-.545c0-1.851.34-3.498 1.02-4.939.679-1.442 1.652-2.561 2.918-3.358 1.277-.797 2.783-1.195 4.517-1.195 2.133 0 3.903.639 5.309 1.916 1.418 1.277 2.174 2.935 2.267 4.975h-3.076c-.093-1.231-.562-2.239-1.406-3.024-.832-.797-1.863-1.195-3.094-1.195-1.652 0-2.935.597-3.849 1.793-.903 1.183-1.354 2.9-1.354 5.15v.615c0 2.192.451 3.879 1.354 5.063.902 1.183 2.191 1.775 3.867 1.775zm19.107 2.655c-2.578 0-4.675-.844-6.293-2.532-1.617-1.699-2.425-3.966-2.425-6.802v-.598c0-1.887.357-3.568 1.072-5.045.726-1.488 1.734-2.648 3.023-3.48 1.301-.844 2.707-1.266 4.219-1.266 2.473 0 4.395.814 5.766 2.443 1.371 1.629 2.056 3.961 2.056 6.996v1.354h-12.884c.046 1.875.591 3.392 1.634 4.553 1.055 1.148 2.391 1.722 4.008 1.722 1.149 0 2.121-.234 2.918-.703a7.345 7.345 0 002.092-1.863l1.986 1.547c-1.594 2.449-3.984 3.674-7.172 3.674zm-.404-17.051c-1.312 0-2.414.48-3.305 1.441-.89.949-1.441 2.285-1.652 4.008h9.527v-.246c-.093-1.652-.539-2.93-1.336-3.832-.796-.914-1.875-1.371-3.234-1.371zm15.135 16.699h-3.252v-27h3.252v27z" fill="#fff"/><path fill="#000" d="M682 786h287v264H682z"/><path d="M771.869 977.411c0-2.648.352-5.191 1.055-7.629.715-2.437 1.775-4.652 3.181-6.644 1.407-1.992 2.866-3.399 4.377-4.219l.668 2.145c-1.711 1.312-3.117 3.316-4.218 6.011-1.09 2.696-1.688 5.713-1.793 9.053l-.018 1.494c0 4.524.826 8.449 2.479 11.778.996 1.992 2.179 3.55 3.55 4.675l-.668 1.987c-1.558-.867-3.046-2.321-4.464-4.36-2.766-3.984-4.149-8.748-4.149-14.291zm28.494 1.09c0 2.895-.662 5.227-1.986 6.996-1.324 1.77-3.117 2.655-5.379 2.655-2.309 0-4.125-.733-5.449-2.198v9.158h-3.252V968.78h2.971l.158 2.11c1.324-1.641 3.164-2.461 5.519-2.461 2.285 0 4.09.861 5.414 2.584 1.336 1.723 2.004 4.119 2.004 7.189v.299zm-3.252-.369c0-2.145-.457-3.838-1.371-5.08-.914-1.242-2.168-1.863-3.761-1.863-1.969 0-3.446.873-4.43 2.619v9.088c.972 1.734 2.461 2.601 4.465 2.601 1.558 0 2.795-.615 3.709-1.845.925-1.243 1.388-3.082 1.388-5.52zm16.594-6.434a9.745 9.745 0 00-1.6-.123c-2.132 0-3.58.909-4.341 2.725v13.5h-3.252v-19.02h3.164l.053 2.198c1.066-1.699 2.578-2.549 4.535-2.549.632 0 1.113.082 1.441.246v3.023zm1.793 6.416c0-1.863.363-3.539 1.09-5.027.738-1.488 1.758-2.637 3.058-3.445 1.313-.809 2.807-1.213 4.483-1.213 2.59 0 4.682.896 6.275 2.689 1.606 1.793 2.408 4.178 2.408 7.155v.228c0 1.852-.357 3.516-1.072 4.992-.703 1.465-1.717 2.608-3.041 3.428-1.312.82-2.824 1.231-4.535 1.231-2.578 0-4.67-.897-6.275-2.69-1.594-1.793-2.391-4.166-2.391-7.119v-.229zm3.27.387c0 2.11.486 3.803 1.459 5.08.984 1.278 2.296 1.916 3.937 1.916 1.652 0 2.965-.644 3.938-1.933.972-1.301 1.459-3.118 1.459-5.45 0-2.085-.499-3.773-1.495-5.062-.984-1.301-2.296-1.951-3.937-1.951-1.606 0-2.9.638-3.885 1.916-.984 1.277-1.476 3.105-1.476 5.484zm24.117-2.777l4.219-6.944h3.796l-6.222 9.405 6.416 9.615h-3.762l-4.394-7.119-4.395 7.119h-3.779l6.416-9.615-6.223-9.405h3.762l4.166 6.944zm17.701 7.312l4.43-14.256h3.48l-7.646 21.956c-1.184 3.164-3.065 4.746-5.643 4.746l-.615-.053-1.213-.229v-2.636l.879.07c1.101 0 1.957-.223 2.566-.668.621-.445 1.131-1.26 1.53-2.443l.72-1.934-6.785-18.809h3.551l4.746 14.256zm18.334-5.449c0 2.613-.346 5.121-1.037 7.524a21.964 21.964 0 01-3.147 6.626c-1.406 2.028-2.882 3.469-4.429 4.325l-.686-1.987c1.805-1.382 3.252-3.527 4.342-6.433 1.101-2.918 1.664-6.153 1.687-9.703v-.563c0-2.461-.257-4.746-.773-6.855-.516-2.121-1.236-4.02-2.162-5.696-.914-1.675-1.945-2.982-3.094-3.92l.686-1.986c1.547.856 3.017 2.285 4.412 4.289a21.983 21.983 0 013.146 6.627c.703 2.414 1.055 4.998 1.055 7.752zM825.57 877.03l12.27-19.618h7.945l-16.172 25.383 16.559 25.805h-8.016l-12.586-19.969-12.656 19.969h-7.98l16.593-25.805-16.207-25.383h7.91l12.34 19.618z" fill="#fff"/><path fill="#E10098" d="M720 50h303v332H720z"/><path d="M842.563 231.188h-28.594L807.547 249h-9.281l26.062-68.25h7.875l26.11 68.25h-9.235l-6.515-17.812zm-25.875-7.407h23.203l-11.625-31.922-11.578 31.922zm59.812-1.5V249h-9v-68.25h25.172c7.469 0 13.312 1.906 17.531 5.719 4.25 3.812 6.375 8.859 6.375 15.14 0 6.625-2.078 11.735-6.234 15.329-4.125 3.562-10.047 5.343-17.766 5.343H876.5zm0-7.359h16.172c4.812 0 8.5-1.125 11.062-3.375 2.563-2.281 3.844-5.563 3.844-9.844 0-4.062-1.281-7.312-3.844-9.75-2.562-2.437-6.078-3.703-10.546-3.797H876.5v26.766zM937.719 249h-9v-68.25h9V249z" fill="#fff"/><path fill="#fff" stroke="#000" stroke-width="3" d="M51.5 787.5h309v261h-309z"/><path d="M136.135 850.191l11.156 27.844 11.157-27.844h5.835v34.125h-4.5v-13.289l.422-14.344-11.203 27.633h-3.445l-11.18-27.563.446 14.274v13.289h-4.5v-34.125h5.812zm34.266 21.211c0-2.485.484-4.719 1.453-6.703.984-1.985 2.344-3.516 4.078-4.594 1.75-1.078 3.742-1.617 5.976-1.617 3.454 0 6.243 1.195 8.368 3.586 2.14 2.39 3.211 5.57 3.211 9.539v.304c0 2.469-.477 4.688-1.43 6.657-.938 1.953-2.289 3.476-4.055 4.57-1.75 1.094-3.765 1.641-6.047 1.641-3.437 0-6.226-1.196-8.367-3.586-2.125-2.391-3.187-5.555-3.187-9.493v-.304zm4.359.515c0 2.813.648 5.071 1.945 6.774 1.313 1.703 3.063 2.554 5.25 2.554 2.203 0 3.953-.859 5.25-2.578 1.297-1.734 1.946-4.156 1.946-7.265 0-2.782-.664-5.032-1.993-6.75-1.312-1.735-3.062-2.602-5.25-2.602-2.14 0-3.867.852-5.179 2.555-1.313 1.703-1.969 4.14-1.969 7.312zm23.109-.492c0-3.89.922-7.015 2.766-9.375 1.844-2.375 4.258-3.562 7.242-3.562 2.969 0 5.321 1.015 7.055 3.047v-13.219h4.336v36h-3.985l-.21-2.719c-1.735 2.125-4.149 3.188-7.243 3.188-2.937 0-5.336-1.204-7.195-3.61-1.844-2.406-2.766-5.547-2.766-9.422v-.328zm4.336.492c0 2.875.594 5.125 1.782 6.75 1.187 1.625 2.828 2.438 4.921 2.438 2.75 0 4.758-1.235 6.024-3.703v-11.649c-1.297-2.39-3.289-3.586-5.977-3.586-2.125 0-3.781.821-4.968 2.461-1.188 1.641-1.782 4.071-1.782 7.289zm39.469 9.891c-1.687 1.984-4.164 2.977-7.43 2.977-2.703 0-4.765-.782-6.187-2.344-1.406-1.578-2.117-3.906-2.133-6.985v-16.5h4.336v16.383c0 3.844 1.563 5.766 4.688 5.766 3.312 0 5.515-1.235 6.609-3.703v-18.446h4.336v25.36h-4.125l-.094-2.508zm15.539 2.508h-4.336v-36h4.336v36zm17.485.469c-3.438 0-6.235-1.125-8.391-3.375-2.156-2.266-3.234-5.29-3.234-9.071v-.797c0-2.515.476-4.757 1.429-6.726.969-1.985 2.313-3.531 4.031-4.641 1.735-1.125 3.61-1.687 5.625-1.687 3.297 0 5.86 1.086 7.688 3.257 1.828 2.172 2.742 5.282 2.742 9.329v1.804h-17.18c.063 2.5.79 4.524 2.18 6.071 1.406 1.531 3.188 2.296 5.344 2.296 1.531 0 2.828-.312 3.891-.937a9.786 9.786 0 002.789-2.484l2.648 2.062c-2.125 3.266-5.312 4.899-9.562 4.899zm-.54-22.735c-1.75 0-3.218.641-4.406 1.922-1.187 1.266-1.922 3.047-2.203 5.344h12.703v-.328c-.125-2.203-.719-3.907-1.781-5.11-1.063-1.218-2.5-1.828-4.313-1.828zm-165.187 78.266v-34.125h9.633c2.969 0 5.594.656 7.875 1.969 2.281 1.312 4.039 3.179 5.273 5.601 1.25 2.422 1.883 5.203 1.899 8.344v2.18c0 3.218-.625 6.039-1.875 8.46-1.235 2.422-3.008 4.282-5.321 5.579-2.297 1.296-4.976 1.961-8.039 1.992h-9.445zm4.5-30.422v26.742h4.734c3.469 0 6.164-1.078 8.086-3.234 1.938-2.157 2.907-5.227 2.907-9.211v-1.992c0-3.875-.915-6.883-2.743-9.024-1.812-2.156-4.39-3.25-7.734-3.281h-5.25zm41.977 30.422c-.25-.5-.454-1.391-.61-2.672-2.015 2.094-4.422 3.141-7.219 3.141-2.5 0-4.554-.704-6.164-2.11-1.593-1.422-2.39-3.219-2.39-5.39 0-2.641 1-4.688 3-6.141 2.015-1.469 4.843-2.203 8.484-2.203h4.219v-1.992c0-1.516-.453-2.719-1.36-3.61-.906-.906-2.242-1.359-4.007-1.359-1.547 0-2.844.39-3.891 1.172-1.047.781-1.57 1.726-1.57 2.836h-4.36c0-1.266.446-2.485 1.336-3.657.907-1.187 2.125-2.125 3.657-2.812 1.546-.688 3.242-1.031 5.085-1.031 2.922 0 5.211.734 6.868 2.203 1.656 1.453 2.515 3.461 2.578 6.023v11.672c0 2.328.297 4.18.89 5.555v.375h-4.546zm-7.196-3.305c1.36 0 2.649-.351 3.867-1.055 1.219-.703 2.102-1.617 2.649-2.742v-5.203h-3.399c-5.312 0-7.968 1.555-7.968 4.664 0 1.36.453 2.422 1.359 3.188.906.765 2.07 1.148 3.492 1.148zm23.531-28.195v6.14h4.735v3.352h-4.735v15.727c0 1.015.211 1.781.633 2.296.422.5 1.141.75 2.157.75.5 0 1.187-.093 2.062-.281v3.516c-1.141.312-2.25.469-3.328.469-1.938 0-3.399-.586-4.383-1.758-.984-1.172-1.476-2.836-1.476-4.992v-15.727h-4.618v-3.352h4.618v-6.14h4.335zm25.477 31.5c-.25-.5-.453-1.391-.609-2.672-2.016 2.094-4.422 3.141-7.219 3.141-2.5 0-4.555-.704-6.164-2.11-1.594-1.422-2.391-3.219-2.391-5.39 0-2.641 1-4.688 3-6.141 2.016-1.469 4.844-2.203 8.485-2.203h4.218v-1.992c0-1.516-.453-2.719-1.359-3.61-.906-.906-2.242-1.359-4.008-1.359-1.547 0-2.844.39-3.89 1.172-1.047.781-1.571 1.726-1.571 2.836h-4.359c0-1.266.445-2.485 1.336-3.657.906-1.187 2.125-2.125 3.656-2.812 1.547-.688 3.242-1.031 5.086-1.031 2.922 0 5.211.734 6.867 2.203 1.656 1.453 2.516 3.461 2.578 6.023v11.672c0 2.328.297 4.18.891 5.555v.375h-4.547zm-7.195-3.305c1.359 0 2.648-.351 3.867-1.055 1.219-.703 2.101-1.617 2.648-2.742v-5.203h-3.398c-5.313 0-7.969 1.555-7.969 4.664 0 1.36.453 2.422 1.36 3.188.906.765 2.07 1.148 3.492 1.148zm39.117-9.094c0 3.875-.891 6.993-2.672 9.352-1.781 2.344-4.172 3.516-7.172 3.516-3.203 0-5.68-1.133-7.43-3.399l-.21 2.93h-3.985v-36h4.336v13.429c1.75-2.171 4.164-3.257 7.242-3.257 3.078 0 5.492 1.164 7.242 3.492 1.766 2.328 2.649 5.515 2.649 9.562v.375zm-4.336-.492c0-2.953-.57-5.234-1.711-6.844-1.141-1.609-2.781-2.414-4.922-2.414-2.859 0-4.914 1.328-6.164 3.985v10.968c1.328 2.657 3.399 3.985 6.211 3.985 2.078 0 3.695-.805 4.852-2.414 1.156-1.61 1.734-4.031 1.734-7.266zm25.477 12.891c-.25-.5-.454-1.391-.61-2.672-2.015 2.094-4.422 3.141-7.219 3.141-2.5 0-4.554-.704-6.164-2.11-1.593-1.422-2.39-3.219-2.39-5.39 0-2.641 1-4.688 3-6.141 2.015-1.469 4.843-2.203 8.484-2.203h4.219v-1.992c0-1.516-.453-2.719-1.36-3.61-.906-.906-2.242-1.359-4.007-1.359-1.547 0-2.844.39-3.891 1.172-1.047.781-1.57 1.726-1.57 2.836h-4.36c0-1.266.446-2.485 1.336-3.657.907-1.187 2.125-2.125 3.657-2.812 1.546-.688 3.242-1.031 5.085-1.031 2.922 0 5.211.734 6.868 2.203 1.656 1.453 2.515 3.461 2.578 6.023v11.672c0 2.328.297 4.18.89 5.555v.375h-4.546zm-7.196-3.305c1.36 0 2.649-.351 3.867-1.055 1.219-.703 2.102-1.617 2.649-2.742v-5.203h-3.399c-5.312 0-7.968 1.555-7.968 4.664 0 1.36.453 2.422 1.359 3.188.906.765 2.07 1.148 3.492 1.148zm32.414-3.422c0-1.172-.445-2.078-1.336-2.719-.875-.656-2.414-1.218-4.617-1.687-2.187-.469-3.93-1.031-5.226-1.688-1.282-.656-2.235-1.437-2.86-2.343-.609-.907-.914-1.985-.914-3.235 0-2.078.875-3.836 2.625-5.273 1.766-1.438 4.016-2.156 6.75-2.156 2.875 0 5.203.742 6.985 2.226 1.796 1.485 2.695 3.383 2.695 5.696h-4.36c0-1.188-.507-2.211-1.523-3.071-1-.859-2.266-1.289-3.797-1.289-1.578 0-2.812.344-3.703 1.031-.891.688-1.336 1.586-1.336 2.696 0 1.047.414 1.836 1.242 2.367.828.531 2.321 1.039 4.477 1.523 2.172.485 3.93 1.063 5.273 1.735 1.344.672 2.336 1.484 2.977 2.437.656.938.984 2.086.984 3.446 0 2.265-.906 4.085-2.719 5.46-1.812 1.36-4.164 2.04-7.054 2.04-2.031 0-3.828-.36-5.391-1.079-1.562-.718-2.789-1.718-3.68-3-.875-1.296-1.312-2.695-1.312-4.195h4.336c.078 1.453.656 2.609 1.734 3.469 1.094.844 2.532 1.265 4.313 1.265 1.64 0 2.953-.328 3.937-.984 1-.672 1.5-1.562 1.5-2.672zm20.508 7.196c-3.437 0-6.234-1.125-8.391-3.375-2.156-2.266-3.234-5.29-3.234-9.071v-.797c0-2.515.477-4.757 1.43-6.726.969-1.985 2.312-3.531 4.031-4.641 1.734-1.125 3.609-1.687 5.625-1.687 3.297 0 5.859 1.086 7.688 3.257 1.828 2.172 2.742 5.282 2.742 9.329v1.804h-17.18c.063 2.5.789 4.524 2.18 6.071 1.406 1.531 3.187 2.296 5.343 2.296 1.532 0 2.829-.312 3.891-.937a9.773 9.773 0 002.789-2.484l2.649 2.062c-2.125 3.266-5.313 4.899-9.563 4.899zm-.539-22.735c-1.75 0-3.219.641-4.406 1.922-1.188 1.266-1.922 3.047-2.203 5.344h12.703v-.328c-.125-2.203-.719-3.907-1.781-5.11-1.063-1.218-2.5-1.828-4.313-1.828zM73.445 997.92c0-2.06.274-4.038.82-5.934a17.368 17.368 0 012.475-5.168c1.094-1.549 2.229-2.643 3.404-3.281l.52 1.668c-1.33 1.021-2.424 2.58-3.281 4.676-.848 2.096-1.313 4.443-1.395 7.041l-.013 1.162c0 3.516.642 6.576 1.927 9.156.775 1.55 1.696 2.77 2.762 3.64l-.52 1.55c-1.212-.68-2.37-1.81-3.472-3.39-2.151-3.1-3.227-6.81-3.227-11.12zm21.055 2.88h-8.34l-1.873 5.2H81.58l7.602-19.906h2.296L99.094 1006H96.4l-1.9-5.2zm-7.547-2.155h6.768l-3.39-9.311-3.378 9.311zm21.574-5.168a7.544 7.544 0 00-1.244-.096c-1.659 0-2.784.706-3.377 2.119v10.5h-2.529v-14.793h2.461l.041 1.709c.829-1.322 2.005-1.982 3.527-1.982.492 0 .866.063 1.121.191v2.352zm15.682 9.033l2.844-11.303h2.529L125.275 1006h-2.05l-3.596-11.211-3.5 11.211h-2.051l-4.293-14.793h2.516l2.912 11.073 3.445-11.073h2.037l3.514 11.303zm14.096 3.76c-2.006 0-3.637-.65-4.895-1.97-1.258-1.32-1.887-3.08-1.887-5.286v-.465c0-1.468.278-2.776.834-3.924.566-1.158 1.349-2.06 2.352-2.707a5.917 5.917 0 013.281-.984c1.923 0 3.418.633 4.485 1.9 1.066 1.267 1.599 3.081 1.599 5.441v1.053h-10.021c.036 1.462.46 2.642 1.271 3.542.821.89 1.86 1.34 3.117 1.34.894 0 1.65-.18 2.27-.55a5.66 5.66 0 001.627-1.45l1.545 1.21c-1.24 1.9-3.099 2.85-5.578 2.85zm-.315-13.258c-1.021 0-1.877.373-2.57 1.121-.693.738-1.121 1.777-1.285 3.117h7.41v-.191c-.073-1.286-.419-2.279-1.039-2.981-.62-.711-1.458-1.066-2.516-1.066zM156.146 1006c-.145-.29-.264-.81-.355-1.56-1.176 1.22-2.579 1.83-4.211 1.83-1.458 0-2.657-.41-3.596-1.23-.929-.83-1.394-1.87-1.394-3.14 0-1.54.583-2.736 1.75-3.584 1.176-.856 2.825-1.285 4.949-1.285h2.461v-1.162c0-.884-.264-1.586-.793-2.105-.529-.529-1.308-.793-2.338-.793-.902 0-1.659.228-2.269.683-.611.456-.916 1.007-.916 1.655h-2.543c0-.739.259-1.45.779-2.133.529-.693 1.24-1.24 2.133-1.641.902-.401 1.891-.601 2.967-.601 1.704 0 3.039.428 4.005 1.285.967.847 1.468 2.019 1.504 3.513v6.808c0 1.36.173 2.44.52 3.24v.22h-2.653zm-4.197-1.93c.793 0 1.545-.2 2.256-.61.711-.41 1.226-.95 1.545-1.6v-3.038h-1.982c-3.099 0-4.649.907-4.649 2.718 0 .8.264 1.42.793 1.86.529.45 1.208.67 2.037.67zm14.957-1.5l3.664-11.363h2.584L167.85 1006h-1.928l-5.36-14.793h2.584l3.76 11.363zm14.629 3.7c-2.005 0-3.637-.65-4.894-1.97-1.258-1.32-1.887-3.08-1.887-5.286v-.465c0-1.468.278-2.776.834-3.924.565-1.158 1.349-2.06 2.351-2.707a5.92 5.92 0 013.282-.984c1.923 0 3.418.633 4.484 1.9 1.066 1.267 1.6 3.081 1.6 5.441v1.053h-10.022c.037 1.462.46 2.642 1.272 3.542.82.89 1.859 1.34 3.117 1.34.893 0 1.65-.18 2.269-.55.62-.36 1.163-.85 1.627-1.45l1.545 1.21c-1.239 1.9-3.099 2.85-5.578 2.85zm-.314-13.258c-1.021 0-1.878.373-2.571 1.121-.692.738-1.121 1.777-1.285 3.117h7.41v-.191c-.073-1.286-.419-2.279-1.039-2.981-.619-.711-1.458-1.066-2.515-1.066zM197.586 1006v-19.906h6.508c2.16 0 3.782.446 4.867 1.34 1.094.893 1.641 2.214 1.641 3.964 0 .93-.265 1.755-.793 2.475-.529.711-1.249 1.262-2.161 1.654 1.076.301 1.924.875 2.543 1.723.629.839.944 1.841.944 3.01 0 1.78-.579 3.19-1.737 4.21-1.157 1.02-2.793 1.53-4.908 1.53h-6.904zm2.625-9.311v7.161h4.334c1.221 0 2.183-.31 2.885-.94.711-.64 1.066-1.51 1.066-2.62 0-2.402-1.303-3.601-3.91-3.601h-4.375zm0-2.105h3.965c1.148 0 2.064-.287 2.748-.861.693-.575 1.039-1.354 1.039-2.338 0-1.094-.319-1.887-.957-2.379-.638-.501-1.609-.752-2.912-.752h-3.883v6.33zM217.383 1006h-2.529v-21h2.529v21zm3.39-7.533c0-1.449.283-2.753.848-3.91.574-1.158 1.367-2.051 2.379-2.68 1.021-.629 2.183-.943 3.486-.943 2.015 0 3.642.697 4.881 2.091 1.249 1.395 1.873 3.25 1.873 5.565v.178c0 1.442-.278 2.732-.834 3.882-.547 1.14-1.335 2.03-2.365 2.67-1.021.63-2.197.95-3.527.95-2.006 0-3.632-.69-4.881-2.09-1.24-1.39-1.86-3.24-1.86-5.535v-.178zm2.543.301c0 1.642.379 2.962 1.135 3.952.766.99 1.787 1.49 3.063 1.49 1.285 0 2.306-.5 3.062-1.5.757-1.02 1.135-2.43 1.135-4.243 0-1.623-.387-2.935-1.162-3.938-.766-1.011-1.787-1.517-3.063-1.517-1.248 0-2.256.496-3.021 1.49-.766.993-1.149 2.415-1.149 4.266zm20.03 5.442c.902 0 1.69-.27 2.365-.82.674-.55 1.048-1.23 1.121-2.05h2.393c-.046.85-.338 1.65-.875 2.42-.538.76-1.258 1.37-2.161 1.83-.893.46-1.841.68-2.843.68-2.015 0-3.619-.67-4.813-2.01-1.185-1.35-1.777-3.19-1.777-5.52v-.424c0-1.44.264-2.72.793-3.841.528-1.121 1.285-1.992 2.269-2.612.994-.62 2.165-.929 3.514-.929 1.659 0 3.035.496 4.129 1.49 1.103.993 1.691 2.283 1.764 3.869h-2.393c-.073-.957-.437-1.741-1.094-2.352-.647-.619-1.449-.929-2.406-.929-1.285 0-2.283.465-2.994 1.394-.702.921-1.053 2.256-1.053 4.006v.479c0 1.709.351 3.019 1.053 3.939.702.92 1.704 1.38 3.008 1.38zm12.851-5.06l-1.586 1.65v5.2h-2.529v-21h2.529v12.701l1.354-1.627 4.607-4.867h3.076l-5.755 6.18 6.425 8.613h-2.966l-5.155-6.85zm15.723 5.06c.902 0 1.691-.27 2.365-.82.675-.55 1.048-1.23 1.121-2.05h2.393c-.046.85-.337 1.65-.875 2.42-.538.76-1.258 1.37-2.16 1.83-.894.46-1.841.68-2.844.68-2.014 0-3.619-.67-4.813-2.01-1.184-1.35-1.777-3.19-1.777-5.52v-.424c0-1.44.264-2.72.793-3.841s1.285-1.992 2.27-2.612c.993-.62 2.164-.929 3.513-.929 1.659 0 3.035.496 4.129 1.49 1.103.993 1.691 2.283 1.764 3.869h-2.393c-.073-.957-.437-1.741-1.094-2.352-.647-.619-1.449-.929-2.406-.929-1.285 0-2.283.465-2.994 1.394-.702.921-1.053 2.256-1.053 4.006v.479c0 1.709.351 3.019 1.053 3.939.702.92 1.705 1.38 3.008 1.38zm11.252-11.212c1.121-1.376 2.579-2.064 4.375-2.064 3.126 0 4.703 1.763 4.73 5.291V1006h-2.529v-9.789c-.009-1.066-.255-1.855-.738-2.365-.474-.511-1.217-.766-2.229-.766-.82 0-1.54.219-2.16.656a4.455 4.455 0 00-1.449 1.723V1006h-2.529v-21h2.529v7.998zM305.197 1006c-.146-.29-.264-.81-.355-1.56-1.176 1.22-2.58 1.83-4.211 1.83-1.458 0-2.657-.41-3.596-1.23-.93-.83-1.394-1.87-1.394-3.14 0-1.54.583-2.736 1.75-3.584 1.175-.856 2.825-1.285 4.949-1.285h2.461v-1.162c0-.884-.265-1.586-.793-2.105-.529-.529-1.308-.793-2.338-.793-.902 0-1.659.228-2.27.683-.61.456-.916 1.007-.916 1.655h-2.543c0-.739.26-1.45.78-2.133.528-.693 1.239-1.24 2.133-1.641.902-.401 1.891-.601 2.966-.601 1.705 0 3.04.428 4.006 1.285.966.847 1.468 2.019 1.504 3.513v6.808c0 1.36.173 2.44.52 3.24v.22h-2.653zm-4.197-1.93c.793 0 1.545-.2 2.256-.61.711-.41 1.226-.95 1.545-1.6v-3.038h-1.983c-3.099 0-4.648.907-4.648 2.718 0 .8.264 1.42.793 1.86.529.45 1.208.67 2.037.67zm13.043 1.93h-2.529v-14.793h2.529V1006zm-2.734-18.717c0-.41.123-.756.369-1.039.255-.282.629-.424 1.121-.424s.866.142 1.121.424c.255.283.383.629.383 1.039 0 .41-.128.752-.383 1.026-.255.273-.629.41-1.121.41s-.866-.137-1.121-.41c-.246-.274-.369-.616-.369-1.026zm9.187 3.924l.082 1.859c1.13-1.421 2.607-2.132 4.43-2.132 3.126 0 4.703 1.763 4.73 5.291V1006h-2.529v-9.789c-.009-1.066-.255-1.855-.738-2.365-.474-.511-1.217-.766-2.229-.766-.82 0-1.54.219-2.16.656a4.455 4.455 0 00-1.449 1.723V1006h-2.529v-14.793h2.392zm18.895 6.85a21.06 21.06 0 01-.807 5.853 16.976 16.976 0 01-2.447 5.15c-1.094 1.58-2.242 2.7-3.446 3.37l-.533-1.55c1.404-1.07 2.53-2.74 3.377-5 .857-2.27 1.294-4.79 1.313-7.55v-.437c0-1.914-.201-3.692-.602-5.332-.401-1.65-.961-3.127-1.682-4.43-.71-1.304-1.513-2.32-2.406-3.049l.533-1.545c1.204.665 2.347 1.777 3.432 3.336a17.085 17.085 0 012.447 5.154c.547 1.878.821 3.888.821 6.03z" fill="#000"/><path fill="#FDBB2D" d="M1348 50h202v189h-202z"/><path d="M1389.85 156.057c-2.57 0-4.67-.843-6.29-2.531-1.62-1.699-2.42-3.967-2.42-6.803v-.597c0-1.887.35-3.569 1.07-5.045.72-1.488 1.73-2.649 3.02-3.481 1.3-.843 2.71-1.265 4.22-1.265 2.47 0 4.4.814 5.77 2.443 1.37 1.629 2.05 3.961 2.05 6.996v1.354h-12.88c.04 1.875.59 3.392 1.63 4.552 1.06 1.149 2.39 1.723 4.01 1.723 1.15 0 2.12-.234 2.92-.703.8-.469 1.49-1.09 2.09-1.863l1.99 1.547c-1.6 2.449-3.99 3.673-7.18 3.673zm-.4-17.05c-1.31 0-2.41.48-3.3 1.441-.89.949-1.45 2.285-1.66 4.008h9.53v-.246c-.09-1.653-.54-2.93-1.34-3.832-.79-.914-1.87-1.371-3.23-1.371zm10.83 7.031c0-2.965.68-5.32 2.06-7.067 1.37-1.757 3.18-2.636 5.44-2.636 2.32 0 4.14.82 5.44 2.461l.15-2.11h2.98v18.563c0 2.461-.74 4.4-2.2 5.818-1.46 1.418-3.41 2.127-5.87 2.127-1.37 0-2.72-.293-4.03-.879-1.31-.586-2.31-1.388-3-2.408l1.68-1.951c1.4 1.723 3.1 2.584 5.12 2.584 1.58 0 2.81-.445 3.69-1.336.89-.891 1.34-2.145 1.34-3.762v-1.635c-1.31 1.5-3.08 2.25-5.33 2.25-2.23 0-4.03-.896-5.41-2.689-1.38-1.793-2.06-4.236-2.06-7.33zm3.27.369c0 2.145.44 3.832 1.32 5.063.88 1.218 2.11 1.828 3.69 1.828 2.05 0 3.55-.932 4.52-2.795v-8.684c-1-1.816-2.49-2.724-4.49-2.724-1.58 0-2.82.615-3.71 1.845-.89 1.231-1.33 3.053-1.33 5.467zm16.94-.369c0-2.965.69-5.32 2.06-7.067 1.37-1.757 3.19-2.636 5.45-2.636 2.32 0 4.13.82 5.43 2.461l.16-2.11h2.97v18.563c0 2.461-.73 4.4-2.2 5.818-1.45 1.418-3.41 2.127-5.87 2.127-1.37 0-2.71-.293-4.02-.879-1.32-.586-2.32-1.388-3.01-2.408l1.69-1.951c1.39 1.723 3.1 2.584 5.11 2.584 1.59 0 2.82-.445 3.69-1.336.9-.891 1.34-2.145 1.34-3.762v-1.635c-1.3 1.5-3.08 2.25-5.33 2.25-2.22 0-4.03-.896-5.41-2.689-1.37-1.793-2.06-4.236-2.06-7.33zm3.27.369c0 2.145.44 3.832 1.32 5.063.88 1.218 2.11 1.828 3.69 1.828 2.05 0 3.56-.932 4.52-2.795v-8.684c-1-1.816-2.49-2.724-4.48-2.724-1.58 0-2.82.615-3.71 1.845-.89 1.231-1.34 3.053-1.34 5.467zm28.8 4.254c0-.879-.34-1.559-1.01-2.039-.65-.492-1.81-.914-3.46-1.266-1.64-.351-2.95-.773-3.92-1.265-.96-.493-1.67-1.078-2.14-1.758-.46-.68-.69-1.488-.69-2.426 0-1.559.66-2.877 1.97-3.955 1.32-1.078 3.01-1.617 5.06-1.617 2.16 0 3.9.556 5.24 1.67 1.35 1.113 2.02 2.537 2.02 4.271h-3.27c0-.89-.38-1.658-1.14-2.303-.75-.644-1.7-.966-2.85-.966-1.18 0-2.11.257-2.77.773-.67.516-1.01 1.19-1.01 2.022 0 .785.31 1.377.93 1.775.63.398 1.74.779 3.36 1.143 1.63.363 2.95.796 3.96 1.3 1.01.504 1.75 1.114 2.23 1.828.49.704.74 1.565.74 2.584 0 1.7-.68 3.065-2.04 4.096-1.36 1.02-3.12 1.529-5.29 1.529-1.53 0-2.87-.269-4.05-.808-1.17-.539-2.09-1.289-2.75-2.25-.66-.973-.99-2.022-.99-3.147h3.25c.06 1.09.49 1.957 1.3 2.602.82.633 1.9.949 3.24.949 1.23 0 2.21-.246 2.95-.738.75-.504 1.13-1.172 1.13-2.004zm35.75-3.076c-.32 2.707-1.32 4.799-3.01 6.275-1.67 1.465-3.9 2.197-6.69 2.197-3.03 0-5.45-1.084-7.28-3.252-1.82-2.167-2.73-5.068-2.73-8.701v-2.461c0-2.379.43-4.47 1.27-6.275.86-1.805 2.06-3.188 3.62-4.148 1.56-.973 3.36-1.459 5.42-1.459 2.71 0 4.89.761 6.53 2.285 1.65 1.511 2.6 3.609 2.87 6.293h-3.39c-.3-2.039-.93-3.516-1.92-4.43-.97-.914-2.34-1.371-4.09-1.371-2.16 0-3.85.797-5.08 2.391-1.22 1.593-1.83 3.861-1.83 6.802v2.479c0 2.777.58 4.986 1.74 6.627 1.16 1.64 2.78 2.461 4.87 2.461 1.87 0 3.31-.422 4.3-1.266 1.01-.855 1.68-2.338 2.01-4.447h3.39zm8.02 5.361h12.12v2.76h-15.52v-25.594h3.4v22.834zm19.6 2.76h-3.38v-25.594h3.38v25.594z" fill="#000"/><path fill="#336791" d="M50 50h296v262H50z"/><path d="M128.061 119.077h-8.016v13.805h-4.523V98.757h11.297c3.844 0 6.797.875 8.859 2.625 2.078 1.75 3.117 4.296 3.117 7.64 0 2.125-.578 3.977-1.734 5.555-1.141 1.578-2.734 2.758-4.781 3.539l8.015 14.484v.282h-4.828l-7.406-13.805zm-8.016-3.68h6.914c2.235 0 4.008-.578 5.321-1.734 1.328-1.156 1.992-2.703 1.992-4.641 0-2.109-.633-3.726-1.898-4.851-1.25-1.125-3.063-1.696-5.438-1.711h-6.891v12.937zm34.922 17.953c-3.437 0-6.234-1.125-8.39-3.375-2.157-2.265-3.235-5.289-3.235-9.07v-.797c0-2.515.477-4.758 1.43-6.726.969-1.985 2.312-3.532 4.031-4.641 1.735-1.125 3.61-1.688 5.625-1.688 3.297 0 5.86 1.086 7.688 3.258 1.828 2.172 2.742 5.282 2.742 9.328v1.805h-17.18c.063 2.5.789 4.524 2.18 6.07 1.406 1.532 3.187 2.297 5.344 2.297 1.531 0 2.828-.312 3.89-.937a9.762 9.762 0 002.789-2.485l2.649 2.063c-2.125 3.266-5.313 4.898-9.563 4.898zm-.539-22.734c-1.75 0-3.219.641-4.406 1.922-1.188 1.265-1.922 3.047-2.203 5.344h12.703v-.329c-.125-2.203-.719-3.906-1.781-5.109-1.063-1.219-2.5-1.828-4.313-1.828zm14.438 9.375c0-3.953.914-7.094 2.742-9.422 1.828-2.344 4.25-3.516 7.266-3.516 3.093 0 5.507 1.094 7.242 3.282l.211-2.813h3.961v24.75c0 3.281-.977 5.867-2.93 7.758-1.938 1.891-4.547 2.836-7.828 2.836-1.828 0-3.617-.391-5.367-1.172-1.75-.781-3.086-1.851-4.008-3.211l2.25-2.601c1.859 2.296 4.133 3.445 6.82 3.445 2.109 0 3.75-.594 4.922-1.781 1.187-1.188 1.781-2.86 1.781-5.016v-2.18c-1.734 2-4.101 3-7.101 3-2.969 0-5.375-1.195-7.219-3.586-1.828-2.39-2.742-5.648-2.742-9.773zm4.359.492c0 2.86.586 5.11 1.758 6.75 1.172 1.625 2.812 2.438 4.922 2.438 2.734 0 4.742-1.243 6.023-3.727v-11.578c-1.328-2.422-3.32-3.633-5.976-3.633-2.11 0-3.758.82-4.946 2.461-1.187 1.641-1.781 4.07-1.781 7.289zm28.336 12.399h-4.336v-25.36h4.336v25.36zm-4.687-32.086c0-.703.21-1.297.632-1.782.438-.484 1.078-.726 1.922-.726.844 0 1.485.242 1.922.726.438.485.656 1.079.656 1.782 0 .703-.218 1.289-.656 1.757-.437.469-1.078.704-1.922.704-.844 0-1.484-.235-1.922-.704-.422-.468-.632-1.054-.632-1.757zm26.414 25.359c0-1.172-.446-2.078-1.336-2.719-.875-.656-2.414-1.218-4.618-1.687-2.187-.469-3.929-1.031-5.226-1.688-1.281-.656-2.234-1.437-2.859-2.343-.61-.907-.915-1.985-.915-3.235 0-2.078.875-3.836 2.625-5.273 1.766-1.438 4.016-2.157 6.75-2.157 2.875 0 5.204.743 6.985 2.227 1.797 1.484 2.695 3.383 2.695 5.695h-4.359c0-1.187-.508-2.211-1.524-3.07-1-.859-2.265-1.289-3.797-1.289-1.578 0-2.812.344-3.703 1.031-.89.688-1.336 1.586-1.336 2.696 0 1.046.414 1.835 1.243 2.367.828.531 2.32 1.039 4.476 1.523 2.172.485 3.93 1.063 5.274 1.735 1.343.671 2.336 1.484 2.976 2.437.656.938.985 2.086.985 3.445 0 2.266-.907 4.086-2.719 5.461-1.813 1.36-4.164 2.039-7.055 2.039-2.031 0-3.828-.359-5.391-1.078-1.562-.719-2.789-1.719-3.679-3-.875-1.297-1.313-2.695-1.313-4.195h4.336c.078 1.453.656 2.609 1.735 3.469 1.093.843 2.531 1.265 4.312 1.265 1.641 0 2.953-.328 3.938-.984 1-.672 1.5-1.563 1.5-2.672zm15.867-24.773v6.14h4.734v3.352h-4.734V126.6c0 1.016.211 1.782.633 2.297.421.5 1.14.75 2.156.75.5 0 1.187-.094 2.062-.281v3.516c-1.14.312-2.25.468-3.328.468-1.937 0-3.398-.586-4.383-1.757-.984-1.172-1.476-2.836-1.476-4.993v-15.726h-4.617v-3.352h4.617v-6.14h4.336zm22.078 10.031a12.922 12.922 0 00-2.133-.164c-2.844 0-4.773 1.211-5.789 3.633v18h-4.336v-25.36h4.219l.07 2.93c1.422-2.266 3.438-3.399 6.047-3.399.844 0 1.484.11 1.922.329v4.031zm12.726 15.117l5.907-19.008h4.64l-10.195 29.274c-1.578 4.218-4.086 6.328-7.523 6.328l-.821-.071-1.617-.304v-3.516l1.172.094c1.469 0 2.609-.297 3.422-.891.828-.593 1.508-1.679 2.039-3.258l.961-2.578-9.047-25.078h4.734l6.328 19.008zm-172.992 62.352v-34.125h9.633c2.969 0 5.594.656 7.875 1.968 2.281 1.313 4.039 3.18 5.274 5.602 1.25 2.422 1.882 5.203 1.898 8.344v2.179c0 3.219-.625 6.039-1.875 8.461-1.234 2.422-3.008 4.282-5.32 5.578-2.297 1.297-4.977 1.961-8.039 1.993h-9.446zm4.5-30.422v26.742h4.735c3.468 0 6.164-1.078 8.086-3.234 1.937-2.157 2.906-5.227 2.906-9.211v-1.993c0-3.875-.914-6.882-2.742-9.023-1.813-2.156-4.391-3.25-7.735-3.281h-5.25zm41.977 30.422c-.25-.5-.453-1.391-.61-2.672-2.015 2.093-4.421 3.14-7.218 3.14-2.5 0-4.555-.703-6.164-2.109-1.594-1.422-2.391-3.219-2.391-5.391 0-2.64 1-4.687 3-6.14 2.016-1.469 4.844-2.203 8.484-2.203h4.219v-1.993c0-1.515-.453-2.718-1.359-3.609-.906-.906-2.242-1.359-4.008-1.359-1.547 0-2.844.39-3.891 1.172-1.047.781-1.57 1.726-1.57 2.835h-4.359c0-1.265.445-2.484 1.336-3.656.906-1.187 2.125-2.125 3.656-2.812 1.547-.688 3.242-1.032 5.086-1.032 2.922 0 5.211.735 6.867 2.204 1.656 1.453 2.516 3.461 2.578 6.023v11.672c0 2.328.297 4.18.891 5.555v.375h-4.547zm-7.195-3.305c1.359 0 2.648-.352 3.867-1.055 1.218-.703 2.101-1.617 2.648-2.742v-5.203h-3.398c-5.313 0-7.969 1.555-7.969 4.664 0 1.359.453 2.422 1.359 3.187.907.766 2.071 1.149 3.493 1.149zm23.531-28.195v6.14h4.734v3.352h-4.734V182.6c0 1.016.211 1.782.633 2.297.421.5 1.14.75 2.156.75.5 0 1.187-.094 2.062-.281v3.516c-1.14.312-2.25.468-3.328.468-1.937 0-3.398-.586-4.383-1.757-.984-1.172-1.476-2.836-1.476-4.993v-15.726h-4.617v-3.352h4.617v-6.14h4.336zm25.476 31.5c-.25-.5-.453-1.391-.609-2.672-2.016 2.093-4.422 3.14-7.219 3.14-2.5 0-4.554-.703-6.164-2.109-1.594-1.422-2.39-3.219-2.39-5.391 0-2.64 1-4.687 3-6.14 2.015-1.469 4.843-2.203 8.484-2.203h4.219v-1.993c0-1.515-.453-2.718-1.36-3.609-.906-.906-2.242-1.359-4.008-1.359-1.546 0-2.843.39-3.89 1.172-1.047.781-1.57 1.726-1.57 2.835h-4.36c0-1.265.445-2.484 1.336-3.656.906-1.187 2.125-2.125 3.656-2.812 1.547-.688 3.243-1.032 5.086-1.032 2.922 0 5.211.735 6.867 2.204 1.657 1.453 2.516 3.461 2.579 6.023v11.672c0 2.328.296 4.18.89 5.555v.375h-4.547zm-7.195-3.305c1.359 0 2.648-.352 3.867-1.055 1.219-.703 2.102-1.617 2.649-2.742v-5.203h-3.399c-5.312 0-7.969 1.555-7.969 4.664 0 1.359.454 2.422 1.36 3.187.906.766 2.07 1.149 3.492 1.149zm39.117-9.094c0 3.875-.89 6.992-2.672 9.352-1.781 2.343-4.172 3.515-7.172 3.515-3.203 0-5.679-1.132-7.429-3.398l-.211 2.93h-3.985v-36h4.336v13.429c1.75-2.172 4.164-3.258 7.243-3.258 3.078 0 5.492 1.165 7.242 3.493 1.765 2.328 2.648 5.515 2.648 9.562v.375zm-4.336-.492c0-2.953-.57-5.234-1.711-6.844-1.14-1.609-2.781-2.414-4.922-2.414-2.859 0-4.914 1.328-6.164 3.985v10.968c1.329 2.657 3.399 3.985 6.211 3.985 2.078 0 3.696-.805 4.852-2.414 1.156-1.61 1.734-4.032 1.734-7.266zm25.477 12.891c-.25-.5-.453-1.391-.61-2.672-2.015 2.093-4.421 3.14-7.218 3.14-2.5 0-4.555-.703-6.164-2.109-1.594-1.422-2.391-3.219-2.391-5.391 0-2.64 1-4.687 3-6.14 2.016-1.469 4.844-2.203 8.484-2.203h4.219v-1.993c0-1.515-.453-2.718-1.359-3.609-.906-.906-2.242-1.359-4.008-1.359-1.547 0-2.844.39-3.891 1.172-1.047.781-1.57 1.726-1.57 2.835h-4.359c0-1.265.445-2.484 1.336-3.656.906-1.187 2.125-2.125 3.656-2.812 1.547-.688 3.242-1.032 5.086-1.032 2.922 0 5.211.735 6.867 2.204 1.656 1.453 2.516 3.461 2.578 6.023v11.672c0 2.328.297 4.18.891 5.555v.375h-4.547zm-7.195-3.305c1.359 0 2.648-.352 3.867-1.055 1.218-.703 2.101-1.617 2.648-2.742v-5.203h-3.398c-5.313 0-7.969 1.555-7.969 4.664 0 1.359.453 2.422 1.359 3.187.907.766 2.071 1.149 3.493 1.149zm32.414-3.422c0-1.172-.446-2.078-1.336-2.719-.875-.656-2.414-1.218-4.618-1.687-2.187-.469-3.929-1.031-5.226-1.688-1.281-.656-2.234-1.437-2.859-2.343-.61-.907-.915-1.985-.915-3.235 0-2.078.875-3.836 2.625-5.273 1.766-1.438 4.016-2.157 6.75-2.157 2.875 0 5.204.743 6.985 2.227 1.797 1.484 2.695 3.383 2.695 5.695h-4.359c0-1.187-.508-2.211-1.524-3.07-1-.859-2.265-1.289-3.797-1.289-1.578 0-2.812.344-3.703 1.031-.89.688-1.336 1.586-1.336 2.696 0 1.046.414 1.835 1.243 2.367.828.531 2.32 1.039 4.476 1.523 2.172.485 3.93 1.063 5.274 1.735 1.343.671 2.336 1.484 2.976 2.437.656.938.985 2.086.985 3.445 0 2.266-.907 4.086-2.719 5.461-1.813 1.36-4.164 2.039-7.055 2.039-2.031 0-3.828-.359-5.391-1.078-1.562-.719-2.789-1.719-3.679-3-.875-1.297-1.313-2.695-1.313-4.195h4.336c.078 1.453.656 2.609 1.735 3.469 1.093.843 2.531 1.265 4.312 1.265 1.641 0 2.953-.328 3.938-.984 1-.672 1.5-1.563 1.5-2.672zm20.507 7.195c-3.437 0-6.234-1.125-8.39-3.375-2.156-2.265-3.235-5.289-3.235-9.07v-.797c0-2.515.477-4.758 1.43-6.726.969-1.985 2.313-3.532 4.031-4.641 1.735-1.125 3.61-1.688 5.625-1.688 3.297 0 5.86 1.086 7.688 3.258 1.828 2.172 2.742 5.282 2.742 9.328v1.805h-17.18c.063 2.5.789 4.524 2.18 6.07 1.406 1.532 3.188 2.297 5.344 2.297 1.531 0 2.828-.312 3.89-.937a9.748 9.748 0 002.789-2.485l2.649 2.063c-2.125 3.266-5.313 4.898-9.563 4.898zm-.539-22.734c-1.75 0-3.218.641-4.406 1.922-1.187 1.265-1.922 3.047-2.203 5.344H293.6v-.329c-.125-2.203-.719-3.906-1.781-5.109-1.063-1.219-2.5-1.828-4.313-1.828zM116.721 244.92c0-2.06.273-4.038.82-5.934a17.362 17.362 0 012.475-5.168c1.094-1.549 2.228-2.643 3.404-3.281l.52 1.668c-1.331 1.021-2.425 2.58-3.281 4.676-.848 2.096-1.313 4.443-1.395 7.041l-.014 1.162c0 3.518.643 6.572 1.928 9.16.775 1.55 1.695 2.762 2.762 3.637l-.52 1.545c-1.212-.675-2.37-1.805-3.472-3.391-2.151-3.099-3.227-6.804-3.227-11.115zm12.688.287V253h-2.625v-19.906h7.341c2.179 0 3.883.556 5.114 1.668 1.239 1.112 1.859 2.584 1.859 4.416 0 1.932-.606 3.422-1.818 4.47-1.203 1.04-2.931 1.559-5.182 1.559h-4.689zm0-2.146h4.716c1.404 0 2.48-.329 3.227-.985.747-.665 1.121-1.622 1.121-2.871 0-1.185-.374-2.133-1.121-2.844-.747-.711-1.773-1.08-3.076-1.107h-4.867v7.807zm13.781 2.406c0-1.449.282-2.753.847-3.91.575-1.158 1.368-2.051 2.379-2.68 1.021-.629 2.183-.943 3.487-.943 2.014 0 3.641.697 4.881 2.091 1.248 1.395 1.873 3.25 1.873 5.565v.178c0 1.44-.278 2.734-.834 3.882-.547 1.14-1.336 2.028-2.366 2.666-1.02.638-2.196.957-3.527.957-2.005 0-3.632-.697-4.881-2.091-1.239-1.395-1.859-3.241-1.859-5.537v-.178zm2.543.301c0 1.64.378 2.957 1.135 3.951.765.993 1.786 1.49 3.062 1.49 1.285 0 2.306-.501 3.063-1.504.756-1.012 1.134-2.424 1.134-4.238 0-1.623-.387-2.935-1.162-3.938-.765-1.011-1.786-1.517-3.062-1.517-1.249 0-2.256.496-3.022 1.49-.765.993-1.148 2.415-1.148 4.266zm22.709 3.308c0-.683-.26-1.212-.78-1.586-.51-.383-1.408-.711-2.693-.984-1.276-.274-2.292-.602-3.049-.985-.747-.382-1.303-.838-1.668-1.367-.355-.528-.533-1.157-.533-1.886 0-1.213.511-2.238 1.531-3.077 1.03-.838 2.343-1.257 3.938-1.257 1.677 0 3.035.433 4.074 1.298 1.048.866 1.572 1.974 1.572 3.323h-2.543c0-.693-.296-1.29-.888-1.791-.584-.502-1.322-.752-2.215-.752-.921 0-1.641.2-2.16.601-.52.401-.78.925-.78 1.573 0 .61.242 1.071.725 1.38.483.31 1.354.607 2.611.889 1.267.283 2.293.62 3.077 1.012.783.392 1.362.866 1.736 1.422.383.547.574 1.216.574 2.009 0 1.322-.529 2.384-1.586 3.186-1.057.793-2.429 1.189-4.115 1.189-1.185 0-2.233-.209-3.145-.628-.911-.42-1.627-1.003-2.146-1.75a4.292 4.292 0 01-.766-2.448h2.53c.045.848.382 1.522 1.011 2.024.638.492 1.477.738 2.516.738.957 0 1.723-.191 2.297-.574.583-.392.875-.912.875-1.559zm9.256-14.451v3.582h2.761v1.955h-2.761v9.174c0 .592.123 1.039.369 1.34.246.291.665.437 1.258.437.291 0 .692-.054 1.203-.164V253a7.351 7.351 0 01-1.942.273c-1.13 0-1.982-.341-2.556-1.025-.575-.684-.862-1.654-.862-2.912v-9.174h-2.693v-1.955h2.693v-3.582h2.53zm5.127 10.855c0-2.306.533-4.138 1.599-5.496 1.067-1.367 2.479-2.05 4.238-2.05 1.805 0 3.213.638 4.225 1.914l.123-1.641h2.311v14.438c0 1.914-.57 3.422-1.709 4.525-1.131 1.103-2.653 1.654-4.567 1.654a7.622 7.622 0 01-3.131-.683c-1.02-.456-1.8-1.08-2.337-1.873l1.312-1.518c1.085 1.34 2.411 2.01 3.979 2.01 1.23 0 2.187-.347 2.871-1.039.692-.693 1.039-1.668 1.039-2.926v-1.272c-1.012 1.167-2.393 1.75-4.143 1.75-1.732 0-3.135-.697-4.211-2.091-1.066-1.395-1.599-3.295-1.599-5.702zm2.543.288c0 1.668.341 2.98 1.025 3.937.684.948 1.641 1.422 2.871 1.422 1.595 0 2.766-.725 3.514-2.174v-6.754c-.775-1.413-1.937-2.119-3.487-2.119-1.23 0-2.192.479-2.884 1.436-.693.957-1.039 2.374-1.039 4.252zm20.931-5.291a7.553 7.553 0 00-1.244-.096c-1.659 0-2.784.706-3.377 2.119V253h-2.529v-14.793h2.461l.041 1.709c.829-1.322 2.005-1.982 3.527-1.982.492 0 .866.063 1.121.191v2.352zm8.203 12.796c-2.005 0-3.636-.656-4.894-1.968-1.258-1.322-1.887-3.086-1.887-5.291v-.465c0-1.468.278-2.776.834-3.924.565-1.158 1.349-2.06 2.352-2.707a5.914 5.914 0 013.281-.984c1.923 0 3.418.633 4.484 1.9 1.067 1.267 1.6 3.081 1.6 5.441v1.053H210.25c.037 1.458.461 2.639 1.272 3.541.82.893 1.859 1.34 3.117 1.34.893 0 1.65-.182 2.27-.547a5.714 5.714 0 001.627-1.449l1.544 1.203c-1.239 1.905-3.099 2.857-5.578 2.857zm-.314-13.261c-1.021 0-1.878.373-2.57 1.121-.693.738-1.122 1.777-1.286 3.117h7.411v-.191c-.073-1.286-.42-2.279-1.04-2.981-.619-.711-1.458-1.066-2.515-1.066zm15.285 4.115c-2.251-.647-3.892-1.44-4.922-2.379-1.021-.948-1.531-2.115-1.531-3.5 0-1.568.624-2.862 1.873-3.883 1.258-1.03 2.889-1.545 4.894-1.545 1.368 0 2.584.265 3.651.793 1.075.529 1.905 1.258 2.488 2.188.593.929.889 1.946.889 3.049h-2.639c0-1.204-.383-2.147-1.148-2.83-.766-.693-1.846-1.04-3.241-1.04-1.294 0-2.306.288-3.035.862-.72.565-1.08 1.353-1.08 2.365 0 .811.342 1.499 1.026 2.064.692.556 1.864 1.067 3.513 1.532 1.659.465 2.953.98 3.883 1.545.939.556 1.632 1.207 2.078 1.955.456.747.684 1.627.684 2.638 0 1.614-.629 2.908-1.887 3.883-1.258.966-2.939 1.449-5.045 1.449-1.367 0-2.643-.259-3.828-.779-1.185-.529-2.101-1.249-2.748-2.16-.638-.911-.957-1.946-.957-3.104h2.639c0 1.204.442 2.156 1.326 2.858.893.693 2.083 1.039 3.568 1.039 1.386 0 2.447-.283 3.186-.848.738-.565 1.107-1.335 1.107-2.31 0-.976-.342-1.727-1.025-2.256-.684-.538-1.923-1.067-3.719-1.586zm25.963-.438c0 1.924-.305 3.582-.916 4.977-.611 1.385-1.468 2.47-2.57 3.254l3.554 2.789-1.791 1.654-4.197-3.336a8.542 8.542 0 01-2.078.246c-1.568 0-2.958-.382-4.17-1.148-1.212-.775-2.156-1.873-2.83-3.295-.666-1.431-1.007-3.085-1.026-4.963v-1.435c0-1.914.333-3.605.999-5.073.665-1.467 1.604-2.588 2.816-3.363 1.221-.784 2.616-1.176 4.184-1.176 1.604 0 3.012.388 4.224 1.162 1.221.775 2.16 1.892 2.817 3.35.656 1.449.984 3.145.984 5.086v1.271zm-2.625-1.285c0-2.342-.47-4.147-1.408-5.414-.93-1.276-2.261-1.914-3.992-1.914-1.65 0-2.954.634-3.911 1.901-.948 1.257-1.435 3.007-1.463 5.25v1.462c0 2.279.474 4.075 1.422 5.387.957 1.313 2.284 1.969 3.979 1.969 1.695 0 3.008-.615 3.937-1.846.93-1.239 1.409-3.012 1.436-5.318v-1.477zm9.31 8.45h9.434V253h-12.072v-19.906h2.638v17.76zm17.87-5.797a21.04 21.04 0 01-.807 5.851 17.065 17.065 0 01-2.447 5.154c-1.094 1.577-2.243 2.698-3.446 3.364l-.533-1.545c1.404-1.076 2.529-2.744 3.377-5.004.857-2.27 1.294-4.785 1.313-7.547v-.437c0-1.914-.201-3.692-.602-5.332-.401-1.65-.962-3.127-1.682-4.43-.711-1.304-1.513-2.32-2.406-3.049l.533-1.545c1.203.665 2.347 1.777 3.432 3.336a17.085 17.085 0 012.447 5.154c.547 1.878.821 3.888.821 6.03z" fill="#fff"/><path fill="#000" d="M1285 930h265v120h-265z"/><path d="M1325.98 977.906l8.37 20.883 8.37-20.883h4.37v25.594h-3.37v-9.967l.32-10.758-8.41 20.725h-2.58l-8.38-20.672.33 10.705v9.967h-3.38v-25.594h4.36zm25.7 15.908c0-1.863.37-3.539 1.09-5.027.74-1.488 1.76-2.637 3.06-3.445 1.31-.809 2.81-1.213 4.48-1.213 2.59 0 4.69.896 6.28 2.689 1.6 1.793 2.41 4.178 2.41 7.155v.228c0 1.852-.36 3.516-1.08 4.992-.7 1.467-1.71 2.607-3.04 3.427-1.31.82-2.82 1.23-4.53 1.23-2.58 0-4.67-.89-6.28-2.69-1.59-1.791-2.39-4.164-2.39-7.117v-.229zm3.27.387c0 2.11.49 3.803 1.46 5.08.99 1.279 2.3 1.919 3.94 1.919 1.65 0 2.96-.65 3.94-1.936.97-1.301 1.46-3.118 1.46-5.45 0-2.085-.5-3.773-1.5-5.062-.98-1.301-2.3-1.951-3.94-1.951-1.6 0-2.9.638-3.88 1.916-.99 1.277-1.48 3.105-1.48 5.484zm17.33-.369c0-2.918.7-5.262 2.08-7.031 1.38-1.781 3.19-2.672 5.43-2.672 2.23 0 3.99.762 5.29 2.285V976.5h3.25v27h-2.99l-.15-2.04c-1.3 1.59-3.11 2.39-5.43 2.39-2.21 0-4.01-.9-5.4-2.71-1.38-1.8-2.08-4.156-2.08-7.062v-.246zm3.26.369c0 2.156.44 3.844 1.33 5.063.89 1.216 2.12 1.826 3.69 1.826 2.07 0 3.57-.92 4.52-2.776v-8.736c-.97-1.793-2.47-2.689-4.48-2.689-1.59 0-2.84.615-3.73 1.845-.89 1.231-1.33 3.053-1.33 5.467zm29.6 7.419c-1.27 1.49-3.13 2.23-5.57 2.23-2.03 0-3.58-.58-4.65-1.76-1.05-1.18-1.58-2.926-1.59-5.235V984.48h3.25v12.288c0 2.882 1.17 4.322 3.51 4.322 2.49 0 4.14-.92 4.96-2.776V984.48h3.25v19.02h-3.09l-.07-1.88zm11.65 1.88h-3.25v-27h3.25v27zm13.12.35c-2.58 0-4.68-.84-6.3-2.53-1.61-1.699-2.42-3.966-2.42-6.802v-.598c0-1.887.35-3.568 1.07-5.045.73-1.488 1.73-2.648 3.02-3.48 1.3-.844 2.71-1.266 4.22-1.266 2.47 0 4.4.814 5.77 2.443 1.37 1.629 2.05 3.961 2.05 6.996v1.354h-12.88c.05 1.875.59 3.392 1.63 4.553 1.06 1.145 2.39 1.725 4.01 1.725 1.15 0 2.12-.24 2.92-.71.8-.46 1.49-1.086 2.09-1.859l1.99 1.549c-1.6 2.45-3.99 3.67-7.17 3.67zm-.41-17.049c-1.31 0-2.41.48-3.3 1.441-.89.949-1.44 2.285-1.66 4.008h9.53v-.246c-.09-1.652-.54-2.93-1.33-3.832-.8-.914-1.88-1.371-3.24-1.371zm32.27 14.819c-1.26 1.49-3.12 2.23-5.57 2.23-2.03 0-3.57-.58-4.64-1.76-1.05-1.18-1.59-2.926-1.6-5.235V984.48h3.25v12.288c0 2.882 1.18 4.322 3.52 4.322 2.48 0 4.14-.92 4.96-2.776V984.48h3.25v19.02h-3.1l-.07-1.88zm19.2-3.165c0-.879-.33-1.559-1-2.039-.66-.492-1.81-.914-3.46-1.266-1.65-.351-2.95-.773-3.92-1.265-.97-.492-1.68-1.078-2.15-1.758-.46-.68-.68-1.488-.68-2.426 0-1.558.65-2.877 1.96-3.955 1.33-1.078 3.02-1.617 5.07-1.617 2.15 0 3.9.557 5.23 1.67 1.35 1.113 2.03 2.537 2.03 4.271h-3.27c0-.89-.38-1.658-1.15-2.302-.75-.645-1.7-.967-2.84-.967-1.19 0-2.11.258-2.78.773-.67.516-1 1.19-1 2.022 0 .785.31 1.377.93 1.775.62.399 1.74.779 3.36 1.143 1.62.363 2.94.797 3.95 1.3 1.01.504 1.75 1.114 2.23 1.829.5.703.74 1.564.74 2.584 0 1.699-.68 3.063-2.04 4.093-1.36 1.02-3.12 1.53-5.29 1.53-1.52 0-2.87-.27-4.04-.81s-2.09-1.29-2.76-2.25c-.66-.97-.99-2.019-.99-3.144h3.26c.06 1.09.49 1.958 1.3 2.604.82.63 1.9.95 3.23.95 1.23 0 2.22-.25 2.95-.74.75-.505 1.13-1.173 1.13-2.005zm15.38 5.395c-2.58 0-4.68-.84-6.29-2.53-1.62-1.699-2.43-3.966-2.43-6.802v-.598c0-1.887.36-3.568 1.07-5.045.73-1.488 1.74-2.648 3.03-3.48 1.3-.844 2.7-1.266 4.22-1.266 2.47 0 4.39.814 5.76 2.443s2.06 3.961 2.06 6.996v1.354h-12.89c.05 1.875.6 3.392 1.64 4.553 1.05 1.145 2.39 1.725 4.01 1.725 1.14 0 2.12-.24 2.91-.71.8-.46 1.5-1.086 2.1-1.859l1.98 1.549c-1.59 2.45-3.98 3.67-7.17 3.67zm-.4-17.049c-1.32 0-2.42.48-3.31 1.441-.89.949-1.44 2.285-1.65 4.008h9.53v-.246c-.1-1.652-.54-2.93-1.34-3.832-.8-.914-1.87-1.371-3.23-1.371zm20.79.597a9.684 9.684 0 00-1.6-.123c-2.13 0-3.58.909-4.34 2.725v13.5h-3.25v-19.02h3.16l.05 2.198c1.07-1.699 2.58-2.549 4.54-2.549.63 0 1.11.082 1.44.246v3.023z" fill="#fff"/><path fill="#22C1C3" d="M1245 494h305v206h-305zM1245 478h305v16h-305z"/><path d="M1323.67 591.373l.1 2.391c1.45-1.828 3.35-2.742 5.7-2.742 4.02 0 6.04 2.267 6.08 6.802v12.569h-3.25v-12.586c-.01-1.371-.33-2.385-.95-3.041-.61-.656-1.57-.984-2.87-.984-1.05 0-1.98.281-2.77.843a5.764 5.764 0 00-1.87 2.215v13.553h-3.25v-19.02h3.08zm24.68 19.371c-2.58 0-4.68-.843-6.3-2.531-1.61-1.699-2.42-3.967-2.42-6.803v-.597c0-1.887.35-3.569 1.07-5.045.73-1.488 1.73-2.649 3.02-3.481 1.3-.843 2.71-1.265 4.22-1.265 2.47 0 4.4.814 5.77 2.443 1.37 1.629 2.05 3.961 2.05 6.996v1.354h-12.88c.05 1.875.59 3.392 1.63 4.552 1.06 1.149 2.39 1.723 4.01 1.723 1.15 0 2.12-.234 2.92-.703.8-.469 1.49-1.09 2.09-1.863l1.99 1.547c-1.6 2.449-3.99 3.673-7.17 3.673zm-.41-17.05c-1.31 0-2.41.48-3.3 1.441-.89.949-1.44 2.285-1.66 4.008h9.53v-.246c-.09-1.653-.54-2.93-1.33-3.832-.8-.914-1.88-1.371-3.24-1.371zm22.68 11.654c0-.879-.34-1.559-1-2.039-.66-.492-1.82-.914-3.47-1.266-1.64-.351-2.94-.773-3.92-1.265-.96-.493-1.67-1.079-2.14-1.758-.46-.68-.69-1.488-.69-2.426 0-1.559.66-2.877 1.97-3.955 1.33-1.078 3.01-1.617 5.06-1.617 2.16 0 3.91.556 5.24 1.67 1.35 1.113 2.02 2.537 2.02 4.271h-3.27c0-.89-.38-1.658-1.14-2.303-.75-.644-1.7-.966-2.85-.966-1.18 0-2.11.257-2.77.773-.67.516-1.01 1.19-1.01 2.022 0 .785.31 1.377.94 1.775.62.398 1.74.779 3.35 1.143 1.63.363 2.95.796 3.96 1.3 1.01.504 1.75 1.114 2.23 1.828.49.704.74 1.565.74 2.584 0 1.7-.68 3.065-2.04 4.096-1.36 1.02-3.12 1.529-5.29 1.529-1.52 0-2.87-.269-4.04-.808-1.18-.539-2.1-1.289-2.76-2.25-.66-.973-.99-2.022-.99-3.147h3.25c.06 1.09.5 1.957 1.3 2.602.82.633 1.9.949 3.24.949 1.23 0 2.21-.246 2.95-.738.75-.504 1.13-1.172 1.13-2.004zm11.9-18.58v4.605h3.55v2.514h-3.55v11.795c0 .762.16 1.336.47 1.723.32.375.86.562 1.62.562.37 0 .89-.07 1.55-.211v2.637c-.86.234-1.69.351-2.5.351-1.45 0-2.55-.439-3.29-1.318-.74-.879-1.1-2.127-1.1-3.744v-11.795h-3.47v-2.514h3.47v-4.605h3.25zm7.43 21.92c0-.563.17-1.031.5-1.406.34-.375.84-.563 1.51-.563.66 0 1.17.188 1.51.563.35.375.53.843.53 1.406 0 .539-.18.99-.53 1.353-.34.364-.85.545-1.51.545-.67 0-1.17-.181-1.51-.545-.33-.363-.5-.814-.5-1.353zm12.96 1.705h-3.25v-27h3.25v27zm16.96 0c-.19-.375-.34-1.043-.46-2.004-1.51 1.57-3.31 2.355-5.41 2.355-1.88 0-3.42-.527-4.62-1.582-1.2-1.066-1.8-2.414-1.8-4.043 0-1.98.75-3.515 2.25-4.605 1.52-1.102 3.64-1.652 6.37-1.652h3.16v-1.495c0-1.136-.34-2.039-1.02-2.707-.68-.679-1.68-1.019-3-1.019-1.16 0-2.14.293-2.92.879-.79.586-1.18 1.295-1.18 2.127h-3.27c0-.949.33-1.864 1-2.742.68-.891 1.6-1.594 2.74-2.11 1.17-.515 2.44-.773 3.82-.773 2.19 0 3.91.551 5.15 1.652 1.24 1.09 1.89 2.596 1.93 4.518v8.754c0 1.746.23 3.134.67 4.166v.281h-3.41zm-5.4-2.479c1.02 0 1.99-.263 2.91-.791.91-.527 1.57-1.213 1.98-2.056v-3.903h-2.55c-3.98 0-5.97 1.166-5.97 3.498 0 1.02.34 1.817 1.02 2.391.68.574 1.55.861 2.61.861zm16.32-16.541l.1 2.391c1.46-1.828 3.35-2.742 5.7-2.742 4.02 0 6.04 2.267 6.08 6.802v12.569h-3.25v-12.586c-.01-1.371-.33-2.385-.95-3.041-.61-.656-1.57-.984-2.87-.984-1.05 0-1.98.281-2.77.843a5.764 5.764 0 00-1.87 2.215v13.553h-3.25v-19.02h3.08zm15.99 9.352c0-2.918.69-5.262 2.08-7.031 1.38-1.782 3.19-2.672 5.43-2.672 2.23 0 3.99.761 5.29 2.285v-9.914h3.25v27h-2.99l-.15-2.039c-1.31 1.594-3.12 2.39-5.44 2.39-2.2 0-4-.902-5.39-2.707-1.39-1.804-2.08-4.16-2.08-7.066v-.246zm3.26.369c0 2.156.44 3.844 1.33 5.063.89 1.218 2.12 1.828 3.69 1.828 2.06 0 3.57-.926 4.52-2.778v-8.736c-.97-1.793-2.47-2.689-4.48-2.689-1.6 0-2.84.615-3.73 1.845-.89 1.231-1.33 3.053-1.33 5.467z" fill="#fff"/><circle cx="1254" cy="486" r="2" fill="#fff"/><circle cx="1262" cy="486" r="2" fill="#fff"/><circle cx="1270" cy="486" r="2" fill="#fff"/><rect x="402" y="161" width="265" height="40" rx="20" fill="#000"/><path d="M445.61 172.938l5.578 13.921 5.578-13.921h2.918V190h-2.25v-6.645l.211-7.171L452.044 190h-1.723l-5.59-13.781.223 7.136V190h-2.25v-17.062h2.906zm17.133 10.605c0-1.242.242-2.359.727-3.352.492-.992 1.171-1.757 2.039-2.296.875-.54 1.871-.809 2.988-.809 1.727 0 3.121.598 4.184 1.793 1.07 1.195 1.605 2.785 1.605 4.769v.153c0 1.234-.238 2.344-.715 3.328-.469.976-1.144 1.738-2.027 2.285-.875.547-1.883.82-3.024.82-1.718 0-3.113-.597-4.183-1.793-1.063-1.195-1.594-2.777-1.594-4.746v-.152zm2.18.258c0 1.406.324 2.535.972 3.387.657.851 1.532 1.277 2.625 1.277 1.102 0 1.977-.43 2.625-1.289.649-.867.973-2.078.973-3.633 0-1.391-.332-2.516-.996-3.375-.656-.867-1.531-1.301-2.625-1.301-1.07 0-1.934.426-2.59 1.278-.656.851-.984 2.07-.984 3.656zm11.554-.246c0-1.946.461-3.508 1.383-4.688.922-1.187 2.129-1.781 3.621-1.781 1.485 0 2.66.508 3.528 1.523V172h2.168v18h-1.993l-.105-1.359c-.867 1.062-2.074 1.593-3.621 1.593-1.469 0-2.668-.601-3.598-1.804-.922-1.203-1.383-2.774-1.383-4.711v-.164zm2.168.246c0 1.437.297 2.562.891 3.375.594.812 1.414 1.219 2.461 1.219 1.375 0 2.379-.618 3.012-1.852v-5.824c-.649-1.196-1.645-1.793-2.989-1.793-1.062 0-1.89.41-2.484 1.23-.594.821-.891 2.035-.891 3.645zm19.735 4.945c-.844.992-2.082 1.488-3.715 1.488-1.352 0-2.383-.39-3.094-1.172-.703-.789-1.058-1.953-1.066-3.492v-8.25h2.168v8.192c0 1.922.781 2.883 2.343 2.883 1.657 0 2.758-.618 3.305-1.852v-9.223h2.168V190h-2.062l-.047-1.254zm7.769 1.254h-2.168v-18h2.168v18zm8.742.234c-1.718 0-3.117-.562-4.195-1.687-1.078-1.133-1.617-2.645-1.617-4.535v-.399c0-1.258.238-2.379.715-3.363.484-.992 1.156-1.766 2.015-2.32a5.07 5.07 0 012.813-.844c1.648 0 2.93.543 3.844 1.629.914 1.086 1.371 2.64 1.371 4.664v.902h-8.59c.031 1.25.394 2.262 1.09 3.035.703.766 1.594 1.149 2.672 1.149.765 0 1.414-.156 1.945-.469a4.886 4.886 0 001.395-1.242l1.324 1.031c-1.063 1.633-2.657 2.449-4.782 2.449zm-.269-11.367c-.875 0-1.609.321-2.203.961-.594.633-.961 1.524-1.102 2.672h6.352v-.164c-.063-1.102-.36-1.953-.891-2.555-.531-.609-1.25-.914-2.156-.914zm16.934-5.929l5.578 13.921 5.578-13.921h2.918V190h-2.25v-6.645l.211-7.171L537.989 190h-1.723l-5.589-13.781.222 7.136V190h-2.25v-17.062h2.907zm22.968 17.296c-1.718 0-3.117-.562-4.195-1.687-1.078-1.133-1.617-2.645-1.617-4.535v-.399c0-1.258.238-2.379.715-3.363.484-.992 1.156-1.766 2.015-2.32a5.068 5.068 0 012.813-.844c1.648 0 2.929.543 3.844 1.629.914 1.086 1.371 2.64 1.371 4.664v.902h-8.59c.031 1.25.394 2.262 1.09 3.035.703.766 1.593 1.149 2.671 1.149.766 0 1.415-.156 1.946-.469a4.87 4.87 0 001.394-1.242l1.325 1.031c-1.063 1.633-2.657 2.449-4.782 2.449zm-.269-11.367c-.875 0-1.61.321-2.203.961-.594.633-.961 1.524-1.102 2.672h6.352v-.164c-.063-1.102-.36-1.953-.891-2.555-.531-.609-1.25-.914-2.156-.914zm10.676-4.617v3.07h2.367v1.676h-2.367v7.863c0 .508.105.891.316 1.149.211.25.57.375 1.078.375.25 0 .594-.047 1.031-.141V190a6.293 6.293 0 01-1.664.234c-.968 0-1.699-.293-2.191-.879-.492-.585-.738-1.417-.738-2.496v-7.863h-2.309v-1.676h2.309v-3.07h2.168zM577.669 190c-.125-.25-.227-.695-.305-1.336-1.008 1.047-2.211 1.57-3.609 1.57-1.25 0-2.278-.351-3.082-1.054-.797-.711-1.196-1.61-1.196-2.696 0-1.32.5-2.343 1.5-3.07 1.008-.734 2.422-1.102 4.243-1.102h2.109v-.996c0-.757-.227-1.359-.68-1.804-.453-.453-1.121-.68-2.004-.68-.773 0-1.421.195-1.945.586-.523.391-.785.863-.785 1.418h-2.18c0-.633.223-1.242.668-1.828.453-.594 1.063-1.063 1.828-1.406.774-.344 1.621-.516 2.543-.516 1.461 0 2.606.367 3.434 1.102.828.726 1.258 1.73 1.289 3.011v5.836c0 1.164.148 2.09.445 2.777V190h-2.273zm-3.598-1.652c.68 0 1.324-.176 1.934-.528.609-.351 1.051-.808 1.324-1.371v-2.601h-1.699c-2.656 0-3.985.777-3.985 2.332 0 .679.227 1.211.68 1.593.453.383 1.035.575 1.746.575zm8.297-4.793c0-1.946.461-3.508 1.383-4.688.922-1.187 2.129-1.781 3.621-1.781 1.484 0 2.66.508 3.527 1.523V172h2.168v18h-1.992l-.105-1.359c-.868 1.062-2.075 1.593-3.621 1.593-1.469 0-2.668-.601-3.598-1.804-.922-1.203-1.383-2.774-1.383-4.711v-.164zm2.168.246c0 1.437.297 2.562.891 3.375.593.812 1.414 1.219 2.461 1.219 1.375 0 2.378-.618 3.011-1.852v-5.824c-.648-1.196-1.644-1.793-2.988-1.793-1.062 0-1.891.41-2.484 1.23-.594.821-.891 2.035-.891 3.645zM604.27 190c-.125-.25-.226-.695-.304-1.336-1.008 1.047-2.211 1.57-3.61 1.57-1.25 0-2.277-.351-3.082-1.054-.797-.711-1.195-1.61-1.195-2.696 0-1.32.5-2.343 1.5-3.07 1.008-.734 2.422-1.102 4.242-1.102h2.11v-.996c0-.757-.227-1.359-.68-1.804-.453-.453-1.121-.68-2.004-.68-.773 0-1.422.195-1.945.586-.524.391-.786.863-.786 1.418h-2.179c0-.633.222-1.242.668-1.828.453-.594 1.062-1.063 1.828-1.406.773-.344 1.621-.516 2.543-.516 1.461 0 2.605.367 3.433 1.102.829.726 1.258 1.73 1.29 3.011v5.836c0 1.164.148 2.09.445 2.777V190h-2.274zm-3.597-1.652c.679 0 1.324-.176 1.933-.528.61-.351 1.051-.808 1.325-1.371v-2.601h-1.7c-2.656 0-3.984.777-3.984 2.332 0 .679.227 1.211.68 1.593.453.383 1.035.575 1.746.575zm11.765-14.098v3.07h2.368v1.676h-2.368v7.863c0 .508.106.891.317 1.149.211.25.57.375 1.078.375.25 0 .594-.047 1.031-.141V190a6.293 6.293 0 01-1.664.234c-.969 0-1.699-.293-2.191-.879-.493-.585-.739-1.417-.739-2.496v-7.863h-2.308v-1.676h2.308v-3.07h2.168zM625.177 190c-.125-.25-.227-.695-.305-1.336-1.008 1.047-2.211 1.57-3.609 1.57-1.25 0-2.278-.351-3.082-1.054-.797-.711-1.196-1.61-1.196-2.696 0-1.32.5-2.343 1.5-3.07 1.008-.734 2.422-1.102 4.242-1.102h2.11v-.996c0-.757-.227-1.359-.68-1.804-.453-.453-1.121-.68-2.004-.68-.773 0-1.422.195-1.945.586-.524.391-.785.863-.785 1.418h-2.18c0-.633.223-1.242.668-1.828.453-.594 1.063-1.063 1.828-1.406.774-.344 1.621-.516 2.543-.516 1.461 0 2.606.367 3.434 1.102.828.726 1.258 1.73 1.289 3.011v5.836c0 1.164.148 2.09.445 2.777V190h-2.273zm-3.598-1.652c.68 0 1.324-.176 1.934-.528.609-.351 1.05-.808 1.324-1.371v-2.601h-1.699c-2.657 0-3.985.777-3.985 2.332 0 .679.227 1.211.68 1.593.453.383 1.035.575 1.746.575z" fill="#fff"/><rect x="1069" y="282" width="265" height="40" rx="20" fill="#000"/><path d="M1112.61 293.938l5.58 13.921 5.58-13.921h2.91V311h-2.25v-6.645l.22-7.171-5.61 13.816h-1.72l-5.59-13.781.22 7.136V311h-2.25v-17.062h2.91zm17.13 10.605c0-1.242.25-2.359.73-3.352.49-.992 1.17-1.757 2.04-2.296.87-.54 1.87-.809 2.99-.809 1.72 0 3.12.598 4.18 1.793 1.07 1.195 1.61 2.785 1.61 4.769v.153c0 1.234-.24 2.344-.72 3.328-.47.976-1.14 1.738-2.03 2.285-.87.547-1.88.82-3.02.82-1.72 0-3.11-.597-4.18-1.793-1.07-1.195-1.6-2.777-1.6-4.746v-.152zm2.18.258c0 1.406.33 2.535.98 3.387.65.851 1.53 1.277 2.62 1.277 1.1 0 1.98-.43 2.63-1.289.64-.867.97-2.078.97-3.633 0-1.391-.33-2.516-1-3.375-.65-.867-1.53-1.301-2.62-1.301-1.07 0-1.94.426-2.59 1.278-.66.851-.99 2.07-.99 3.656zm11.56-.246c0-1.946.46-3.508 1.38-4.688.92-1.187 2.13-1.781 3.62-1.781 1.49 0 2.66.508 3.53 1.523V293h2.17v18h-2l-.1-1.359c-.87 1.062-2.08 1.593-3.62 1.593-1.47 0-2.67-.601-3.6-1.804-.92-1.203-1.38-2.774-1.38-4.711v-.164zm2.17.246c0 1.437.29 2.562.89 3.375.59.812 1.41 1.219 2.46 1.219 1.37 0 2.38-.618 3.01-1.852v-5.824c-.65-1.196-1.65-1.793-2.99-1.793-1.06 0-1.89.41-2.48 1.23-.6.821-.89 2.035-.89 3.645zm19.73 4.945c-.84.992-2.08 1.488-3.71 1.488-1.36 0-2.39-.39-3.1-1.172-.7-.789-1.06-1.953-1.07-3.492v-8.25h2.17v8.192c0 1.922.78 2.883 2.35 2.883 1.65 0 2.75-.618 3.3-1.852v-9.223h2.17V311h-2.06l-.05-1.254zm7.77 1.254h-2.17v-18h2.17v18zm8.74.234c-1.72 0-3.12-.562-4.19-1.687-1.08-1.133-1.62-2.645-1.62-4.535v-.399c0-1.258.24-2.379.71-3.363.49-.992 1.16-1.766 2.02-2.32a5.06 5.06 0 012.81-.844c1.65 0 2.93.543 3.85 1.629.91 1.086 1.37 2.64 1.37 4.664v.902h-8.59c.03 1.25.39 2.262 1.09 3.035.7.766 1.59 1.149 2.67 1.149.76 0 1.41-.156 1.94-.469a4.8 4.8 0 001.4-1.242l1.32 1.031c-1.06 1.633-2.65 2.449-4.78 2.449zm-.27-11.367c-.87 0-1.61.321-2.2.961-.59.633-.96 1.524-1.1 2.672h6.35v-.164c-.06-1.102-.36-1.953-.89-2.555-.53-.609-1.25-.914-2.16-.914zm16.94-5.929l5.57 13.921 5.58-13.921h2.92V311h-2.25v-6.645l.21-7.171-5.6 13.816h-1.72l-5.59-13.781.22 7.136V311h-2.25v-17.062h2.91zm22.96 17.296c-1.71 0-3.11-.562-4.19-1.687-1.08-1.133-1.62-2.645-1.62-4.535v-.399c0-1.258.24-2.379.72-3.363.48-.992 1.15-1.766 2.01-2.32a5.084 5.084 0 012.81-.844c1.65 0 2.93.543 3.85 1.629.91 1.086 1.37 2.64 1.37 4.664v.902h-8.59c.03 1.25.39 2.262 1.09 3.035.7.766 1.59 1.149 2.67 1.149.77 0 1.42-.156 1.95-.469.53-.312.99-.726 1.39-1.242l1.33 1.031c-1.07 1.633-2.66 2.449-4.79 2.449zm-.27-11.367c-.87 0-1.6.321-2.2.961-.59.633-.96 1.524-1.1 2.672h6.35v-.164c-.06-1.102-.36-1.953-.89-2.555-.53-.609-1.25-.914-2.16-.914zm10.68-4.617v3.07h2.37v1.676h-2.37v7.863c0 .508.11.891.32 1.149.21.25.57.375 1.08.375.25 0 .59-.047 1.03-.141V311a6.33 6.33 0 01-1.67.234c-.97 0-1.7-.293-2.19-.879-.49-.585-.74-1.417-.74-2.496v-7.863h-2.31v-1.676h2.31v-3.07h2.17zm12.74 15.75c-.13-.25-.23-.695-.31-1.336-1 1.047-2.21 1.57-3.61 1.57-1.25 0-2.27-.351-3.08-1.054-.79-.711-1.19-1.61-1.19-2.696 0-1.32.5-2.343 1.5-3.07 1.01-.734 2.42-1.102 4.24-1.102h2.11v-.996c0-.757-.23-1.359-.68-1.804-.45-.453-1.12-.68-2-.68-.78 0-1.43.195-1.95.586-.52.391-.78.863-.78 1.418h-2.18c0-.633.22-1.242.66-1.828.46-.594 1.07-1.063 1.83-1.406.77-.344 1.62-.516 2.54-.516 1.47 0 2.61.367 3.44 1.102.83.726 1.26 1.73 1.29 3.011v5.836c0 1.164.15 2.09.44 2.777V311h-2.27zm-3.6-1.652c.68 0 1.33-.176 1.93-.528.61-.351 1.06-.808 1.33-1.371v-2.601h-1.7c-2.66 0-3.98.777-3.98 2.332 0 .679.22 1.211.68 1.593.45.383 1.03.575 1.74.575zm8.3-4.793c0-1.946.46-3.508 1.38-4.688.92-1.187 2.13-1.781 3.62-1.781 1.49 0 2.66.508 3.53 1.523V293h2.17v18h-1.99l-.11-1.359c-.87 1.062-2.07 1.593-3.62 1.593-1.47 0-2.67-.601-3.6-1.804-.92-1.203-1.38-2.774-1.38-4.711v-.164zm2.17.246c0 1.437.29 2.562.89 3.375.59.812 1.41 1.219 2.46 1.219 1.37 0 2.38-.618 3.01-1.852v-5.824c-.65-1.196-1.65-1.793-2.99-1.793-1.06 0-1.89.41-2.48 1.23-.6.821-.89 2.035-.89 3.645zm19.73 6.199c-.12-.25-.23-.695-.3-1.336-1.01 1.047-2.22 1.57-3.61 1.57-1.25 0-2.28-.351-3.09-1.054-.79-.711-1.19-1.61-1.19-2.696 0-1.32.5-2.343 1.5-3.07 1.01-.734 2.42-1.102 4.24-1.102h2.11v-.996c0-.757-.23-1.359-.68-1.804-.45-.453-1.12-.68-2-.68-.78 0-1.42.195-1.95.586-.52.391-.78.863-.78 1.418h-2.18c0-.633.22-1.242.66-1.828.46-.594 1.07-1.063 1.83-1.406a6.215 6.215 0 012.55-.516c1.46 0 2.6.367 3.43 1.102.83.726 1.26 1.73 1.29 3.011v5.836c0 1.164.15 2.09.44 2.777V311h-2.27zm-3.6-1.652c.68 0 1.33-.176 1.94-.528.61-.351 1.05-.808 1.32-1.371v-2.601h-1.7c-2.65 0-3.98.777-3.98 2.332 0 .679.22 1.211.68 1.593.45.383 1.03.575 1.74.575zm11.77-14.098v3.07h2.37v1.676h-2.37v7.863c0 .508.1.891.31 1.149.22.25.58.375 1.08.375.25 0 .6-.047 1.03-.141V311c-.57.156-1.12.234-1.66.234-.97 0-1.7-.293-2.19-.879-.49-.585-.74-1.417-.74-2.496v-7.863h-2.31v-1.676h2.31v-3.07h2.17zm12.74 15.75c-.13-.25-.23-.695-.31-1.336-1.01 1.047-2.21 1.57-3.61 1.57-1.25 0-2.27-.351-3.08-1.054-.8-.711-1.19-1.61-1.19-2.696 0-1.32.5-2.343 1.5-3.07 1-.734 2.42-1.102 4.24-1.102h2.11v-.996c0-.757-.23-1.359-.68-1.804-.46-.453-1.12-.68-2.01-.68-.77 0-1.42.195-1.94.586-.53.391-.79.863-.79 1.418h-2.18c0-.633.23-1.242.67-1.828.45-.594 1.06-1.063 1.83-1.406.77-.344 1.62-.516 2.54-.516 1.46 0 2.61.367 3.44 1.102.82.726 1.25 1.73 1.28 3.011v5.836c0 1.164.15 2.09.45 2.777V311h-2.27zm-3.6-1.652c.68 0 1.32-.176 1.93-.528.61-.351 1.05-.808 1.33-1.371v-2.601h-1.7c-2.66 0-3.99.777-3.99 2.332 0 .679.23 1.211.68 1.593.46.383 1.04.575 1.75.575z" fill="#fff"/><rect x="435" y="933" width="155" height="40" rx="20" fill="#000"/><path d="M477.533 944.938l5.578 13.921 5.578-13.921h2.918V962h-2.25v-6.645l.211-7.171L483.966 962h-1.722l-5.59-13.781.223 7.136V962h-2.25v-17.062h2.906zm17.133 10.605c0-1.242.242-2.359.726-3.352.492-.992 1.172-1.757 2.039-2.296.875-.54 1.871-.809 2.989-.809 1.726 0 3.121.598 4.183 1.793 1.07 1.195 1.606 2.785 1.606 4.769v.153c0 1.234-.239 2.344-.715 3.328-.469.976-1.145 1.738-2.028 2.285-.875.547-1.882.82-3.023.82-1.719 0-3.113-.597-4.184-1.793-1.062-1.195-1.593-2.777-1.593-4.746v-.152zm2.179.258c0 1.406.325 2.535.973 3.387.656.851 1.531 1.277 2.625 1.277 1.102 0 1.977-.43 2.625-1.289.648-.867.973-2.078.973-3.633 0-1.391-.332-2.516-.996-3.375-.657-.867-1.532-1.301-2.625-1.301-1.071 0-1.934.426-2.59 1.278-.657.851-.985 2.07-.985 3.656zm11.555-.246c0-1.946.461-3.508 1.383-4.688.922-1.187 2.129-1.781 3.621-1.781 1.484 0 2.66.508 3.527 1.523V944h2.168v18h-1.992l-.105-1.359c-.868 1.062-2.075 1.593-3.622 1.593-1.468 0-2.667-.601-3.597-1.804-.922-1.203-1.383-2.774-1.383-4.711v-.164zm2.168.246c0 1.437.297 2.562.891 3.375.593.812 1.414 1.219 2.461 1.219 1.375 0 2.378-.618 3.011-1.852v-5.824c-.648-1.196-1.644-1.793-2.988-1.793-1.063 0-1.891.41-2.484 1.23-.594.821-.891 2.035-.891 3.645zm19.734 4.945c-.843.992-2.082 1.488-3.714 1.488-1.352 0-2.383-.39-3.094-1.172-.703-.789-1.059-1.953-1.067-3.492v-8.25h2.168v8.192c0 1.922.782 2.883 2.344 2.883 1.656 0 2.758-.618 3.305-1.852v-9.223h2.168V962h-2.063l-.047-1.254zm7.77 1.254h-2.168v-18h2.168v18zm8.742.234c-1.719 0-3.117-.562-4.195-1.687-1.078-1.133-1.617-2.645-1.617-4.535v-.399c0-1.258.238-2.379.714-3.363.485-.992 1.157-1.766 2.016-2.32a5.068 5.068 0 012.813-.844c1.648 0 2.929.543 3.843 1.629.914 1.086 1.371 2.64 1.371 4.664v.902h-8.589c.031 1.25.394 2.262 1.089 3.035.704.766 1.594 1.149 2.672 1.149.766 0 1.414-.156 1.946-.469a4.87 4.87 0 001.394-1.242l1.324 1.031c-1.062 1.633-2.656 2.449-4.781 2.449zm-.269-11.367c-.875 0-1.61.321-2.204.961-.593.633-.961 1.524-1.101 2.672h6.351v-.164c-.062-1.102-.359-1.953-.89-2.555-.531-.609-1.25-.914-2.156-.914z" fill="#fff"/><rect x="1046" y="970" width="155" height="40" rx="20" fill="#000"/><path d="M1088.53 981.938l5.58 13.921 5.58-13.921h2.92V999h-2.25v-6.645l.21-7.171-5.6 13.816h-1.73l-5.59-13.781.23 7.136V999h-2.25v-17.062h2.9zm17.14 10.605c0-1.242.24-2.359.72-3.352.49-.992 1.17-1.757 2.04-2.296.88-.54 1.87-.809 2.99-.809 1.73 0 3.12.598 4.18 1.793 1.07 1.195 1.61 2.785 1.61 4.769v.153c0 1.234-.24 2.344-.72 3.328-.47.976-1.14 1.738-2.02 2.285-.88.547-1.89.82-3.03.82-1.72 0-3.11-.597-4.18-1.793-1.06-1.195-1.59-2.777-1.59-4.746v-.152zm2.18.258c0 1.406.32 2.535.97 3.387.65.851 1.53 1.277 2.62 1.277 1.1 0 1.98-.43 2.63-1.289.65-.867.97-2.078.97-3.633 0-1.391-.33-2.516-1-3.375-.65-.867-1.53-1.301-2.62-1.301-1.07 0-1.93.426-2.59 1.278-.66.851-.98 2.07-.98 3.656zm11.55-.246c0-1.946.46-3.508 1.38-4.688.92-1.187 2.13-1.781 3.62-1.781 1.49 0 2.66.508 3.53 1.523V981h2.17v18h-1.99l-.11-1.359c-.87 1.062-2.07 1.593-3.62 1.593-1.47 0-2.67-.601-3.6-1.804-.92-1.203-1.38-2.774-1.38-4.711v-.164zm2.17.246c0 1.437.29 2.562.89 3.375.59.812 1.41 1.219 2.46 1.219 1.37 0 2.38-.618 3.01-1.852v-5.824c-.65-1.196-1.64-1.793-2.99-1.793-1.06 0-1.89.41-2.48 1.23-.6.821-.89 2.035-.89 3.645zm19.73 4.945c-.84.992-2.08 1.488-3.71 1.488-1.35 0-2.39-.39-3.1-1.172-.7-.789-1.05-1.953-1.06-3.492v-8.25h2.17v8.192c0 1.922.78 2.883 2.34 2.883 1.66 0 2.76-.618 3.3-1.852v-9.223h2.17V999h-2.06l-.05-1.254zm7.77 1.254h-2.17v-18h2.17v18zm8.74.234c-1.71 0-3.11-.562-4.19-1.687-1.08-1.133-1.62-2.645-1.62-4.535v-.399c0-1.258.24-2.379.72-3.363.48-.992 1.15-1.766 2.01-2.32a5.084 5.084 0 012.81-.844c1.65 0 2.93.543 3.85 1.629.91 1.086 1.37 2.64 1.37 4.664v.902h-8.59c.03 1.25.39 2.262 1.09 3.035.7.766 1.59 1.149 2.67 1.149.77 0 1.42-.156 1.95-.469.53-.312.99-.726 1.39-1.242l1.33 1.031c-1.07 1.633-2.66 2.449-4.79 2.449zm-.27-11.367c-.87 0-1.6.321-2.2.961-.59.633-.96 1.524-1.1 2.672h6.35v-.164c-.06-1.102-.36-1.953-.89-2.555-.53-.609-1.25-.914-2.16-.914z" fill="#fff"/><rect x="1046" y="847" width="155" height="40" rx="20" fill="#000"/><path d="M1088.53 858.938l5.58 13.921 5.58-13.921h2.92V876h-2.25v-6.645l.21-7.171-5.6 13.816h-1.73l-5.59-13.781.23 7.136V876h-2.25v-17.062h2.9zm17.14 10.605c0-1.242.24-2.359.72-3.352.49-.992 1.17-1.757 2.04-2.296.88-.54 1.87-.809 2.99-.809 1.73 0 3.12.598 4.18 1.793 1.07 1.195 1.61 2.785 1.61 4.769v.153c0 1.234-.24 2.344-.72 3.328-.47.976-1.14 1.738-2.02 2.285-.88.547-1.89.82-3.03.82-1.72 0-3.11-.597-4.18-1.793-1.06-1.195-1.59-2.777-1.59-4.746v-.152zm2.18.258c0 1.406.32 2.535.97 3.387.65.851 1.53 1.277 2.62 1.277 1.1 0 1.98-.43 2.63-1.289.65-.867.97-2.078.97-3.633 0-1.391-.33-2.516-1-3.375-.65-.867-1.53-1.301-2.62-1.301-1.07 0-1.93.426-2.59 1.278-.66.851-.98 2.07-.98 3.656zm11.55-.246c0-1.946.46-3.508 1.38-4.688.92-1.187 2.13-1.781 3.62-1.781 1.49 0 2.66.508 3.53 1.523V858h2.17v18h-1.99l-.11-1.359c-.87 1.062-2.07 1.593-3.62 1.593-1.47 0-2.67-.601-3.6-1.804-.92-1.203-1.38-2.774-1.38-4.711v-.164zm2.17.246c0 1.437.29 2.562.89 3.375.59.812 1.41 1.219 2.46 1.219 1.37 0 2.38-.618 3.01-1.852v-5.824c-.65-1.196-1.64-1.793-2.99-1.793-1.06 0-1.89.41-2.48 1.23-.6.821-.89 2.035-.89 3.645zm19.73 4.945c-.84.992-2.08 1.488-3.71 1.488-1.35 0-2.39-.39-3.1-1.172-.7-.789-1.05-1.953-1.06-3.492v-8.25h2.17v8.192c0 1.922.78 2.883 2.34 2.883 1.66 0 2.76-.618 3.3-1.852v-9.223h2.17V876h-2.06l-.05-1.254zm7.77 1.254h-2.17v-18h2.17v18zm8.74.234c-1.71 0-3.11-.562-4.19-1.687-1.08-1.133-1.62-2.645-1.62-4.535v-.399c0-1.258.24-2.379.72-3.363.48-.992 1.15-1.766 2.01-2.32a5.084 5.084 0 012.81-.844c1.65 0 2.93.543 3.85 1.629.91 1.086 1.37 2.64 1.37 4.664v.902h-8.59c.03 1.25.39 2.262 1.09 3.035.7.766 1.59 1.149 2.67 1.149.77 0 1.42-.156 1.95-.469.53-.312.99-.726 1.39-1.242l1.33 1.031c-1.07 1.633-2.66 2.449-4.79 2.449zm-.27-11.367c-.87 0-1.6.321-2.2.961-.59.633-.96 1.524-1.1 2.672h6.35v-.164c-.06-1.102-.36-1.953-.89-2.555-.53-.609-1.25-.914-2.16-.914z" fill="#fff"/><rect x="464" y="282" width="155" height="40" rx="20" fill="#000"/><path d="M506.533 293.938l5.578 13.921 5.578-13.921h2.918V311h-2.25v-6.645l.211-7.171L512.966 311h-1.722l-5.59-13.781.223 7.136V311h-2.25v-17.062h2.906zm17.133 10.605c0-1.242.242-2.359.726-3.352.492-.992 1.172-1.757 2.039-2.296.875-.54 1.871-.809 2.989-.809 1.726 0 3.121.598 4.183 1.793 1.07 1.195 1.606 2.785 1.606 4.769v.153c0 1.234-.239 2.344-.715 3.328-.469.976-1.145 1.738-2.028 2.285-.875.547-1.882.82-3.023.82-1.719 0-3.113-.597-4.184-1.793-1.062-1.195-1.593-2.777-1.593-4.746v-.152zm2.179.258c0 1.406.325 2.535.973 3.387.656.851 1.531 1.277 2.625 1.277 1.102 0 1.977-.43 2.625-1.289.648-.867.973-2.078.973-3.633 0-1.391-.332-2.516-.996-3.375-.657-.867-1.532-1.301-2.625-1.301-1.071 0-1.934.426-2.59 1.278-.657.851-.985 2.07-.985 3.656zm11.555-.246c0-1.946.461-3.508 1.383-4.688.922-1.187 2.129-1.781 3.621-1.781 1.484 0 2.66.508 3.527 1.523V293h2.168v18h-1.992l-.105-1.359c-.868 1.062-2.075 1.593-3.622 1.593-1.468 0-2.667-.601-3.597-1.804-.922-1.203-1.383-2.774-1.383-4.711v-.164zm2.168.246c0 1.437.297 2.562.891 3.375.593.812 1.414 1.219 2.461 1.219 1.375 0 2.378-.618 3.011-1.852v-5.824c-.648-1.196-1.644-1.793-2.988-1.793-1.063 0-1.891.41-2.484 1.23-.594.821-.891 2.035-.891 3.645zm19.734 4.945c-.843.992-2.082 1.488-3.714 1.488-1.352 0-2.383-.39-3.094-1.172-.703-.789-1.059-1.953-1.067-3.492v-8.25h2.168v8.192c0 1.922.782 2.883 2.344 2.883 1.656 0 2.758-.618 3.305-1.852v-9.223h2.168V311h-2.063l-.047-1.254zm7.77 1.254h-2.168v-18h2.168v18zm8.742.234c-1.719 0-3.117-.562-4.195-1.687-1.078-1.133-1.617-2.645-1.617-4.535v-.399c0-1.258.238-2.379.714-3.363.485-.992 1.157-1.766 2.016-2.32a5.068 5.068 0 012.813-.844c1.648 0 2.929.543 3.843 1.629.914 1.086 1.371 2.64 1.371 4.664v.902h-8.589c.031 1.25.394 2.262 1.089 3.035.704.766 1.594 1.149 2.672 1.149.766 0 1.414-.156 1.946-.469a4.87 4.87 0 001.394-1.242l1.324 1.031c-1.062 1.633-2.656 2.449-4.781 2.449zm-.269-11.367c-.875 0-1.61.321-2.204.961-.593.633-.961 1.524-1.101 2.672h6.351v-.164c-.062-1.102-.359-1.953-.89-2.555-.531-.609-1.25-.914-2.156-.914z" fill="#fff"/><rect x="1077" y="124" width="218" height="40" rx="20" fill="#000"/><path d="M1123.26 135.938l5.58 13.921 5.57-13.921h2.92V153h-2.25v-6.645l.21-7.171-5.6 13.816h-1.72l-5.59-13.781.22 7.136V153h-2.25v-17.062h2.91zm17.13 10.605c0-1.242.24-2.359.73-3.352.49-.992 1.17-1.757 2.04-2.296.87-.54 1.87-.809 2.99-.809 1.72 0 3.12.598 4.18 1.793 1.07 1.195 1.6 2.785 1.6 4.769v.153c0 1.234-.23 2.344-.71 3.328a5.375 5.375 0 01-2.03 2.285c-.87.547-1.88.82-3.02.82-1.72 0-3.11-.597-4.18-1.793-1.07-1.195-1.6-2.777-1.6-4.746v-.152zm2.18.258c0 1.406.33 2.535.97 3.387.66.851 1.53 1.277 2.63 1.277 1.1 0 1.98-.43 2.62-1.289.65-.867.98-2.078.98-3.633 0-1.391-.34-2.516-1-3.375-.66-.867-1.53-1.301-2.62-1.301-1.08 0-1.94.426-2.59 1.278-.66.851-.99 2.07-.99 3.656zm11.56-.246c0-1.946.46-3.508 1.38-4.688.92-1.187 2.13-1.781 3.62-1.781 1.48 0 2.66.508 3.53 1.523V135h2.16v18h-1.99l-.1-1.359c-.87 1.062-2.08 1.593-3.62 1.593-1.47 0-2.67-.601-3.6-1.804-.92-1.203-1.38-2.774-1.38-4.711v-.164zm2.16.246c0 1.437.3 2.562.89 3.375.6.812 1.42 1.219 2.47 1.219 1.37 0 2.37-.618 3.01-1.852v-5.824c-.65-1.196-1.65-1.793-2.99-1.793-1.06 0-1.89.41-2.49 1.23-.59.821-.89 2.035-.89 3.645zm19.74 4.945c-.85.992-2.08 1.488-3.72 1.488-1.35 0-2.38-.39-3.09-1.172-.7-.789-1.06-1.953-1.07-3.492v-8.25h2.17v8.192c0 1.922.78 2.883 2.34 2.883 1.66 0 2.76-.618 3.31-1.852v-9.223h2.17V153h-2.07l-.04-1.254zm7.77 1.254h-2.17v-18h2.17v18zm8.74.234c-1.72 0-3.12-.562-4.2-1.687-1.07-1.133-1.61-2.645-1.61-4.535v-.399c0-1.258.24-2.379.71-3.363.49-.992 1.16-1.766 2.02-2.32.86-.563 1.8-.844 2.81-.844 1.65 0 2.93.543 3.84 1.629.92 1.086 1.38 2.64 1.38 4.664v.902h-8.59c.03 1.25.39 2.262 1.09 3.035.7.766 1.59 1.149 2.67 1.149.76 0 1.41-.156 1.94-.469.53-.312 1-.726 1.4-1.242l1.32 1.031c-1.06 1.633-2.66 2.449-4.78 2.449zm-.27-11.367c-.87 0-1.61.321-2.2.961-.6.633-.96 1.524-1.1 2.672h6.35v-.164c-.07-1.102-.36-1.953-.89-2.555-.53-.609-1.25-.914-2.16-.914zM1206.3 153v-17.062h4.81c1.49 0 2.8.328 3.94.984 1.14.656 2.02 1.59 2.64 2.801.62 1.211.94 2.601.95 4.172v1.089c0 1.61-.32 3.02-.94 4.231-.62 1.211-1.5 2.14-2.66 2.789-1.15.648-2.49.98-4.02.996h-4.72zm2.25-15.211v13.371h2.36c1.74 0 3.09-.539 4.05-1.617.97-1.078 1.45-2.613 1.45-4.605v-.997c0-1.937-.46-3.441-1.37-4.511-.91-1.078-2.2-1.625-3.87-1.641h-2.62zM1229.54 153c-.13-.25-.23-.695-.31-1.336-1.01 1.047-2.21 1.57-3.61 1.57-1.25 0-2.28-.351-3.08-1.054-.8-.711-1.2-1.61-1.2-2.696 0-1.32.5-2.343 1.5-3.07 1.01-.734 2.43-1.102 4.25-1.102h2.11v-.996c0-.757-.23-1.359-.68-1.804-.46-.453-1.12-.68-2.01-.68-.77 0-1.42.195-1.94.586-.53.391-.79.863-.79 1.418h-2.18c0-.633.22-1.242.67-1.828.45-.594 1.06-1.063 1.83-1.406.77-.344 1.62-.516 2.54-.516 1.46 0 2.61.367 3.43 1.102.83.726 1.26 1.73 1.29 3.011v5.836c0 1.164.15 2.09.45 2.777V153h-2.27zm-3.6-1.652c.68 0 1.32-.176 1.93-.528.61-.351 1.05-.808 1.33-1.371v-2.601h-1.7c-2.66 0-3.99.777-3.99 2.332 0 .679.23 1.211.68 1.593.46.383 1.04.575 1.75.575zm11.76-14.098v3.07h2.37v1.676h-2.37v7.863c0 .508.11.891.32 1.149.21.25.57.375 1.08.375.25 0 .59-.047 1.03-.141V153c-.57.156-1.13.234-1.66.234-.97 0-1.7-.293-2.2-.879-.49-.585-.73-1.417-.73-2.496v-7.863h-2.31v-1.676h2.31v-3.07h2.16zm12.74 15.75c-.12-.25-.22-.695-.3-1.336-1.01 1.047-2.21 1.57-3.61 1.57-1.25 0-2.28-.351-3.08-1.054-.8-.711-1.2-1.61-1.2-2.696 0-1.32.5-2.343 1.5-3.07 1.01-.734 2.42-1.102 4.24-1.102h2.11v-.996c0-.757-.22-1.359-.68-1.804-.45-.453-1.12-.68-2-.68-.77 0-1.42.195-1.95.586-.52.391-.78.863-.78 1.418h-2.18c0-.633.22-1.242.67-1.828.45-.594 1.06-1.063 1.82-1.406a6.249 6.249 0 012.55-.516c1.46 0 2.6.367 3.43 1.102.83.726 1.26 1.73 1.29 3.011v5.836c0 1.164.15 2.09.45 2.777V153h-2.28zm-3.6-1.652c.68 0 1.33-.176 1.94-.528.61-.351 1.05-.808 1.32-1.371v-2.601h-1.7c-2.65 0-3.98.777-3.98 2.332 0 .679.23 1.211.68 1.593.45.383 1.03.575 1.74.575z" fill="#fff"/><rect x="901" y="569" width="260" height="40" rx="20" fill="#000"/><path d="M939.949 592.621l.329 2.25.48-2.027 3.375-11.906h1.898l3.293 11.906.469 2.062.363-2.297 2.649-11.671h2.262L950.93 598h-2.051l-3.515-12.434-.27-1.3-.27 1.3L941.18 598h-2.051l-4.125-17.062h2.25l2.695 11.683zm22.172 5.613c-1.718 0-3.117-.562-4.195-1.687-1.078-1.133-1.617-2.645-1.617-4.535v-.399c0-1.258.238-2.379.715-3.363.484-.992 1.156-1.766 2.015-2.32a5.068 5.068 0 012.813-.844c1.648 0 2.929.543 3.844 1.629.914 1.086 1.371 2.64 1.371 4.664v.902h-8.59c.031 1.25.394 2.262 1.09 3.035.703.766 1.593 1.149 2.672 1.149.765 0 1.414-.156 1.945-.469a4.87 4.87 0 001.394-1.242l1.325 1.031c-1.063 1.633-2.657 2.449-4.782 2.449zm-.269-11.367c-.875 0-1.61.321-2.203.961-.594.633-.961 1.524-1.102 2.672h6.352v-.164c-.063-1.102-.36-1.953-.891-2.555-.531-.609-1.25-.914-2.156-.914zm18.469 4.934c0 1.937-.446 3.496-1.336 4.676-.891 1.171-2.086 1.757-3.586 1.757-1.602 0-2.84-.566-3.715-1.699l-.106 1.465h-1.992v-18h2.168v6.715c.875-1.086 2.082-1.629 3.621-1.629 1.539 0 2.746.582 3.621 1.746.883 1.164 1.325 2.758 1.325 4.781v.188zm-2.168-.246c0-1.477-.286-2.617-.856-3.422-.57-.805-1.391-1.207-2.461-1.207-1.43 0-2.457.664-3.082 1.992v5.484c.664 1.328 1.699 1.993 3.106 1.993 1.039 0 1.847-.403 2.425-1.207.579-.805.868-2.016.868-3.633zm12.293 3.082c0-.586-.223-1.039-.668-1.36-.438-.328-1.207-.609-2.309-.843-1.094-.235-1.965-.516-2.613-.844-.641-.328-1.117-.719-1.43-1.172-.305-.453-.457-.992-.457-1.617 0-1.039.437-1.918 1.312-2.637.883-.719 2.008-1.078 3.375-1.078 1.438 0 2.602.371 3.493 1.113.898.742 1.347 1.692 1.347 2.848h-2.179c0-.594-.254-1.106-.762-1.535-.5-.43-1.133-.645-1.899-.645-.789 0-1.406.172-1.851.516-.445.344-.668.793-.668 1.347 0 .524.207.918.621 1.184.414.266 1.16.52 2.238.762 1.086.242 1.965.531 2.637.867.672.336 1.168.742 1.488 1.219.328.468.493 1.043.493 1.722 0 1.133-.454 2.043-1.36 2.731-.906.68-2.082 1.019-3.527 1.019-1.016 0-1.914-.179-2.696-.539-.781-.359-1.394-.859-1.839-1.5a3.673 3.673 0 01-.657-2.097h2.168c.039.726.328 1.304.868 1.734.546.422 1.265.633 2.156.633.82 0 1.476-.164 1.969-.492.5-.336.75-.782.75-1.336zm7.347 3.363h-2.168v-12.68h2.168V598zm-2.344-16.043c0-.352.106-.648.317-.891.219-.242.539-.363.961-.363.422 0 .742.121.961.363.218.243.328.539.328.891s-.11.645-.328.879c-.219.234-.539.352-.961.352-.422 0-.742-.118-.961-.352-.211-.234-.317-.527-.317-.879zm8.771.293v3.07h2.36v1.676h-2.36v7.863c0 .508.1.891.31 1.149.21.25.57.375 1.08.375.25 0 .59-.047 1.03-.141V598c-.57.156-1.12.234-1.66.234-.97 0-1.7-.293-2.19-.879-.5-.585-.74-1.417-.74-2.496v-7.863h-2.311v-1.676h2.311v-3.07h2.17zm10.17 15.984c-1.72 0-3.12-.562-4.2-1.687-1.08-1.133-1.62-2.645-1.62-4.535v-.399c0-1.258.24-2.379.72-3.363.48-.992 1.16-1.766 2.01-2.32a5.092 5.092 0 012.82-.844c1.65 0 2.93.543 3.84 1.629.92 1.086 1.37 2.64 1.37 4.664v.902h-8.59c.03 1.25.4 2.262 1.09 3.035.71.766 1.6 1.149 2.67 1.149.77 0 1.42-.156 1.95-.469.53-.312 1-.726 1.39-1.242l1.33 1.031c-1.06 1.633-2.66 2.449-4.78 2.449zm-.27-11.367c-.88 0-1.61.321-2.21.961-.59.633-.96 1.524-1.1 2.672h6.35v-.164c-.06-1.102-.36-1.953-.89-2.555-.53-.609-1.25-.914-2.15-.914zm23.43 3.598h-7.16V598h-2.25v-17.062h10.58v1.851h-8.33v5.836h7.16v1.84zm9.34-3.199a6.338 6.338 0 00-1.06-.082c-1.42 0-2.39.605-2.9 1.816v9h-2.16v-12.68h2.11l.03 1.465c.71-1.133 1.72-1.699 3.02-1.699.43 0 .75.055.96.164v2.016zm1.2 4.277c0-1.242.24-2.359.73-3.352.49-.992 1.17-1.757 2.04-2.296.87-.54 1.87-.809 2.98-.809 1.73 0 3.13.598 4.19 1.793 1.07 1.195 1.6 2.785 1.6 4.769v.153c0 1.234-.24 2.344-.71 3.328a5.375 5.375 0 01-2.03 2.285c-.87.547-1.88.82-3.02.82-1.72 0-3.12-.597-4.19-1.793-1.06-1.195-1.59-2.777-1.59-4.746v-.152zm2.18.258c0 1.406.32 2.535.97 3.387.66.851 1.53 1.277 2.63 1.277 1.1 0 1.97-.43 2.62-1.289.65-.867.98-2.078.98-3.633 0-1.391-.34-2.516-1-3.375-.66-.867-1.53-1.301-2.63-1.301-1.07 0-1.93.426-2.59 1.278-.65.851-.98 2.07-.98 3.656zm14.13-6.481l.07 1.594c.97-1.219 2.24-1.828 3.8-1.828 2.68 0 4.03 1.512 4.05 4.535V598h-2.16v-8.391c-.01-.914-.22-1.589-.64-2.027-.4-.437-1.04-.656-1.91-.656-.7 0-1.32.187-1.85.562-.53.375-.94.867-1.24 1.477V598h-2.17v-12.68h2.05zm14.14-3.07v3.07h2.36v1.676h-2.36v7.863c0 .508.1.891.31 1.149.21.25.57.375 1.08.375.25 0 .59-.047 1.03-.141V598c-.57.156-1.12.234-1.66.234-.97 0-1.7-.293-2.19-.879-.5-.585-.74-1.417-.74-2.496v-7.863h-2.31v-1.676h2.31v-3.07h2.17zm20.84 7.863h-7.39v6.047h8.59V598h-10.84v-17.062h10.72v1.851h-8.47v5.484h7.39v1.84zm5.71-4.793l.07 1.594c.97-1.219 2.23-1.828 3.8-1.828 2.68 0 4.03 1.512 4.05 4.535V598h-2.17v-8.391c0-.914-.21-1.589-.63-2.027-.41-.437-1.04-.656-1.91-.656-.7 0-1.32.187-1.85.562-.53.375-.95.867-1.24 1.477V598h-2.17v-12.68h2.05zm10.66 6.235c0-1.946.47-3.508 1.39-4.688.92-1.187 2.13-1.781 3.62-1.781 1.48 0 2.66.508 3.53 1.523V580h2.16v18h-1.99l-.1-1.359c-.87 1.062-2.08 1.593-3.63 1.593-1.46 0-2.66-.601-3.59-1.804-.92-1.203-1.39-2.774-1.39-4.711v-.164zm2.17.246c0 1.437.3 2.562.89 3.375.6.812 1.42 1.219 2.46 1.219 1.38 0 2.38-.618 3.02-1.852v-5.824c-.65-1.196-1.65-1.793-2.99-1.793-1.07 0-1.89.41-2.49 1.23-.59.821-.89 2.035-.89 3.645z" fill="#fff"/><circle cx="362" cy="953" r="9" fill="#fff" stroke="#000" stroke-width="2"/><circle cx="362" cy="857" r="9" fill="#fff" stroke="#000" stroke-width="2"/><circle cx="720" cy="302" r="9" fill="#fff" stroke="#000" stroke-width="2"/><circle cx="721" cy="181" r="9" fill="#fff" stroke="#000" stroke-width="2"/><circle cx="1350" cy="144" r="9" fill="#fff" stroke="#000" stroke-width="2"/><circle cx="1023" cy="144" r="9" fill="#fff" stroke="#000" stroke-width="2"/><circle cx="346" cy="181" r="9" fill="#fff" stroke="#000" stroke-width="2"/><circle cx="816" cy="589" r="9" fill="#fff" stroke="#000" stroke-width="2"/><circle cx="969" cy="867" r="9" fill="#fff" stroke="#000" stroke-width="2"/><circle cx="1025" cy="302" r="9" fill="#fff" stroke="#000" stroke-width="2"/><circle cx="969" cy="990" r="9" fill="#fff" stroke="#000" stroke-width="2"/></svg>
