<?xml version="1.0" encoding="UTF-8" standalone="no"?><!DOCTYPE svg PUBLIC "-//W3C//DTD SVG 1.1//EN" "http://www.w3.org/Graphics/SVG/1.1/DTD/svg11.dtd"><svg width="100%" height="100%" viewBox="0 0 4086 3133" version="1.1" xmlns="http://www.w3.org/2000/svg" xmlns:xlink="http://www.w3.org/1999/xlink" xml:space="preserve" xmlns:serif="http://www.serif.com/" style="fill-rule:evenodd;clip-rule:evenodd;stroke-linejoin:round;stroke-miterlimit:2;"><rect x="1306.23" y="487.499" width="8.333" height="445.833" style="fill:#6e6e6e;"/><rect x="1306.23" y="1066.04" width="8.333" height="392.289" style="fill:#6e6e6e;"/><rect x="1293.73" y="1520.83" width="645.833" height="8.333" style="fill:#6e6e6e;"/><rect x="1018.73" y="1633.33" width="8.333" height="354.167" style="fill:#6e6e6e;"/><rect x="1093.73" y="2050" width="979.167" height="8.333" style="fill:#6e6e6e;"/><rect x="2881.23" y="204.166" width="8.333" height="420.833" style="fill:#6e6e6e;"/><rect x="2206.08" y="691.666" width="612.642" height="8.333" style="fill:#6e6e6e;"/><rect x="2135.39" y="758.333" width="8.333" height="562.5" style="fill:#6e6e6e;"/><path d="M1310.39,1070.83c-38.858,-0 -70.833,-31.976 -70.833,-70.834c-0,-38.858 31.975,-70.833 70.833,-70.833c38.858,0 70.834,31.975 70.834,70.833c-0.044,38.842 -31.992,70.79 -70.834,70.834Zm0,-133.334c-34.286,0 -62.5,28.214 -62.5,62.5c0,34.287 28.214,62.5 62.5,62.5c34.287,0 62.5,-28.213 62.5,-62.5c-0.038,-34.272 -28.228,-62.461 -62.5,-62.5Z" style="fill:#22c1c3;fill-rule:nonzero;"/><path d="M1027.06,2125c-38.858,0 -70.833,-31.975 -70.833,-70.833c-0,-38.858 31.975,-70.833 70.833,-70.833c38.858,-0 70.833,31.975 70.833,70.833c-0.043,38.842 -31.992,70.79 -70.833,70.833Zm-0,-133.333c-34.287,0 -62.5,28.214 -62.5,62.5c-0,34.287 28.213,62.5 62.5,62.5c34.286,0 62.5,-28.213 62.5,-62.5c-0.038,-34.272 -28.228,-62.462 -62.5,-62.5Z" style="fill:#22c1c3;fill-rule:nonzero;"/><circle cx="1314.56" cy="1525" r="66.667" style="fill:#f9a826;"/><rect x="3035.39" y="995.833" width="691.667" height="8.333" style="fill:#6e6e6e;"/><rect x="2964.56" y="1066.04" width="8.333" height="392.289" style="fill:#6e6e6e;"/><rect x="2343.73" y="1520.83" width="554.167" height="8.333" style="fill:#6e6e6e;"/><rect x="3318.73" y="1558.33" width="575" height="8.333" style="fill:#6e6e6e;"/><rect x="3252.06" y="1633.33" width="8.333" height="354.167" style="fill:#6e6e6e;"/><rect x="2206.23" y="2050" width="979.167" height="8.333" style="fill:#6e6e6e;"/><rect x="2135.39" y="1729.17" width="8.333" height="258.333" style="fill:#6e6e6e;"/><circle cx="2968.72" cy="1000" r="66.667" style="fill:#f9a826;"/><path d="M2885.39,762.499c-38.858,0 -70.833,-31.975 -70.833,-70.833c-0,-38.858 31.975,-70.833 70.833,-70.833c38.858,-0 70.834,31.975 70.834,70.833c-0.044,38.842 -31.992,70.79 -70.834,70.833Zm0,-133.333c-34.286,0 -62.5,28.214 -62.5,62.5c0,34.287 28.214,62.5 62.5,62.5c34.287,0 62.5,-28.213 62.5,-62.5c-0.038,-34.272 -28.228,-62.462 -62.5,-62.5Z" style="fill:#22c1c3;fill-rule:nonzero;"/><path d="M2139.56,762.499c-38.858,0 -70.833,-31.975 -70.833,-70.833c-0,-38.858 31.975,-70.833 70.833,-70.833c38.858,-0 70.833,31.975 70.833,70.833c-0.043,38.842 -31.992,70.79 -70.833,70.833Zm-0,-133.333c-34.287,0 -62.5,28.214 -62.5,62.5c-0,34.287 28.213,62.5 62.5,62.5c34.286,0 62.5,-28.213 62.5,-62.5c-0.038,-34.272 -28.228,-62.462 -62.5,-62.5Z" style="fill:#22c1c3;fill-rule:nonzero;"/><path d="M3252.06,1637.5c-38.858,0 -70.833,-31.975 -70.833,-70.833c-0,-38.858 31.975,-70.833 70.833,-70.833c38.858,-0 70.833,31.975 70.833,70.833c-0.043,38.842 -31.992,70.79 -70.833,70.833Zm-0,-133.333c-34.287,0 -62.5,28.214 -62.5,62.5c-0,34.287 28.213,62.5 62.5,62.5c34.286,0 62.5,-28.213 62.5,-62.5c-0.038,-34.272 -28.228,-62.462 -62.5,-62.5Z" style="fill:#22c1c3;fill-rule:nonzero;"/><circle cx="3252.06" cy="2054.17" r="66.667" style="fill:#f9a826;"/><path d="M2139.56,2125c-38.858,0 -70.833,-31.975 -70.833,-70.833c-0,-38.858 31.975,-70.833 70.833,-70.833c38.858,-0 70.833,31.975 70.833,70.833c-0.043,38.842 -31.992,70.79 -70.833,70.833Zm-0,-133.333c-34.287,0 -62.5,28.214 -62.5,62.5c-0,34.287 28.213,62.5 62.5,62.5c34.286,0 62.5,-28.213 62.5,-62.5c-0.038,-34.272 -28.228,-62.462 -62.5,-62.5Z" style="fill:#22c1c3;fill-rule:nonzero;"/><path d="M2964.56,1595.83c-38.858,-0 -70.833,-31.976 -70.833,-70.834c-0,-38.858 31.975,-70.833 70.833,-70.833c38.858,0 70.833,31.975 70.833,70.833c-0.043,38.842 -31.992,70.79 -70.833,70.834Zm-0,-133.334c-34.287,0 -62.5,28.214 -62.5,62.5c-0,34.287 28.213,62.5 62.5,62.5c34.286,0 62.5,-28.213 62.5,-62.5c-0.038,-34.272 -28.228,-62.461 -62.5,-62.5Z" style="fill:#22c1c3;fill-rule:nonzero;"/><path d="M1027.06,1425c-45.716,0 -83.334,37.618 -83.334,83.333c0,45.716 37.618,83.334 83.334,83.334c45.715,-0 83.333,-37.618 83.333,-83.334c-0.134,-45.664 -37.669,-83.199 -83.333,-83.333Zm-0,25c13.714,0 25,11.285 25,25c-0,13.715 -11.286,25 -25,25c-13.715,0 -25,-11.285 -25,-25c0.045,-13.697 11.302,-24.954 25,-25Zm-0,120.353c-20.032,-0.092 -38.773,-10.093 -50,-26.683c0.4,-16.667 33.333,-25.841 50,-25.841c16.666,-0 49.599,9.174 50,25.841c-11.24,16.577 -29.973,26.574 -50,26.683Z" style="fill:#fff;fill-rule:nonzero;"/><path d="M1314.56,287.5c-45.716,0 -83.334,37.618 -83.334,83.333c0,45.716 37.618,83.334 83.334,83.334c45.715,-0 83.333,-37.618 83.333,-83.334c-0.134,-45.664 -37.669,-83.199 -83.333,-83.333Zm-0,25c13.714,0 25,11.285 25,25c-0,13.715 -11.286,25 -25,25c-13.715,0 -25,-11.285 -25,-25c0.045,-13.697 11.302,-24.954 25,-25Zm-0,120.353c-20.032,-0.092 -38.773,-10.093 -50,-26.683c0.4,-16.667 33.333,-25.841 50,-25.841c16.666,-0 49.599,9.174 50,25.841c-11.24,16.577 -29.973,26.574 -50,26.683Z" style="fill:#fff;fill-rule:nonzero;"/><path d="M2885.39,0c-45.715,0 -83.333,37.618 -83.333,83.333c-0,45.716 37.618,83.334 83.333,83.334c45.715,-0 83.333,-37.618 83.333,-83.334c-0.133,-45.664 -37.668,-83.199 -83.333,-83.333Zm0,25c13.715,0 25,11.285 25,25c0,13.715 -11.285,25 -25,25c-13.715,0 -25,-11.285 -25,-25c0.046,-13.697 11.303,-24.954 25,-25Zm0,120.353c-20.032,-0.092 -38.773,-10.093 -50,-26.683c0.401,-16.667 33.333,-25.841 50,-25.841c16.667,-0 49.599,9.174 50,25.841c-11.24,16.577 -29.972,26.574 -50,26.683Z" style="fill:#fff;fill-rule:nonzero;"/><path d="M3843.72,912.5c-45.715,0 -83.333,37.618 -83.333,83.333c0,45.716 37.618,83.334 83.333,83.334c45.716,-0 83.334,-37.618 83.334,-83.334c-0.134,-45.664 -37.669,-83.199 -83.334,-83.333Zm0,25c13.715,0 25,11.285 25,25c0,13.715 -11.285,25 -25,25c-13.714,0 -25,-11.285 -25,-25c0.046,-13.697 11.303,-24.954 25,-25Zm0,120.353c-20.032,-0.092 -38.772,-10.093 -50,-26.683c0.401,-16.667 33.334,-25.841 50,-25.841c16.667,-0 49.6,9.174 50,25.841c-11.239,16.577 -29.972,26.574 -50,26.683Z" style="fill:#fff;fill-rule:nonzero;"/><path d="M4002.06,1475c-45.716,0 -83.334,37.618 -83.334,83.333c0,45.716 37.618,83.334 83.334,83.334c45.715,-0 83.333,-37.618 83.333,-83.334c-0.134,-45.664 -37.669,-83.199 -83.333,-83.333Zm-0,25c13.714,0 25,11.285 25,25c-0,13.715 -11.286,25 -25,25c-13.715,0 -25,-11.285 -25,-25c0.045,-13.697 11.302,-24.954 25,-25Zm-0,120.353c-20.032,-0.092 -38.773,-10.093 -50,-26.683c0.4,-16.667 33.333,-25.841 50,-25.841c16.666,-0 49.599,9.174 50,25.841c-11.24,16.577 -29.973,26.574 -50,26.683Z" style="fill:#fff;fill-rule:nonzero;"/><clipPath id="_clip1"><rect id="deno-light" x="1989.46" y="1367.07" width="312.44" height="312.44"/></clipPath><g clip-path="url(#_clip1)"><path d="M2095.71,1464.45c-0.724,-3.239 0.706,-6.601 3.542,-8.327c2.834,-1.727 6.476,-1.454 9.022,0.675c1.739,1.476 2.742,3.644 2.742,5.924c0,4.262 -3.507,7.769 -7.769,7.769c-1.801,-0 -3.547,-0.626 -4.937,-1.771c-1.313,-1.097 -2.228,-2.599 -2.6,-4.27Zm-105.642,72.46c7.52,85.921 83.279,149.518 169.223,141.999c2.359,-0.208 4.686,-0.474 7.029,-0.781c-0.182,-4.166 -3.947,-85.843 -20.307,-140.307c-1.045,-3.526 -4.307,-5.962 -7.985,-5.962c-0.911,0 -1.816,0.15 -2.678,0.443c-44.962,15.195 -88.256,6.285 -99.061,-21.444c-11.455,-29.421 17.99,-68.888 65.788,-88.15c25.514,-10.284 51.095,-12.726 71.147,-8.3c20.051,4.426 96.441,11.747 86.475,215.635c30.367,-32.352 45.513,-76.184 41.597,-120.383c-7.534,-85.801 -83.085,-149.356 -168.92,-142.009c-86.095,7.358 -149.837,83.203 -142.308,169.259l-0,0Zm80.274,-68.08c3.314,0.142 6.369,-1.854 7.569,-4.946c1.2,-3.092 0.294,-6.627 -2.246,-8.759c-1.398,-1.174 -3.166,-1.817 -4.991,-1.817c-4.259,-0 -7.763,3.504 -7.763,7.762c-0,0.564 0.061,1.127 0.183,1.678c0.757,3.424 3.744,5.931 7.248,6.082Z" style="fill:#fff;fill-rule:nonzero;"/></g><path d="M633.332,3055.39c-11.856,107.817 -634.274,98.766 -633.331,-0.007c11.856,-107.811 634.274,-98.76 633.331,0.007Z" style="fill:#515151;fill-rule:nonzero;"/><path d="M432.308,2783.98l25.234,54.667l46.254,-4.204l29.437,-96.721l-46.258,-25.229l-54.667,71.487Z" style="fill:#22c1c3;fill-rule:nonzero;"/><path d="M273.508,2909.89l-0.995,38.095l71.487,4.205l0,-46.255l-70.492,3.955Z" style="fill:#22c1c3;fill-rule:nonzero;"/><path d="M297.742,2216.28l16.821,336.413l-42.051,365.85l126.155,16.821l79.9,-462.567l25.229,-315.392l-206.054,58.875Z" style="fill:#eaeaea;fill-rule:nonzero;"/><path d="M100.1,2094.33c-0,-0 -50.463,332.209 54.667,441.544c105.13,109.335 248.106,302.773 248.106,302.773l100.924,-126.155l-256.516,-273.337l50.462,-185.028l206.055,-96.719l-33.642,-231.286l-302.773,-4.205l-67.283,172.413Z" style="fill:#eaeaea;fill-rule:nonzero;"/><circle cx="348.206" cy="1232.27" r="92.514" style="fill:#ffb8b8;"/><path d="M268.307,1253.3c0,-0 -4.205,130.36 -25.231,147.181c-21.026,16.821 75.693,88.309 75.693,88.309l63.078,-100.924l0,-92.515l-113.54,-42.051Z" style="fill:#ffb8b8;fill-rule:nonzero;"/><path d="M310.358,1429.91l-51.054,-77.091l-28.846,39.246l-42.05,117.746l33.642,458.362l197.642,4.204l25.233,-525.646l-63.079,-75.691l-71.488,58.87Z" style="fill:#d0cde1;fill-rule:nonzero;"/><path d="M524.823,1459.35l33.642,-4.206c-0,0 8.41,4.206 12.615,33.642c4.206,29.437 54.668,290.158 54.668,290.158l-67.283,319.594l-75.693,-100.925l46.257,-176.617l-46.257,-176.618l42.051,-185.028Z" style="fill:#f2f2f2;fill-rule:nonzero;"/><path d="M95.896,1455.14l-25.233,-0l-63.076,340.621l58.871,264.929l58.871,-96.721l-16.821,-105.129l8.413,-92.513l29.437,-54.671l-50.462,-256.516Z" style="fill:#f2f2f2;fill-rule:nonzero;"/><path d="M470.156,2821.83c-0,-0 -25.231,-8.411 -25.231,8.41c-0,16.821 16.821,67.283 16.821,67.283c-0,-0 -25.231,155.592 12.615,147.181c37.847,-8.41 67.283,-79.898 71.488,-100.924c4.206,-21.026 25.231,-130.361 25.231,-130.361c0,0 33.642,-79.898 12.616,-84.103c-21.026,-4.206 -79.899,-21.026 -79.899,-21.026c0,-0 33.642,105.129 -33.641,113.54Z" style="fill:#fff;fill-rule:nonzero;"/><path d="M348.206,2952.19c-0,0 -67.283,-42.052 -79.899,-8.41c-8.367,24.538 -14.008,49.922 -16.821,75.693c-2.813,25.772 -16.821,54.668 50.462,46.257c67.283,-8.41 58.873,-8.41 63.078,-33.641c4.205,-25.232 -16.82,-79.899 -16.82,-79.899Z" style="fill:#fff;fill-rule:nonzero;"/><path d="M293.538,1232.27l16.821,-4.205c-0,-0 12.615,-71.489 42.052,-63.078c29.436,8.41 105.129,16.821 105.129,-16.821c0,-33.642 -71.488,-63.078 -113.54,-58.873c-42.051,4.206 -113.54,16.821 -109.334,79.899c4.205,63.078 31.34,124.439 31.34,124.439l2.191,-37.399l25.341,-23.962Z" style="fill:#c36722;fill-rule:nonzero;"/><path d="M381.846,1480.38l-71.488,-50.463l71.488,-58.87l24.821,29.779l-24.821,79.554Z" style="fill:#d0cde1;fill-rule:nonzero;"/><path d="M247.279,1476.17l63.079,-46.259l-50.462,-75.691l-29.438,37.846l16.821,84.104Z" style="fill:#d0cde1;fill-rule:nonzero;"/><path d="M554.26,1455.14l-134.566,-54.668l-31.539,-23.128l-94.617,418.415l-63.078,-189.233l18.924,-241.798l-174.515,90.412l58.872,285.952l8.411,109.335l-25.231,88.309c-0,-0 -88.309,63.078 -58.873,130.36c29.436,67.283 63.078,71.489 63.078,71.489c-0,-0 142.976,-134.566 151.386,-168.208c8.411,-33.641 21.026,-92.514 21.026,-92.514c0,0 71.488,269.132 155.592,264.927c84.103,-4.205 84.104,-92.514 84.104,-92.514l-21.026,-92.514l-33.642,-96.72l16.821,-159.797l58.873,-248.105Z" style="fill:#f2f2f2;fill-rule:nonzero;"/></svg>