<svg fill="none" xmlns="http://www.w3.org/2000/svg" viewBox="0 0 156 30">
  <path d="M.5 3.75C.5 1.953 1.95.5 3.732.5h148.536a3.242 3.242 0 0 1 3.232 3.25v22.5c0 1.797-1.45 3.25-3.232 3.25H3.732A3.241 3.241 0 0 1 .5 26.25V3.75Z" fill="#1F2937" stroke="#6B7280"/>
  <path fill-rule="evenodd" clip-rule="evenodd" d="m14.928 9.75 5.971 10.5H8.957l5.971-10.5Z" fill="#F9FAFB"/>
  <path d="M29.857 0v30" stroke="#6B7280"/>
  <path d="M39.768 19.5h1.31v-3.068h1.781c2.015 0 3.011-1.223 3.011-2.834 0-1.607-.988-2.825-3.006-2.825h-3.096V19.5Zm1.31-4.185v-3.413h1.645c1.298 0 1.828.707 1.828 1.696s-.53 1.717-1.81 1.717h-1.663Zm8.89 4.317c1.835 0 3.036-1.35 3.036-3.375 0-2.037-1.2-3.388-3.037-3.388-1.836 0-3.036 1.351-3.036 3.388 0 2.024 1.2 3.375 3.036 3.375Zm.003-1.07c-1.2 0-1.76-1.052-1.76-2.31 0-1.252.56-2.317 1.76-2.317 1.192 0 1.752 1.065 1.752 2.318 0 1.257-.56 2.31-1.752 2.31Zm5.662.938h1.29l1.323-4.726h.097l1.323 4.726h1.294l1.913-6.546h-1.311l-1.268 4.786h-.064l-1.272-4.786h-1.31l-1.281 4.807h-.064l-1.276-4.807h-1.31l1.916 6.546Zm11.052.132c1.42 0 2.426-.703 2.714-1.769l-1.2-.217c-.229.618-.78.933-1.501.933-1.086 0-1.815-.707-1.85-1.968h4.632v-.452c0-2.365-1.408-3.29-2.884-3.29-1.815 0-3.011 1.39-3.011 3.4 0 2.033 1.179 3.363 3.1 3.363Zm-1.832-3.976c.05-.929.721-1.734 1.752-1.734.983 0 1.628.733 1.632 1.734h-3.384Zm6.034 3.844h1.268v-3.997c0-.857.657-1.475 1.556-1.475.263 0 .56.047.662.077v-1.219a5.14 5.14 0 0 0-.539-.03c-.763 0-1.416.435-1.654 1.138h-.068v-1.04h-1.225V19.5Zm7.158.132c1.42 0 2.426-.703 2.714-1.769l-1.2-.217c-.23.618-.78.933-1.501.933-1.087 0-1.816-.707-1.85-1.968h4.631v-.452c0-2.365-1.407-3.29-2.884-3.29-1.814 0-3.01 1.39-3.01 3.4 0 2.033 1.179 3.363 3.1 3.363Zm-1.833-3.976c.051-.929.721-1.734 1.752-1.734.984 0 1.629.733 1.633 1.734h-3.385Zm8.473 3.972c1.187 0 1.654-.729 1.883-1.147h.106V19.5h1.238v-8.727h-1.268v3.242h-.076c-.23-.404-.662-1.146-1.875-1.146-1.573 0-2.731 1.249-2.731 3.37 0 2.119 1.141 3.389 2.723 3.389Zm.28-1.087c-1.133 0-1.722-1.001-1.722-2.314 0-1.3.577-2.275 1.722-2.275 1.107 0 1.7.907 1.7 2.275 0 1.377-.606 2.314-1.7 2.314Zm8.02.959h1.237V18.48h.107c.229.418.695 1.147 1.883 1.147 1.578 0 2.723-1.27 2.723-3.388 0-2.122-1.163-3.37-2.736-3.37-1.208 0-1.645.74-1.87 1.146h-.077v-3.243h-1.268V19.5Zm1.242-3.273c0-1.368.594-2.275 1.7-2.275 1.15 0 1.727.975 1.727 2.275 0 1.313-.594 2.314-1.727 2.314-1.09 0-1.7-.937-1.7-2.314Zm6.7 5.71c1.047 0 1.713-.55 2.086-1.564l2.693-7.406-1.37-.013-1.649 5.08h-.068l-1.65-5.08h-1.357l2.384 6.631-.157.435c-.323.848-.776.925-1.472.733l-.305 1.044c.152.072.483.14.865.14Zm10.606-11.164h-2.04l2.999 8.727h2.367l2.993-8.727h-2.035l-2.103 6.63h-.081l-2.1-6.63Zm9.553 8.855c1.612 0 2.697-.789 2.952-2.003l-1.671-.11c-.182.498-.649.758-1.251.758-.903 0-1.476-.601-1.476-1.577v-.004h4.436v-.499c0-2.224-1.34-3.324-3.062-3.324-1.917 0-3.159 1.368-3.159 3.388 0 2.075 1.225 3.37 3.231 3.37Zm-1.446-4.061c.038-.746.602-1.343 1.404-1.343.785 0 1.327.563 1.332 1.343h-2.736Zm5.615 3.933h1.807v-3.703c0-.806.585-1.36 1.382-1.36.251 0 .594.043.764.098v-1.61a2.702 2.702 0 0 0-.568-.064c-.73 0-1.328.426-1.566 1.236h-.068v-1.143h-1.751V19.5Zm7.526.128c1.735 0 2.826-1.023 2.91-2.527h-1.705c-.106.699-.564 1.09-1.183 1.09-.844 0-1.391-.711-1.391-1.964 0-1.236.551-1.943 1.391-1.943.661 0 1.085.439 1.183 1.09h1.705c-.076-1.512-1.217-2.505-2.918-2.505-1.976 0-3.197 1.377-3.197 3.384 0 1.99 1.2 3.375 3.205 3.375Zm7.035 0c1.612 0 2.698-.789 2.952-2.003l-1.671-.11c-.182.498-.648.758-1.251.758-.903 0-1.475-.601-1.475-1.577v-.004h4.435v-.499c0-2.224-1.34-3.324-3.061-3.324-1.918 0-3.16 1.368-3.16 3.388 0 2.075 1.226 3.37 3.231 3.37Zm-1.445-4.061c.038-.746.602-1.343 1.403-1.343.784 0 1.328.563 1.331 1.343h-2.734Zm7.421-4.794h-1.807V19.5h1.807v-8.727Z" fill="#F9FAFB"/>
</svg>
