<svg width="100" height="100" viewBox="0 0 100 100" fill="none" xmlns="http://www.w3.org/2000/svg">
<g clip-path="url(#clip0)">
<path d="M49.995 84.77C64.125 84.77 75.58 68.704 75.58 48.885C75.58 29.066 64.125 13 49.996 13C35.865 13 24.41 29.066 24.41 48.885C24.41 68.704 35.866 84.77 49.995 84.77Z" fill="#212121"/>
<path fill-rule="evenodd" clip-rule="evenodd" d="M0 66.754C0 78.314 17.296 87.7 38.6 87.7C59.905 87.7 77.201 78.314 77.201 66.754C68.195 70.222 53.999 73.038 38.601 73.038C23.203 73.038 9.007 70.222 0 66.754Z" fill="url(#paint0_linear)"/>
<path fill-rule="evenodd" clip-rule="evenodd" d="M22.799 66.754C22.799 78.314 40.095 87.7 61.399 87.7C82.704 87.7 100 78.314 100 66.754C90.993 70.222 76.798 73.038 61.4 73.038C46.001 73.038 31.805 70.222 22.799 66.754Z" fill="url(#paint1_linear)"/>
<path fill-rule="evenodd" clip-rule="evenodd" d="M6.91 54.892C5.253 66.334 21.027 78.1 42.112 81.15C63.196 84.201 81.659 77.389 83.314 65.948C73.904 68.09 59.451 68.844 44.211 66.639C28.971 64.434 15.325 59.614 6.908 54.892H6.91Z" fill="url(#paint2_linear)"/>
<path fill-rule="evenodd" clip-rule="evenodd" d="M93.106 54.892C94.762 66.334 78.987 78.1 57.903 81.15C36.818 84.201 18.356 77.39 16.7 65.948C26.11 68.09 40.563 68.844 55.803 66.639C71.043 64.434 84.689 59.614 93.106 54.892Z" fill="url(#paint3_linear)"/>
</g>
<defs>
<linearGradient id="paint0_linear" x1="50" y1="87.7" x2="2.43395e-06" y2="66.754" gradientUnits="userSpaceOnUse">
<stop stop-color="#22C1C3"/>
<stop offset="1" stop-color="#FDBB2D"/>
</linearGradient>
<linearGradient id="paint1_linear" x1="50" y1="87.7" x2="100" y2="66.754" gradientUnits="userSpaceOnUse">
<stop stop-color="#22C1C3"/>
<stop offset="1" stop-color="#FDBB2D"/>
</linearGradient>
<linearGradient id="paint2_linear" x1="50.008" y1="87.7" x2="6.79" y2="54.892" gradientUnits="userSpaceOnUse">
<stop stop-color="#22C1C3"/>
<stop offset="1" stop-color="#FDBB2D"/>
</linearGradient>
<linearGradient id="paint3_linear" x1="16.7" y1="66.753" x2="68.463" y2="77.226" gradientUnits="userSpaceOnUse">
<stop stop-color="#FDBB2D"/>
<stop offset="1" stop-color="#22C1C3"/>
</linearGradient>
<clipPath id="clip0">
<rect width="100" height="100" fill="white"/>
</clipPath>
</defs>
</svg>
