<?xml version="1.0" encoding="UTF-8" standalone="no"?>
<!DOCTYPE svg PUBLIC "-//W3C//DTD SVG 1.1//EN" "http://www.w3.org/Graphics/SVG/1.1/DTD/svg11.dtd">
<svg width="100%" height="100%" viewBox="0 0 800 543" version="1.1" xmlns="http://www.w3.org/2000/svg" xmlns:xlink="http://www.w3.org/1999/xlink" xml:space="preserve" xmlns:serif="http://www.serif.com/" style="fill-rule:evenodd;clip-rule:evenodd;stroke-linejoin:round;stroke-miterlimit:2;">
    <g transform="matrix(1,0,0,1,0,-2989.14)">
        <g id="BoxVector" transform="matrix(1,0,0,0.967277,0,628.07)">
            <rect x="0" y="2440.95" width="800" height="560.749" style="fill:none;"/>
            <clipPath id="_clip1">
                <rect x="0" y="2440.95" width="800" height="560.749"/>
            </clipPath>
            <g clip-path="url(#_clip1)">
                <g id="package_vector_2" transform="matrix(0.921724,0,0,0.952906,400,2721.34)">
                    <g transform="matrix(1,0,0,1,-433.969,-294.25)">
                        <clipPath id="_clip2">
                            <rect x="0" y="0" width="867.939" height="588.5"/>
                        </clipPath>
                        <g clip-path="url(#_clip2)">
                            <g transform="matrix(1,0,0,1,-166.031,-155.75)">
                                <path d="M925.055,325.48L809.021,325.48C793.317,282.967 786.496,243.439 809.021,213.767C809.021,181.94 835.211,155.75 867.038,155.75L867.038,155.75C885.811,155.736 903.465,164.846 914.331,180.154C923.5,193.031 925.337,209.63 920.08,224.538C910.709,251.107 916.43,287.362 925.055,325.48Z" style="fill:#2f2e41;fill-rule:nonzero;"/>
                            </g>
                            <g transform="matrix(1,0,0,1,-166.031,-155.75)">
                                <path d="M986.337,744.25C979.463,744.25 973.351,739.736 971.329,733.166L966.549,717.63C965.443,714.035 965.23,710.224 965.929,706.528L969.185,689.319L992.021,689.319L1001.5,724.46C1001.86,725.793 1002.04,727.167 1002.04,728.548C1002.04,737.162 994.951,744.25 986.337,744.25C986.337,744.25 986.337,744.25 986.337,744.25Z" style="fill:#2f2e41;fill-rule:nonzero;"/>
                            </g>
                            <g transform="matrix(1,0,0,1,-166.031,-155.75)">
                                <path d="M819.952,744.25C826.826,744.25 832.938,739.736 834.96,733.166L839.74,717.63C840.846,714.035 841.059,710.224 840.36,706.528L837.104,689.319L814.268,689.319L804.792,724.46C804.432,725.793 804.25,727.167 804.25,728.548C804.25,737.162 811.338,744.25 819.952,744.25Z" style="fill:#2f2e41;fill-rule:nonzero;"/>
                            </g>
                            <g transform="matrix(1,0,0,1,-166.031,-155.75)">
                                <path d="M993.873,691.171L968.568,691.171L858.706,482.557L838.438,691.171L816.119,691.171C804.669,559.803 776.811,434.671 816.119,387.509L908.082,396.149L993.873,691.171Z" style="fill:#2f2e41;fill-rule:nonzero;"/>
                            </g>
                            <circle cx="697.921" cy="59.868" r="30.86" style="fill:#9f616a;"/>
                            <g transform="matrix(1,0,0,1,-166.031,-155.75)">
                                <path d="M907.465,334.429L838.956,334.429L827.229,280.116C849.98,273.395 855.404,257.762 850.682,236.912L887.714,234.443C889.813,251.238 893.653,266.899 917.34,269.623L907.465,334.429Z" style="fill:#9f616a;fill-rule:nonzero;"/>
                            </g>
                            <g transform="matrix(1,0,0,1,-166.031,-155.75)">
                                <path d="M907.465,402.321C868.596,417.079 836.975,416.619 814.885,396.149C824.853,363.276 825.45,322.795 821.057,278.264L833.401,272.709L837.721,312.21L898.824,309.124L912.402,265.92L925.981,269.006C927.022,322.573 923.813,370.762 907.465,402.321Z" style="fill:#e6e6e6;fill-rule:nonzero;"/>
                            </g>
                            <g transform="matrix(1,0,0,1,-166.031,-155.75)">
                                <path d="M943.262,468.979L950.519,492.564C950.894,493.782 951.084,495.048 951.084,496.321C951.084,503.33 945.317,509.097 938.309,509.097L938.309,509.097C931.301,509.097 925.533,503.33 925.533,496.321C925.533,495.878 925.557,495.435 925.603,494.994L928.45,467.744L916.723,375.164L925.364,334.429L946.966,334.429L943.262,468.979Z" style="fill:#9f616a;fill-rule:nonzero;"/>
                            </g>
                            <g transform="matrix(1,0,0,1,-166.031,-155.75)">
                                <path d="M770.399,464.073L757.646,485.199C756.444,487.191 755.808,489.474 755.808,491.801C755.808,497.646 759.819,502.781 765.489,504.197C766.501,504.449 767.54,504.577 768.583,504.577C774.919,504.577 780.345,499.864 781.233,493.591L785.07,466.463L818.87,379.479L825.686,337.824L799.393,332.633L770.399,464.073Z" style="fill:#9f616a;fill-rule:nonzero;"/>
                            </g>
                            <g transform="matrix(1,0,0,1,-166.031,-155.75)">
                                <path d="M962.396,339.367L921.66,338.75L921.66,267.772L927.932,268.686C941.588,270.678 952.19,281.851 953.462,295.592L962.396,339.367Z" style="fill:#e6e6e6;fill-rule:nonzero;"/>
                            </g>
                            <g transform="matrix(1,0,0,1,-166.031,-155.75)">
                                <path d="M788.345,346.773L829.08,346.156L829.08,275.178L822.809,276.093C809.153,278.084 798.551,289.258 797.279,302.999L788.345,346.773Z" style="fill:#e6e6e6;fill-rule:nonzero;"/>
                            </g>
                            <g transform="matrix(1,0,0,1,-166.031,-155.75)">
                                <path d="M892.343,200.806C879.234,208.223 854.041,211.615 835.561,206.36L829.389,174.266L890.492,174.266L892.343,200.806Z" style="fill:#2f2e41;fill-rule:nonzero;"/>
                            </g>
                            <rect x="40" y="426" width="201" height="162" style="fill:#e6e6e6;"/>
                            <rect x="123.5" y="541" width="34" height="46" style="fill:#fdbb2d;"/>
                            <g transform="matrix(1,0,0,1,-166.031,-155.75)">
                                <path d="M428.936,716.817L425.463,713.913L425.72,715.727C425.72,715.727 426.947,716.112 428.936,716.817Z" style="fill:none;fill-rule:nonzero;"/>
                            </g>
                            <path d="M488.026,430.784L493.376,416.518L543.307,387.986L577.189,380.853L488.026,430.784Z" style="fill:#fdbb2d;fill-rule:nonzero;"/>
                            <path d="M304.352,430.784L299.002,416.518L249.071,387.986L215.189,380.853L304.352,430.784Z" style="fill:#fdbb2d;fill-rule:nonzero;"/>
                            <path d="M491.593,434.35L300.785,434.35L284.736,359.454L507.642,359.454L491.593,434.35Z" style="fill:#fdbb2d;fill-rule:nonzero;"/>
                            <path d="M491.593,434.35L300.785,434.35L284.736,359.454L507.642,359.454L491.593,434.35Z" style="fill-opacity:0.1;fill-rule:nonzero;"/>
                            <rect x="299.893" y="429.892" width="192.591" height="158.108" style="fill:#fdbb2d;"/>
                            <rect x="379.189" y="540.977" width="34" height="46" style="fill:#3f3d56;"/>
                            <path d="M867.543,588.19L0,588.19L0,586.008L867.939,586.008L867.543,588.19Z" style="fill:#3f3d56;fill-rule:nonzero;"/>
                            <rect x="356.189" y="462.25" width="80" height="25" style="fill:#fff;"/>
                            <rect x="99.969" y="462.25" width="80" height="25" style="fill:#fff;"/>
                        </g>
                    </g>
                </g>
                <g id="Bubbles">
                    <g transform="matrix(0.665421,0,0,0.687932,117.531,508.42)">
                        <circle cx="372.193" cy="3244.58" r="27.807" style="fill:#e6e6e6;"/>
                    </g>
                    <g transform="matrix(0.998132,0,0,1.0319,-15.5536,-668.937)">
                        <circle cx="372.193" cy="3244.58" r="27.807" style="fill:#e6e6e6;"/>
                    </g>
                    <g transform="matrix(0.721161,0,0,0.745558,196.242,170.234)">
                        <path d="M182.56,3095.81C186.594,3087.17 196.888,3080.49 208.622,3080.49C220.356,3080.49 230.65,3087.17 234.685,3095.81C242.498,3090.35 254.754,3089.7 264.916,3095.57C275.078,3101.44 280.652,3112.37 279.826,3121.87C289.324,3121.05 300.26,3126.62 306.127,3136.78C311.994,3146.95 311.353,3159.2 305.889,3167.01C314.527,3171.05 321.211,3181.34 321.211,3193.08C321.211,3204.81 314.527,3215.11 305.889,3219.14C311.353,3226.95 311.994,3239.21 306.127,3249.37C300.26,3259.53 289.324,3265.11 279.826,3264.28C280.652,3273.78 275.078,3284.71 264.916,3290.58C254.754,3296.45 242.498,3295.81 234.685,3290.34C230.65,3298.98 220.356,3305.66 208.622,3305.66C196.888,3305.66 186.594,3298.98 182.56,3290.34C174.747,3295.81 162.49,3296.45 152.328,3290.58C142.166,3284.71 136.592,3273.78 137.418,3264.28C127.92,3265.11 116.985,3259.53 111.118,3249.37C105.251,3239.21 105.891,3226.95 111.356,3219.14C102.717,3215.11 96.034,3204.81 96.034,3193.08C96.034,3181.34 102.717,3171.05 111.356,3167.01C105.891,3159.2 105.251,3146.95 111.118,3136.78C116.985,3126.62 127.92,3121.05 137.418,3121.87C136.592,3112.37 142.166,3101.44 152.328,3095.57C162.49,3089.7 174.747,3090.35 182.56,3095.81Z" style="fill:#e6e6e6;"/>
                    </g>
                </g>
                <g transform="matrix(2.3681,0,0,2.3681,-1245.81,-3643.48)">
                    <g transform="matrix(0.0741136,0,0,0.0766209,639.75,2595.7)">
                        <ellipse cx="441.66" cy="261.517" rx="145.19" ry="203.646" style="fill:#2f2e41;"/>
                    </g>
                    <g transform="matrix(0.0964872,0,0,0.0997514,633.888,2580.39)">
                        <g transform="matrix(6.12323e-17,-1,1,6.12323e-17,-180.358,674.98)">
                            <path d="M242.683,362.405C192.29,362.405 151.377,437.801 151.377,530.668C151.377,623.535 192.29,698.931 242.683,698.931C227.565,659.67 215.291,597.79 215.291,530.668C215.291,463.546 227.565,401.666 242.683,362.405Z" style="fill:url(#_Linear3);"/>
                        </g>
                        <g transform="matrix(6.12323e-17,-1,1,6.12323e-17,-80.9781,674.98)">
                            <path d="M242.683,362.405C192.29,362.405 151.377,437.801 151.377,530.668C151.377,623.535 192.29,698.931 242.683,698.931C227.565,659.67 215.291,597.79 215.291,530.668C215.291,463.546 227.565,401.666 242.683,362.405Z" style="fill:url(#_Linear4);"/>
                        </g>
                        <g transform="matrix(0.143201,-0.989694,0.989694,0.143201,-181.291,568.88)">
                            <path d="M242.683,362.405C192.29,362.405 151.377,437.801 151.377,530.668C151.377,623.535 192.29,698.931 242.683,698.931C227.565,659.67 215.291,597.79 215.291,530.668C215.291,463.546 227.565,401.666 242.683,362.405Z" style="fill:url(#_Linear5);"/>
                        </g>
                        <g transform="matrix(-0.143201,-0.989694,-0.989694,0.143201,981.291,568.88)">
                            <path d="M242.683,362.405C192.29,362.405 151.377,437.801 151.377,530.668C151.377,623.535 192.29,698.931 242.683,698.931C227.565,659.67 215.291,597.79 215.291,530.668C215.291,463.546 227.565,401.666 242.683,362.405Z" style="fill:url(#_Linear6);"/>
                        </g>
                    </g>
                </g>
            </g>
        </g>
    </g>
    <defs>
        <linearGradient id="_Linear3" x1="0" y1="0" x2="1" y2="0" gradientUnits="userSpaceOnUse" gradientTransform="matrix(91.3065,-217.953,116.687,48.8834,151.377,580.358)"><stop offset="0" style="stop-color:#22c1c3;stop-opacity:1"/><stop offset="1" style="stop-color:#fdbb2d;stop-opacity:1"/></linearGradient>
        <linearGradient id="_Linear4" x1="0" y1="0" x2="1" y2="0" gradientUnits="userSpaceOnUse" gradientTransform="matrix(91.3065,217.953,-116.687,48.8834,151.377,480.978)"><stop offset="0" style="stop-color:#22c1c3;stop-opacity:1"/><stop offset="1" style="stop-color:#fdbb2d;stop-opacity:1"/></linearGradient>
        <linearGradient id="_Linear5" x1="0" y1="0" x2="1" y2="0" gradientUnits="userSpaceOnUse" gradientTransform="matrix(114.558,-206.926,110.783,61.3316,128.051,568.816)"><stop offset="0" style="stop-color:#22c1c3;stop-opacity:1"/><stop offset="1" style="stop-color:#fdbb2d;stop-opacity:1"/></linearGradient>
        <linearGradient id="_Linear6" x1="0" y1="0" x2="1" y2="0" gradientUnits="userSpaceOnUse" gradientTransform="matrix(-77.4938,-216.772,116.055,-41.4884,239.208,699.434)"><stop offset="0" style="stop-color:#fdbb2d;stop-opacity:1"/><stop offset="1" style="stop-color:#22c1c3;stop-opacity:1"/></linearGradient>
    </defs>
</svg>
