<svg width="106" height="106" fill="none" xmlns="http://www.w3.org/2000/svg"><circle cx="53" cy="53" r="47" fill="#fff"/><path d="M53.05 5.68C26.99 5.68 5.78 26.9 5.78 52.95 5.78 79 27 100.22 53.05 100.22c26.05 0 47.27-21.22 47.27-47.27 0-26.05-21.22-47.27-47.27-47.27zm-.07 4.2a3.09 3.09 0 012.14.939 3.115 3.115 0 01-.03 4.37 3.11 3.11 0 11-2.11-5.309zM60.1 15a38.269 38.269 0 0126.2 18.66l-3.67 8.28a2.86 2.86 0 001.44 3.75l7.06 3.13c.219 2.207.246 4.428.08 6.64h-3.93c-.39 0-.55.26-.55.64v1.8c0 4.24-2.39 5.17-4.49 5.4-2 .23-4.21-.84-4.49-2.06-1.18-6.63-3.14-8.04-6.24-10.49 3.85-2.44 7.85-6.05 7.85-10.87 0-5.21-3.57-8.49-6-10.1-3.42-2.25-7.2-2.7-8.22-2.7h-40.6A38.27 38.27 0 0145.95 15l4.79 5.02a2.82 2.82 0 004 .09L60.1 15zM15.9 38.02a3.112 3.112 0 012.78 4.39 3.108 3.108 0 01-5.109.841A3.11 3.11 0 0115.9 38.02zm74.15.14a3.112 3.112 0 012.78 4.39 3.108 3.108 0 01-5.109.841 3.11 3.11 0 012.329-5.231zm-68.29.5h5.42V63.1H16.24A38.27 38.27 0 0115 48.49l6.7-2.98a2.833 2.833 0 001.44-3.74l-1.38-3.11zm22.62.26h12.91c.67 0 4.71.77 4.71 3.8 0 2.51-3.1 3.41-5.65 3.41H44.37l.01-7.21zm0 17.56h9.89c.9 0 4.83.26 6.08 5.28.39 1.54 1.26 6.56 1.85 8.17.59 1.8 2.98 5.4 5.53 5.4h16.14a38.25 38.25 0 01-3.54 4.1l-6.57-1.41a2.84 2.84 0 00-3.37 2.18l-1.56 7.28a38.27 38.27 0 01-31.91-.15l-1.56-7.28A2.83 2.83 0 0032 77.87l-6.43 1.38a38.26 38.26 0 01-3.32-3.92h31.27c.35 0 .59-.06.59-.39V63.88c0-.32-.24-.39-.59-.39h-9.15l.01-7.01zM29.95 81.81a3.112 3.112 0 012.78 4.39 3.108 3.108 0 01-5.109.841 3.11 3.11 0 012.329-5.231zm46.05.14a3.109 3.109 0 012.045 5.371 3.109 3.109 0 11-4.27-4.524c.6-.566 1.4-.87 2.225-.847z" fill="#000"/><path fill-rule="evenodd" clip-rule="evenodd" d="M97.68 52.95a44.63 44.63 0 11-89.26 0 44.63 44.63 0 0189.26 0v0zm-.84-4.31l6.96 4.31-6.96 4.31 5.98 5.59-7.66 2.87 4.78 6.65-8.09 1.32 3.4 7.46-8.19-.29 1.88 7.98-7.98-1.88.29 8.19-7.46-3.4-1.32 8.09-6.65-4.78-2.87 7.66-5.59-5.98-4.31 6.96-4.31-6.96-5.59 5.98-2.87-7.66-6.65 4.78-1.32-8.09-7.46 3.4.29-8.19-7.98 1.88 1.88-7.98-8.19.29 3.4-7.46-8.09-1.32 4.78-6.65-7.66-2.87 5.98-5.59-6.96-4.31 6.96-4.31-5.98-5.59 7.66-2.87-4.78-6.65 8.09-1.32-3.4-7.46 8.19.29-1.88-7.98 7.98 1.88-.29-8.19 7.46 3.4 1.32-8.09 6.65 4.78 2.87-7.66 5.59 5.98 4.31-6.96 4.31 6.96 5.59-5.98 2.87 7.66 6.65-4.78 1.32 8.09 7.46-3.4-.29 8.19 7.98-1.88-1.88 7.98 8.19-.29-3.4 7.46 8.09 1.32-4.78 6.65 7.66 2.87-5.98 5.59v0z" fill="#000" stroke="#000" stroke-width="3" stroke-linecap="round" stroke-linejoin="round"/></svg>
